<?xml version="1.0" standalone="no"?>
<!DOCTYPE svg PUBLIC "-//W3C//DTD SVG 20010904//EN"
 "http://www.w3.org/TR/2001/REC-SVG-20010904/DTD/svg10.dtd">
<svg version="1.0" xmlns="http://www.w3.org/2000/svg"
 width="512.000000pt" height="512.000000pt" viewBox="0 0 512.000000 512.000000"
 preserveAspectRatio="xMidYMid meet">
<metadata>
Created by potrace 1.14, written by Peter Selinger 2001-2017
</metadata>
<g transform="translate(0.000000,512.000000) scale(0.100000,-0.100000)"
fill="#000000" stroke="none">
<path d="M2330 5109 c-473 -44 -931 -221 -1318 -511 -124 -93 -341 -304 -445
-433 -284 -353 -460 -747 -537 -1206 -28 -161 -38 -477 -21 -644 97 -955 710
-1776 1591 -2130 191 -77 404 -134 625 -167 121 -18 549 -18 670 0 585 88
1074 330 1475 732 424 424 680 964 741 1565 17 167 7 483 -21 644 -96 569
-340 1036 -751 1436 -200 194 -384 326 -623 447 -429 216 -917 310 -1386 267z
m174 -2463 c194 -95 237 -365 83 -519 -182 -182 -495 -84 -548 171 -29 144 55
298 197 358 81 34 186 30 268 -10z"/>
</g>
</svg>
