<?xml version="1.0" encoding="utf-8"?>
<!-- Generator: Adobe Illustrator 26.1.0, SVG Export Plug-In . SVG Version: 6.00 Build 0)  -->
<svg version="1.1" id="Capa_1" xmlns="http://www.w3.org/2000/svg" xmlns:xlink="http://www.w3.org/1999/xlink" x="0px" y="0px"
	 viewBox="0 0 800 800" style="enable-background:new 0 0 800 800;" xml:space="preserve">
<style type="text/css">
	.st0{stroke:#000000;stroke-width:35;stroke-miterlimit:10;}
</style>
<g>
	<g>
		<path class="st0" d="M472.6,16.1H327.4c-152.1,0-275.9,124.6-275.9,277.8v131.8c0,114.1,69.6,216.6,174.3,258.3v85.4
			c0,5.8,3.4,11,8.6,13.4c1.9,0.8,3.9,1.3,5.9,1.3c3.5,0,7-1.3,9.7-3.8l84.2-76.8h138.4c152.1,0,275.9-124.6,275.9-277.8V293.8
			C748.5,140.7,624.7,16.1,472.6,16.1z M719.5,425.6c0,137-110.7,248.5-246.8,248.5h-144c-3.6,0-7.1,1.3-9.7,3.8l-64.1,58.4v-62.6
			c0-6.2-3.9-11.7-9.7-13.8C146.7,624.9,80.5,530.7,80.5,425.6V293.8c0-137,110.7-248.5,246.8-248.5h145.2
			c136.1,0,246.8,111.5,246.8,248.5V425.6z"/>
		<path d="M596.2,482.2l-31.6,49c-13.9,21.5-37.2,33.3-61,33.3c-13.5,0-27.2-3.8-39.4-11.8c-3.3-1.6-109.8-57.5-168.9-118.1
			c-58.8-60.3-95.2-125.7-96.7-128.5c-0.4-0.7-0.7-1.4-1-2.1c-5.9-16.4-23.9-66.1,14.6-99.8l43.8-38.4c6.1-5.3,15.2-4.6,20.5,1.4
			l69.8,80.9c7.2,8.3,10.7,18.6,10.7,28.8c0,12.3-5.1,24.5-14.9,33.1l-10.6,9.2c25.5,74.3,68.1,90.8,106.7,103.6l4.2-6.5
			c6.3-9.9,16.1-16.6,27.5-19.1c11.4-2.4,23-0.2,32.7,6.2l89.2,58.4C598.6,466.4,600.5,475.4,596.2,482.2z"/>
		<path d="M433.2,253.6c-7.7-2.2-15.8,2.3-17.9,10.1c-2.2,7.8,2.3,15.9,10,18.1c21.6,6.2,38.9,23.6,45,45.4
			c1.8,6.4,7.6,10.7,14,10.7c1.3,0,2.6-0.2,3.9-0.5c7.7-2.2,12.2-10.3,10-18C489.3,287.7,464.4,262.6,433.2,253.6z"/>
		<path d="M543.7,341c1.3,0,2.6-0.2,3.9-0.5c7.7-2.2,12.2-10.3,10-18c-17.1-61.2-65.5-110-126.2-127.4c-7.7-2.2-15.7,2.3-17.9,10.1
			c-2.2,7.8,2.3,15.9,10,18.1c51.1,14.6,91.7,55.7,106.2,107.2C531.5,336.8,537.3,341,543.7,341z"/>
		<path d="M425.2,126.9c-7.7-2.2-15.8,2.3-17.9,10.1c-2.2,7.8,2.3,15.9,10,18.1c86.5,24.8,155.5,94.4,179.9,181.6
			c1.8,6.4,7.6,10.7,14,10.7c1.3,0,2.6-0.2,3.9-0.5c7.7-2.2,12.2-10.3,10-18C597.9,231.8,521.4,154.5,425.2,126.9z"/>
	</g>
</g>
</svg>
