<svg width="197" height="80" viewBox="0 0 197 80" fill="none" xmlns="http://www.w3.org/2000/svg">
<g clip-path="url(#clip0_67_205)">
<path d="M187.438 64.1795L188.874 64.1766V72.8018L194.357 64.1766L196.01 64.1795V74.8355L194.574 74.8385V66.1716L189.1 74.8385L187.438 74.8355V64.1795ZM177.416 64.1766L186.133 64.1795V65.4223H182.491V74.8355L181.055 74.8385V65.4253H177.416V64.1766ZM171.972 73.8573C173.316 73.8544 174.796 72.9475 175.091 71.0179H176.479C175.861 76.8365 167.015 76.5838 167.015 69.6413C167.015 61.9615 176.402 62.797 176.402 67.349H175.001C174.014 63.5611 168.448 64.7207 168.448 69.4897C168.448 72.2696 169.977 73.8544 171.972 73.8573ZM160.632 65.1548C155.625 65.1577 155.461 73.8573 160.632 73.8544C165.755 73.8573 165.677 65.1548 160.632 65.1548ZM160.632 75.1031C153.746 75.1031 153.609 63.912 160.632 63.912C167.64 63.912 167.524 75.1031 160.632 75.1031ZM145.15 64.1795H146.583V68.568H152.286V64.1736L153.719 64.1766V74.8355H152.286V69.8257L146.586 69.8227L146.583 74.8385H145.147L145.15 64.1795ZM135.128 64.1795H143.842V65.4253H140.2V74.8355H138.764V65.4253L135.128 65.4223V64.1795ZM126.077 64.1795H133.906V65.4253L127.51 65.4223V68.7226H133.409V69.9773H127.51V73.5897L134.007 73.5868V74.8355L126.077 74.8385V64.1795ZM122.444 64.1766L123.88 64.1795C123.88 66.2816 124.519 73.1497 123 74.3747C120.847 76.1199 117.776 75.2042 117.776 71.4074H119.114C119.114 75.0763 122.447 74.4163 122.444 71.9069V64.1766ZM106.201 64.1795H108.259L111.297 73.1378L114.357 64.1795H116.417V74.8385H115.067V65.8743L112.032 74.8385L110.593 74.8355L107.578 65.8772L107.551 74.8385L106.201 74.8355V64.1795ZM97.0291 73.4203C98.1232 74.0357 100.297 73.7919 99.1757 71.675L95.5068 64.1795H97.1837L100.508 71.2974L103.407 64.1766L105.015 64.1795L101.51 72.1448C100.454 74.559 99.146 75.7423 97.0261 74.895L97.0291 73.4203ZM86.0609 65.7851L84.3662 70.459H87.7378L86.0609 65.7851ZM88.1362 71.6126H83.9589L82.8112 74.8355L81.2651 74.8385L85.3027 64.1766L86.941 64.1795L90.827 74.8355H89.2898L88.1362 71.6126ZM78.5417 64.1795H79.9807C79.9777 66.2816 80.614 73.1497 79.0977 74.3747C76.9421 76.1229 73.8708 75.2042 73.8708 71.4074H75.2087C75.2117 75.0763 78.5417 74.4133 78.5417 71.9069V64.1795ZM63.9432 64.1766L65.3763 64.1795V72.7989L70.8589 64.1795L72.512 64.1766V74.8385L71.0789 74.8355V66.1716L65.6023 74.8385L63.9432 74.8355V64.1766ZM51.5212 64.1795L53.5876 64.1766L56.6173 73.1408L59.6797 64.1766H61.7401V74.8355H60.3932L60.3962 65.8743L57.3546 74.8385H55.9186L52.9037 65.8743L52.874 74.8385L51.5242 74.8355L51.5212 64.1795ZM41.5877 64.1795L49.4132 64.1766V65.4223H43.0208V68.7196L48.9196 68.7226V69.9773L43.0238 69.9743V73.5897H49.5173L49.5143 74.8355H41.5877V64.1795ZM37.7255 65.4253L34.6245 65.4223C34.6215 68.1131 34.2945 71.229 33.2806 73.5897H37.7285L37.7255 65.4253ZM30.8188 74.9009L30.8158 73.5897H31.791C33.0546 71.0833 33.2836 67.1111 33.2806 64.1766L39.1616 64.1795V73.5897L40.2201 73.5868V74.8831L30.8188 74.9009ZM25.5919 65.7851L23.8972 70.459L27.2747 70.4619L25.5919 65.7851ZM27.6731 71.6126H23.4928L22.3422 74.8355H20.7961L24.8367 64.1795H26.4749L30.3579 74.8355H28.8238L27.6731 71.6126ZM11.7724 64.1795H13.2115L13.2085 69.3767L18.4294 64.1795H20.4364L15.9676 68.4818L20.5523 74.8385L18.6732 74.8355L14.9151 69.4778L13.2085 71.1279V74.8355L11.7724 74.8385V64.1795ZM5.71602 65.7851L4.01832 70.459H7.39588L5.71602 65.7851ZM7.79727 71.6126L3.61991 71.6096L2.46928 74.8355H0.923218L4.96083 64.1795H6.60204L10.4821 74.8355H8.95087L7.79727 71.6126Z" fill="#1D1D1D"/>
<path d="M191.785 79.0604L192.704 79.0634C192.722 79.218 192.829 79.3429 193.031 79.438C193.23 79.5332 193.492 79.5748 193.813 79.5748C194.167 79.5748 194.446 79.5302 194.66 79.438C194.871 79.3429 194.978 79.218 194.981 79.0575C194.978 78.9237 194.904 78.8196 194.743 78.7423C194.592 78.668 194.262 78.5966 193.768 78.5282C193.744 78.5252 193.7 78.5223 193.637 78.5163C193.043 78.4509 192.615 78.3379 192.35 78.1774C192.228 78.112 192.136 78.0376 192.079 77.9603C192.02 77.883 191.987 77.8028 191.99 77.7106C191.987 77.4549 192.169 77.2438 192.528 77.0832C192.888 76.9227 193.358 76.8394 193.941 76.8424C194.485 76.8424 194.922 76.9138 195.252 77.0595C195.585 77.2022 195.772 77.4014 195.802 77.6511H194.848C194.833 77.5263 194.735 77.4311 194.565 77.3568C194.387 77.2824 194.176 77.2468 193.908 77.2497C193.628 77.2468 193.4 77.2854 193.224 77.3687C193.043 77.4519 192.957 77.559 192.954 77.6868C192.957 77.7344 192.971 77.776 193.001 77.8206C193.037 77.8593 193.084 77.8979 193.156 77.9276C193.293 77.999 193.596 78.0614 194.048 78.1149C194.262 78.1387 194.425 78.1595 194.535 78.1744C195.002 78.2517 195.356 78.3587 195.6 78.5044C195.841 78.6472 195.962 78.8166 195.962 79.0218C195.965 79.3102 195.763 79.548 195.377 79.7294C194.99 79.9048 194.473 80 193.831 79.997C193.23 79.997 192.737 79.9108 192.362 79.7383C191.984 79.5659 191.788 79.3399 191.785 79.0604ZM182.342 79.9375H181.316V77.3062H179.996V76.8959L183.665 76.8989V77.3092L182.339 77.3062L182.342 79.9375ZM168.133 79.9375H167.105V76.8959L169.147 76.8989C169.997 76.8989 170.646 76.9851 171.095 77.1516C171.541 77.3211 171.764 77.5619 171.764 77.8801C171.764 78.1268 171.576 78.335 171.205 78.5044C170.83 78.668 170.342 78.7572 169.754 78.7691L171.764 79.9375H170.479L168.133 78.5252V79.9375ZM168.136 78.4747H168.66C169.364 78.4747 169.896 78.4271 170.241 78.329C170.589 78.2309 170.762 78.0763 170.762 77.8771C170.762 77.6779 170.61 77.5381 170.313 77.446C170.015 77.3508 169.543 77.3092 168.897 77.3062L168.133 77.3092L168.136 78.4747ZM154.269 79.0485L153.469 79.9375H152.384L155.152 76.8989H156.151L158.913 79.9375H157.789L157.016 79.0515L154.269 79.0485ZM156.645 78.6234L155.649 77.4727L154.632 78.6234H156.645ZM128.599 79.9375L128.596 76.8989H132.083V77.3033H129.606L129.609 78.2101L132.083 78.2131V78.6085H129.606V79.9345L128.599 79.9375ZM112.653 78.3974C112.659 78.1863 112.748 77.9841 112.936 77.7909C113.129 77.6036 113.403 77.4311 113.762 77.2765C114.11 77.1338 114.488 77.0238 114.91 76.9524C115.332 76.8751 115.781 76.8365 116.263 76.8365C116.759 76.8365 117.217 76.8751 117.642 76.9495C118.065 77.0208 118.454 77.1338 118.799 77.2824C119.159 77.4341 119.429 77.6036 119.614 77.7938C119.792 77.9782 119.887 78.1833 119.884 78.3974C119.884 78.6174 119.807 78.8107 119.649 78.995C119.498 79.1764 119.263 79.3399 118.951 79.4826C118.582 79.6551 118.175 79.7799 117.726 79.8662C117.271 79.9524 116.78 79.997 116.251 79.997C115.719 80 115.231 79.9494 114.782 79.8662C114.333 79.7799 113.932 79.6461 113.575 79.4737C113.272 79.331 113.046 79.1675 112.891 78.9861C112.737 78.8018 112.653 78.6085 112.653 78.3974ZM113.73 78.4033C113.73 78.5609 113.789 78.7126 113.911 78.8523C114.036 78.995 114.211 79.1139 114.443 79.218C114.687 79.328 114.963 79.4113 115.282 79.4737C115.597 79.5302 115.924 79.5599 116.251 79.5599C116.985 79.5599 117.598 79.4499 118.088 79.224C118.585 79.0039 118.829 78.7245 118.829 78.3944C118.829 78.2577 118.766 78.1209 118.653 77.9901C118.531 77.8652 118.362 77.7463 118.133 77.6392C117.865 77.5144 117.574 77.4222 117.271 77.3687C116.964 77.3062 116.628 77.2795 116.251 77.2795C115.921 77.2765 115.606 77.3003 115.302 77.3598C114.999 77.4162 114.732 77.4906 114.497 77.5946C114.256 77.7017 114.066 77.8265 113.932 77.9693C113.795 78.1149 113.73 78.2577 113.73 78.4033ZM90.4583 78.8434V79.9375H89.4355L89.4326 78.8166L87.2651 76.8989H88.4038L89.9648 78.3617L91.5138 76.8989H92.6496L90.4583 78.8434ZM72.9283 79.9375H71.9382V76.8989H73.4605L75.512 79.2507L77.5635 76.8959L79.065 76.8989V79.9375H78.1017L78.1701 77.3003L75.8718 79.9375H75.1404L72.851 77.3003L72.9283 79.9375ZM62.8789 79.9375H59.207L59.204 76.8989L62.8818 76.8959L62.8789 77.3033H60.2327V78.2101H62.8789V78.6085H60.2297V79.5183H62.8789V79.9375ZM46.6154 79.9375H44.6264L44.6234 76.8989L46.9068 76.8959C47.9712 76.8989 48.8275 77.0386 49.4816 77.3211C50.1327 77.6036 50.4598 77.9722 50.4568 78.4301C50.4568 78.6858 50.3349 78.9237 50.0941 79.1348C49.8503 79.3488 49.4965 79.5242 49.0356 79.667C48.7264 79.7651 48.3934 79.8305 48.0396 79.8751C47.6858 79.9167 47.2101 79.9345 46.6154 79.9375ZM45.6224 79.5302H46.8652C47.6561 79.5302 48.2775 79.4321 48.7383 79.2358C49.1992 79.0396 49.4221 78.7691 49.4251 78.4331C49.4221 78.0822 49.1843 77.8087 48.6997 77.6125C48.2121 77.4162 47.5371 77.3122 46.6779 77.3152H45.6224V79.5302ZM31.8356 79.0515L31.0388 79.9375H29.9506L32.7217 76.8959L33.7177 76.8989L36.4828 79.9375L35.3619 79.9345L34.5859 79.0515H31.8356ZM34.2142 78.6234L33.2152 77.4698L32.2014 78.6234H34.2142ZM22.03 79.1734C21.7208 79.441 21.2986 79.6461 20.7545 79.7829C20.2104 79.9286 19.5831 79.997 18.8665 80C18.3373 79.997 17.8438 79.9524 17.3948 79.8662C16.9488 79.7799 16.5445 79.6461 16.1877 79.4707C15.8874 79.331 15.6584 79.1675 15.5009 78.9861C15.3433 78.8018 15.269 78.6085 15.269 78.3974C15.269 78.1863 15.3641 77.9871 15.5514 77.7998C15.7387 77.6065 16.0152 77.4341 16.378 77.2795C16.7199 77.1338 17.0975 77.0238 17.5226 76.9524C17.9389 76.8751 18.3938 76.8335 18.8755 76.8335C19.6009 76.8365 20.2402 76.9078 20.7902 77.0595C21.3373 77.2051 21.7535 77.4133 22.03 77.6838H20.8259C20.594 77.55 20.3175 77.4489 19.9874 77.3806C19.6574 77.3122 19.2798 77.2795 18.8665 77.2795C18.5306 77.2795 18.2124 77.3033 17.9151 77.3598C17.6089 77.4162 17.3443 77.4906 17.1123 77.5917C16.8715 77.6987 16.6783 77.8295 16.5415 77.9693C16.4077 78.112 16.3393 78.2547 16.3393 78.4033C16.3393 78.5609 16.3988 78.7126 16.5266 78.8523C16.6485 78.992 16.8239 79.1169 17.0559 79.221C17.2937 79.328 17.5762 79.4113 17.8943 79.4737C18.2124 79.5302 18.5395 79.5599 18.8665 79.5599C19.2709 79.557 19.6366 79.5302 19.9636 79.4618C20.2907 79.3964 20.5553 79.3013 20.7664 79.1764L22.03 79.1734ZM2.92719 79.0515L2.12739 79.9375H1.04218L3.80726 76.8989H4.80625L7.5743 79.9375H6.44746L5.67145 79.0515H2.92719ZM5.30278 78.6234L4.30675 77.4727L3.28694 78.6234H5.30278Z" fill="#1D1D1D"/>
<path d="M41.2755 55.0103L70.2553 26.0334L90.3453 46.1234L81.4584 55.0133L41.2755 55.0103Z" fill="#1D1D1D"/>
<path d="M118.588 22.3198L151.465 55.1975H85.7131L118.588 22.3198Z" fill="#1D1D1D"/>
<path d="M96.2501 40.1501L76.175 20.0751L96.2501 0L116.325 20.0751L96.2501 40.1501Z" fill="#1D1D1D"/>
</g>
<defs>
<clipPath id="clip0_67_205">
<rect width="195.2" height="80" fill="white" transform="translate(0.866638)"/>
</clipPath>
</defs>
</svg>
