<svg width="75" height="80" viewBox="0 0 75 80" fill="none" xmlns="http://www.w3.org/2000/svg">
<g id="filozofski-fakultet-beograd-logo">
<path d="M0.307739 60.0446H74.0508V0L72.4722 0.0692423C69.0386 0.207727 65.6971 1.51179 62.7704 3.85449L61.526 4.83542L60.7886 4.21224C58.6454 2.38886 56.1796 1.13096 53.3912 0.426994C51.7781 0.0115404 48.402 -0.0923231 46.6045 0.207727C43.5166 0.715504 40.0829 2.35424 37.9052 4.33918L37.2945 4.90466L36.7645 4.46613C34.3217 2.38886 31.9366 1.1425 29.0214 0.403913C27.8577 0.115404 27.6272 0.0923231 25.1384 0.0923231C22.2578 0.0923231 21.843 0.150025 19.6653 0.865529C17.5221 1.55795 15.2177 2.86201 13.7082 4.24686L12.9938 4.89312L12.0375 4.11992C8.97255 1.61565 5.50432 0.242348 1.84021 0.0692423L0.307739 0V60.0446ZM4.04098 2.35424C7.05984 2.98896 9.91738 4.56999 12.049 6.7742C12.5099 7.2589 12.9132 7.65127 12.9362 7.65127C12.9593 7.65127 13.3626 7.2589 13.8119 6.7742C16.4045 4.05067 20.1147 2.27346 23.8133 2.00803C28.6412 1.66181 33.0773 3.35825 36.4073 6.83191C36.8451 7.28198 37.2369 7.65127 37.283 7.65127C37.329 7.65127 37.5941 7.38584 37.8591 7.07425C38.4582 6.37029 39.9792 5.07777 40.9816 4.41997C43.4474 2.82739 46.305 1.98495 49.2777 1.98495C50.9715 1.97341 51.5015 2.03111 52.9073 2.3427C55.8109 3.01204 58.4956 4.53537 60.6157 6.7165C61.1112 7.23582 61.526 7.65127 61.549 7.65127C61.5721 7.65127 61.9869 7.23582 62.4823 6.7165C65.0979 4.01605 68.5892 2.3427 72.2418 2.01957L73.2442 1.92724V4.15454L72.2994 4.22378C68.1168 4.53537 63.8074 7.40893 61.8601 11.1942L61.4338 12.0251L61.0305 11.2519C60.3622 9.98243 59.6594 9.03612 58.6224 7.99748C53.5525 2.91972 45.4408 2.82739 40.2442 7.76668C39.1611 8.79377 38.1932 10.0632 37.5825 11.2403L37.1447 12.0943L36.7184 11.2634C35.2896 8.50526 32.8123 6.24335 29.9778 5.11239C26.4059 3.66984 22.5804 3.81987 19.1468 5.5163C17.695 6.23181 16.6695 6.98193 15.5057 8.14751C14.6415 9.02458 13.57 10.5479 13.1091 11.5288L12.8441 12.1174L12.4062 11.275C10.6894 7.93978 7.57834 5.44706 3.98337 4.53537C3.19985 4.32764 1.62129 4.10838 1.26409 4.143C1.14887 4.15454 1.1143 3.86603 1.1143 3.04666V1.92724L2.01305 2.01957C2.49699 2.06573 3.41877 2.21575 4.04098 2.35424ZM2.66982 5.17009C6.54133 5.79327 9.84825 8.20521 11.6457 11.6904C12.1412 12.6598 12.6367 13.9523 12.6367 14.287C12.6367 14.3793 12.7058 14.4601 12.7864 14.4601C12.8671 14.4601 13.0515 14.0793 13.2012 13.6177C14.7913 8.71299 19.2044 5.29704 24.3434 5.03161C29.9778 4.7431 34.9785 8.20521 36.7645 13.6177C36.9373 14.1485 37.1216 14.5755 37.1562 14.5755C37.2023 14.5755 37.329 14.2524 37.4443 13.8485C38.3891 10.6172 40.7512 7.82438 43.8046 6.31259C48.7016 3.90065 54.4282 4.88158 58.1499 8.77069C59.5787 10.2479 60.489 11.7481 61.0536 13.5253C61.2034 13.9754 61.3762 14.3447 61.4338 14.3447C61.5029 14.3447 61.6758 13.9639 61.8256 13.5022C62.9202 10.1555 65.5012 7.3743 68.739 6.02408C69.776 5.58555 71.4122 5.17009 72.4722 5.05469L73.2442 4.9739V7.18966H72.7372C71.4583 7.18966 69.1999 8.02057 67.7135 9.03612C66.9876 9.53236 65.6164 10.9287 65.0979 11.6904C64.2222 12.9829 63.5309 14.864 63.3811 16.3643L63.3004 17.1144H59.8092L59.6594 16.0988C59.3367 13.7677 58.4265 11.9674 56.7096 10.2479C54.5665 8.10135 52.3542 7.16658 49.393 7.16658C45.314 7.15504 41.7191 9.48619 40.0022 13.2368C39.5413 14.2293 39.1381 15.7988 39.1381 16.5604V17.1144H35.4855L35.3357 16.0988C34.967 13.6407 33.9184 11.6212 32.1094 9.92473C30.093 8.04365 27.8346 7.15504 25.0232 7.16658C21.9006 7.17812 19.1583 8.48218 17.0958 10.9403C15.9897 12.2674 14.8259 14.9563 14.8259 16.2373C14.8259 17.149 14.8835 17.1144 12.9247 17.1144H11.1618L11.0927 16.5027C10.5626 12.1405 7.77422 8.78223 3.71835 7.59357C3.15376 7.43201 2.33567 7.27044 1.90935 7.23582L1.1143 7.15504V6.08178C1.1143 4.82388 0.987558 4.89312 2.66982 5.17009ZM73.2442 13.0753V17.1144H65.2707L65.3514 16.4566C65.3975 16.0873 65.5358 15.4526 65.6625 15.0371C66.6073 11.9905 69.0962 9.79778 72.2879 9.22077C72.7833 9.12844 73.1981 9.04766 73.2212 9.04766C73.2327 9.03612 73.2442 10.848 73.2442 13.0753ZM3.28051 9.52081C6.17262 10.3979 8.55774 13.0637 9.00711 15.9026C9.04168 16.1565 9.09929 16.5374 9.13386 16.7336L9.19147 17.1144H1.1143V9.1169L1.81717 9.19768C2.1974 9.24385 2.8657 9.38233 3.28051 9.52081ZM24.6199 17.1144H16.7156L16.7847 16.445C17.188 13.1099 19.6653 10.2709 22.9492 9.38233C23.3985 9.26693 23.9516 9.16306 24.1936 9.16306L24.6199 9.15152V17.1144ZM27.2009 9.38233C30.0815 10.1209 32.4897 12.5213 33.1925 15.3602C33.2847 15.718 33.3884 16.2604 33.423 16.5604L33.4921 17.1144H25.5417V9.15152H25.9219C26.1408 9.15152 26.7054 9.25539 27.2009 9.38233ZM48.9321 17.1144H41.0623L41.1314 16.3873C41.3158 14.4486 42.5141 12.2905 44.1388 10.9864C45.4293 9.93627 47.1691 9.22077 48.5633 9.16306L48.9321 9.15152V17.1144ZM51.5131 9.38233C53.011 9.76316 54.1402 10.4325 55.327 11.6212C56.7673 13.0637 57.4701 14.4947 57.7467 16.5027L57.8273 17.1144H49.8538V9.15152H50.2341C50.453 9.15152 51.0176 9.25539 51.5131 9.38233ZM9.17995 18.1761C9.29517 18.3261 9.43344 18.6493 9.46801 18.9031C9.5141 19.157 9.6178 19.4802 9.70998 19.6186C9.83672 19.8264 9.87129 20.5765 9.87129 23.4616V27.0391H1.1143V17.9222H8.97255L9.17995 18.1761ZM15.5403 18.4646C15.4481 18.7762 15.3444 19.0878 15.3329 19.157C15.2983 19.2724 14.7222 19.3071 12.8901 19.3071H10.4935L10.3668 18.8108C10.2861 18.5454 10.1939 18.2338 10.1593 18.1184C10.0787 17.9338 10.263 17.9222 12.9017 17.9222H15.7246L15.5403 18.4646ZM24.6199 46.8886H16.439L16.151 46.3116L15.8629 45.7461V32.8324C15.8629 23.7501 15.8975 19.8956 15.9897 19.8033C16.0588 19.7341 16.1625 19.4571 16.2201 19.1801C16.2892 18.9031 16.439 18.5108 16.5658 18.303L16.8077 17.9222H24.6199V46.8886ZM33.4806 18.303C33.6073 18.5108 33.7571 18.9031 33.8263 19.1801C33.8839 19.4571 33.9876 19.7341 34.0567 19.8033C34.1374 19.8841 34.1834 21.0958 34.1834 23.4847V27.0391H25.5417V17.9222H33.2386L33.4806 18.303ZM39.8985 18.1069C39.8524 18.2107 39.7718 18.5223 39.7027 18.7993L39.5759 19.3071H37.1562C35.3357 19.3071 34.748 19.2724 34.7135 19.157C34.702 19.0878 34.5983 18.7762 34.5061 18.4646L34.3217 17.9222H37.1447C39.7027 17.9222 39.9677 17.9453 39.8985 18.1069ZM48.9321 46.8886H40.6821L40.4286 46.3693L40.1751 45.8384V32.8324C40.1866 21.5805 40.2096 19.7918 40.3479 19.6071C40.4401 19.4802 40.5207 19.2494 40.5207 19.0993C40.5207 18.9493 40.636 18.6146 40.7742 18.3723L41.0277 17.9222H48.9321V46.8886ZM57.8388 18.2107C57.9541 18.3607 58.0808 18.73 58.1384 19.0301C58.196 19.3186 58.2997 19.6186 58.3689 19.6879C58.461 19.7802 58.4956 20.9343 58.4956 23.427V27.0391H49.8538V17.9222H53.7484L57.6314 17.9338L57.8388 18.2107ZM64.1761 18.4646C64.0839 18.7762 63.9802 19.0878 63.9572 19.157C63.9342 19.2724 63.335 19.3071 61.5145 19.3071H59.1063L58.9911 18.8108C58.9219 18.5454 58.8298 18.2338 58.7837 18.1184C58.703 17.9338 58.8758 17.9222 61.526 17.9222H64.3374L64.1761 18.4646ZM73.2442 27.0391H64.4872V23.5193C64.4872 20.6919 64.5218 19.9418 64.6485 19.7341C64.7407 19.5956 64.8444 19.2955 64.8905 19.0763C64.9366 18.857 65.0749 18.4992 65.2016 18.2915L65.4321 17.9222H73.2442V27.0391ZM14.4802 33.0747C14.4802 44.2804 14.5033 46.023 14.6531 46.3923C14.7452 46.6116 14.8259 46.8193 14.8259 46.8424C14.8259 46.8655 13.9387 46.8886 12.8671 46.8886H10.9083L11.0811 46.4731C11.2309 46.1038 11.254 44.4074 11.254 33.1094V20.1726H14.4802V33.0747ZM38.7924 33.1555C38.7924 44.2574 38.8154 46.1384 38.9537 46.4847L39.1265 46.8886H37.1677C35.0822 46.8886 35.0707 46.8886 35.3933 46.3116C35.5316 46.0692 35.5546 44.0843 35.5661 33.0978V20.1726L38.7924 20.2418V33.1555ZM63.1045 33.0747C63.1045 45.7922 63.1045 45.9769 63.335 46.427L63.5654 46.8886H59.5441L59.7631 46.3577C59.982 45.8499 59.9935 45.4922 59.9935 33.0055V20.1726H63.1045V33.0747ZM9.87129 36.9061H1.1143V27.8469H9.87129V36.9061ZM34.1834 36.9061H25.5417V27.8469H34.1834V36.9061ZM58.4956 36.9061H49.8538V27.8469H58.4956V36.9061ZM73.2442 36.9061H64.4872V27.8469H73.2442V36.9061ZM9.87129 41.8108C9.87129 45.7345 9.85977 45.8615 9.6178 46.3693L9.36431 46.8886H1.1143V37.7717H9.87129V41.8108ZM34.1834 45.7461L33.8954 46.3116L33.6073 46.8886H25.5417V37.7717H34.1834V45.7461ZM58.4956 41.8108C58.4956 45.7345 58.4841 45.8615 58.2421 46.3693L57.9886 46.8886H49.8538V37.7717H58.4956V41.8108ZM73.2442 46.8886H65.0633L64.7753 46.3116L64.4872 45.7461V37.7717H73.2442V46.8886ZM15.6325 51.0431H10.217V47.8118H15.6325V51.0431ZM39.8294 51.0431H34.4715V47.8118H39.8294V51.0431ZM64.2568 51.0431H58.8413V47.8118H64.2568V51.0431ZM9.29517 51.9663H16.439V48.8504H33.6073V51.9663H40.7512V48.8504H57.9195V51.9663H65.0633V48.8504H73.2442V58.0827H1.1143V48.8504H9.29517V51.9663Z" fill="#393D40"/>
<path d="M29.6897 64.1645C26.9474 65.1224 26.3367 68.2152 28.526 69.9578L29.0906 70.3963L28.3647 70.8695C27.1318 71.6542 26.6133 72.6236 26.7285 73.9046C26.9244 76.1088 28.8947 77.4129 31.5448 77.1013C34.2526 76.7782 35.8772 74.3547 34.8863 72.1043C34.6559 71.585 33.8839 70.8349 33.2386 70.4886C32.9966 70.3617 32.8008 70.2348 32.8008 70.1886C32.8008 70.154 32.939 70.0501 33.1003 69.9578C33.6649 69.6577 34.4024 68.7114 34.5983 68.0421C34.9439 66.865 34.4945 65.434 33.5612 64.7185C32.6049 63.9914 30.8765 63.7491 29.6897 64.1645ZM31.7983 64.9377C32.2823 65.1339 32.7547 65.6994 32.916 66.2533C33.204 67.3035 32.939 68.7461 32.3284 69.45L31.9712 69.8424L31.0724 69.3923C29.4939 68.596 28.9984 67.9959 28.9984 66.8765C28.9984 65.3647 30.4387 64.3607 31.7983 64.9377ZM31.0494 71.3426C32.8123 72.2428 33.3769 72.8775 33.3769 73.9738C33.3654 75.0471 32.7086 75.9473 31.7292 76.2127C31.0955 76.3858 30.1276 76.2704 29.6436 75.9819C28.5721 75.3125 28.1457 73.5584 28.7219 72.162C28.9408 71.6542 29.6667 70.8926 29.9432 70.8926C30.0584 70.8926 30.5539 71.1003 31.0494 71.3426Z" fill="#393D40"/>
<path d="M49.1971 64.2107C48.8629 64.3376 48.3329 64.6838 47.9987 64.9839C46.351 66.4726 46.4893 68.6422 48.3329 70.0386L48.8053 70.4079L48.2062 70.7541C47.3996 71.2042 46.6737 72.012 46.5124 72.6467C46.328 73.293 46.4202 74.6547 46.6737 75.151C46.9733 75.7164 47.7568 76.455 48.3905 76.7551C50.0843 77.5514 52.6307 77.1359 53.8175 75.8549C54.5434 75.0817 54.7278 74.6663 54.7854 73.6623C54.8315 72.9352 54.7969 72.6813 54.578 72.1851C54.29 71.5157 53.6101 70.8464 52.8612 70.4886C52.6077 70.3617 52.3888 70.2348 52.3888 70.2001C52.3888 70.1655 52.5731 70.0386 52.8036 69.9116C54.048 69.2423 54.6587 67.6497 54.2439 66.1725C54.048 65.4686 52.9994 64.43 52.2274 64.1645C51.4209 63.8876 49.9691 63.9106 49.1971 64.2107ZM51.5822 65.0301C52.3657 65.434 52.6768 66.0687 52.6653 67.2573C52.6538 68.7345 52.0661 69.8539 51.3863 69.6808C50.8909 69.5539 49.6925 68.8499 49.2432 68.4114C48.3444 67.5343 48.4251 65.9417 49.416 65.2032C50.0728 64.7069 50.8332 64.6492 51.5822 65.0301ZM51.5476 71.7927C52.9649 72.5313 53.4027 73.8238 52.7229 75.1856C52.2735 76.0627 51.0176 76.5127 49.8769 76.2127C48.0333 75.7049 47.5033 72.7852 48.9897 71.2849L49.4967 70.7772L50.2802 71.158C50.7065 71.3657 51.2826 71.6542 51.5476 71.7927Z" fill="#393D40"/>
<path d="M22.4652 67.1881C22.2348 67.5574 21.1171 68.0305 20.299 68.0998L19.5501 68.1575V69.0461H21.5089V75.6241L21.2438 75.7972C21.0941 75.8895 20.6562 76.005 20.2644 76.0396L19.5501 76.1204V76.8936H25.196V76.5012C25.196 76.1204 25.196 76.1088 24.5508 76.028C24.0899 75.9703 23.8133 75.8665 23.629 75.6818L23.3524 75.4049V66.9688H22.9722C22.7302 66.9688 22.5574 67.0496 22.4652 67.1881Z" fill="#393D40"/>
<path d="M39.7142 67.1189C38.1471 67.4882 37.0295 68.6191 37.0295 69.8308C37.0295 70.8926 37.9743 71.3888 38.6772 70.6733C39.0459 70.304 39.0804 70.0617 38.9076 69.1615C38.7924 68.5614 38.8615 68.4345 39.5298 68.0998C40.1866 67.7651 41.0969 67.8459 41.5578 68.296C42.0417 68.7576 42.1684 69.2538 42.1108 70.4194C42.0302 72.0466 41.4771 72.6236 40.0022 72.6236H39.3685V73.7546L40.3825 73.8007C41.6038 73.8584 42.0302 74.0662 42.3874 74.8163C42.7791 75.601 42.733 76.9974 42.3067 77.8745C41.8458 78.8323 41.3158 79.1439 40.1866 79.1439C39.1726 79.1439 38.3661 78.8208 38.4122 78.44C38.608 76.9282 38.608 76.9282 38.2969 76.6166C37.9282 76.2473 37.2023 76.2011 36.9027 76.5358C36.6608 76.8012 36.5455 77.436 36.6492 77.9668C36.7645 78.5669 37.5134 79.3401 38.3315 79.7094C38.9883 80.0095 39.1265 80.021 40.3249 79.9864C41.4541 79.9518 41.7075 79.9056 42.3182 79.6286C45.4293 78.1861 45.3947 73.9623 42.2721 73.166L41.6615 73.016L42.1108 72.8775C42.7676 72.6813 43.6894 71.8158 43.9429 71.1464C44.519 69.6231 43.8277 67.9728 42.3067 67.3035C41.673 67.0265 40.4977 66.9458 39.7142 67.1189Z" fill="#393D40"/>
</g>
</svg>
