<svg width="1100" height="500" viewBox="0 0 1100 500" fill="none" xmlns="http://www.w3.org/2000/svg">
<g clip-path="url(#clip0_52_64)">
<path d="M13.0225 134.823C14.2989 134.823 15.5442 134.306 16.4443 133.404C17.3479 132.502 17.863 131.257 17.863 129.982C17.863 128.707 17.3479 127.462 16.4443 126.56C15.5442 125.659 14.2989 125.143 13.0225 125.143C11.7477 125.143 10.5025 125.659 9.60066 126.56C8.70054 127.462 8.18372 128.707 8.18372 129.982C8.18372 131.257 8.70054 132.502 9.60066 133.404C10.5025 134.306 11.7477 134.823 13.0225 134.823ZM87.8862 194.459C89.161 194.459 90.4062 193.944 91.3081 193.044C92.2099 192.142 92.7267 190.895 92.7267 189.62C92.7267 188.347 92.2099 187.1 91.3081 186.199C90.4062 185.298 89.161 184.782 87.8862 184.782C86.6115 184.782 85.3645 185.298 84.4644 186.199C83.5626 187.1 83.0458 188.347 83.0458 189.62C83.0458 190.895 83.5626 192.142 84.4644 193.044C85.3645 193.944 86.6115 194.459 87.8862 194.459ZM37.9655 194.459H37.9915C40.6641 194.459 42.8303 192.295 42.8303 189.62C42.8303 186.948 40.6641 184.782 37.9915 184.782H37.9655C35.2929 184.782 33.125 186.948 33.125 189.62C33.125 192.295 35.2929 194.459 37.9655 194.459ZM62.9207 194.459H62.945C65.6175 194.459 67.7837 192.295 67.7837 189.62C67.7837 186.948 65.6175 184.782 62.945 184.782H62.9207C60.2481 184.782 58.0802 186.948 58.0802 189.62C58.0802 192.295 60.2481 194.459 62.9207 194.459ZM13.0225 194.459C14.2989 194.459 15.5442 193.944 16.4443 193.044C17.3479 192.142 17.863 190.895 17.863 189.62C17.863 188.347 17.3479 187.1 16.4443 186.199C15.5442 185.298 14.2989 184.782 13.0225 184.782C11.7477 184.782 10.5025 185.298 9.60066 186.199C8.70054 187.1 8.18372 188.347 8.18372 189.62C8.18372 190.895 8.70054 192.142 9.60066 193.044C10.5025 193.944 11.7477 194.459 13.0225 194.459ZM87.8862 174.582C89.161 174.582 90.4062 174.063 91.3081 173.163C92.2099 172.262 92.7267 171.016 92.7267 169.742C92.7267 168.467 92.2099 167.222 91.3081 166.32C90.4062 165.418 89.161 164.903 87.8862 164.903C86.6115 164.903 85.3645 165.418 84.4644 166.32C83.5626 167.222 83.0458 168.467 83.0458 169.742C83.0458 171.016 83.5626 172.262 84.4644 173.163C85.3645 174.063 86.6115 174.582 87.8862 174.582ZM37.9655 174.582H37.9915C40.6641 174.582 42.8303 172.414 42.8303 169.742C42.8303 167.069 40.6641 164.903 37.9915 164.903H37.9655C35.2929 164.903 33.125 167.069 33.125 169.742C33.125 172.414 35.2929 174.582 37.9655 174.582ZM62.9207 174.582H62.945C65.6175 174.582 67.7837 172.414 67.7837 169.742C67.7837 167.069 65.6175 164.903 62.945 164.903H62.9207C60.2481 164.903 58.0802 167.069 58.0802 169.742C58.0802 172.414 60.2481 174.582 62.9207 174.582ZM13.0225 174.582C14.2989 174.582 15.5442 174.063 16.4443 173.163C17.3479 172.262 17.863 171.016 17.863 169.742C17.863 168.467 17.3479 167.222 16.4443 166.32C15.5442 165.418 14.2989 164.903 13.0225 164.903C11.7477 164.903 10.5025 165.418 9.60066 166.32C8.70054 167.222 8.18372 168.467 8.18372 169.742C8.18372 171.016 8.70054 172.262 9.60066 173.163C10.5025 174.063 11.7477 174.582 13.0225 174.582ZM87.8862 154.702C89.161 154.702 90.4062 154.185 91.3081 153.283C92.2099 152.384 92.7267 151.136 92.7267 149.863C92.7267 148.588 92.2099 147.341 91.3081 146.439C90.4062 145.539 89.161 145.022 87.8862 145.022C86.6115 145.022 85.3645 145.539 84.4644 146.439C83.5626 147.341 83.0458 148.588 83.0458 149.863C83.0458 151.136 83.5626 152.384 84.4644 153.283C85.3645 154.185 86.6115 154.702 87.8862 154.702ZM37.9655 154.702H37.9915C40.6641 154.702 42.8303 152.534 42.8303 149.863C42.8303 147.188 40.6641 145.022 37.9915 145.022H37.9655C35.2929 145.022 33.125 147.188 33.125 149.863C33.125 152.534 35.2929 154.702 37.9655 154.702ZM62.9207 154.702H62.945C65.6175 154.702 67.7837 152.534 67.7837 149.863C67.7837 147.188 65.6175 145.022 62.945 145.022H62.9207C60.2481 145.022 58.0802 147.188 58.0802 149.863C58.0802 152.534 60.2481 154.702 62.9207 154.702ZM13.0225 154.702C14.2989 154.702 15.5442 154.185 16.4443 153.283C17.3479 152.384 17.863 151.136 17.863 149.863C17.863 148.588 17.3479 147.341 16.4443 146.439C15.5442 145.539 14.2989 145.022 13.0225 145.022C11.7477 145.022 10.5025 145.539 9.60066 146.439C8.70054 147.341 8.18372 148.588 8.18372 149.863C8.18372 151.136 8.70054 152.384 9.60066 153.283C10.5025 154.185 11.7477 154.702 13.0225 154.702ZM87.8862 114.944C89.161 114.944 90.4062 114.425 91.3081 113.525C92.2099 112.623 92.7267 111.378 92.7267 110.105C92.7267 108.829 92.2099 107.583 91.3081 106.682C90.4062 105.78 89.161 105.265 87.8862 105.265C86.6115 105.265 85.3645 105.78 84.4644 106.682C83.5626 107.583 83.0458 108.829 83.0458 110.105C83.0458 111.378 83.5626 112.623 84.4644 113.525C85.3645 114.425 86.6115 114.944 87.8862 114.944ZM37.9655 114.944H37.9915C40.6641 114.944 42.8303 112.776 42.8303 110.105C42.8303 107.431 40.6641 105.265 37.9915 105.265H37.9655C35.2929 105.265 33.125 107.431 33.125 110.105C33.125 112.776 35.2929 114.944 37.9655 114.944ZM62.9207 114.944H62.945C65.6175 114.944 67.7837 112.776 67.7837 110.105C67.7837 107.431 65.6175 105.265 62.945 105.265H62.9207C60.2481 105.265 58.0802 107.431 58.0802 110.105C58.0802 112.776 60.2481 114.944 62.9207 114.944ZM13.0225 114.944C14.2989 114.944 15.5442 114.425 16.4443 113.525C17.3479 112.623 17.863 111.378 17.863 110.105C17.863 108.829 17.3479 107.583 16.4443 106.682C15.5442 105.78 14.2989 105.265 13.0225 105.265C11.7477 105.265 10.5025 105.78 9.60066 106.682C8.70054 107.583 8.18372 108.829 8.18372 110.105C8.18372 111.378 8.70054 112.623 9.60066 113.525C10.5025 114.425 11.7477 114.944 13.0225 114.944ZM87.8862 134.823C89.161 134.823 90.4062 134.306 91.3081 133.404C92.2099 132.502 92.7267 131.257 92.7267 129.982C92.7267 128.707 92.2099 127.462 91.3081 126.56C90.4062 125.659 89.161 125.143 87.8862 125.143C86.6115 125.143 85.3645 125.659 84.4644 126.56C83.5626 127.462 83.0458 128.707 83.0458 129.982C83.0458 131.257 83.5626 132.502 84.4644 133.404C85.3645 134.306 86.6115 134.823 87.8862 134.823ZM37.9655 134.823H37.9915C40.6641 134.823 42.8303 132.655 42.8303 129.982C42.8303 127.308 40.6641 125.143 37.9915 125.143H37.9655C35.2929 125.143 33.125 127.308 33.125 129.982C33.125 132.655 35.2929 134.823 37.9655 134.823ZM62.9207 134.823H62.945C65.6175 134.823 67.7837 132.655 67.7837 129.982C67.7837 127.308 65.6175 125.143 62.945 125.143H62.9207C60.2481 125.143 58.0802 127.308 58.0802 129.982C58.0802 132.655 60.2481 134.823 62.9207 134.823Z" fill="#F0F0F0"/>
<path d="M200.317 99.9092V137.067C165.662 137.067 137.566 165.161 137.566 199.818H100.408C100.408 144.639 145.14 99.9092 200.317 99.9092Z" fill="#F6F6F6"/>
<path d="M400.134 199.82H500.045V99.9092H400.134V199.82Z" fill="#F0F0F0"/>
<path d="M412.657 434.555C413.932 434.555 415.177 434.038 416.079 433.137C416.981 432.235 417.498 430.989 417.498 429.715C417.498 428.44 416.981 427.193 416.079 426.293C415.177 425.391 413.932 424.876 412.657 424.876C411.383 424.876 410.136 425.391 409.234 426.293C408.334 427.193 407.817 428.44 407.817 429.715C407.817 430.989 408.334 432.235 409.234 433.137C410.136 434.038 411.383 434.555 412.657 434.555ZM487.519 494.192C488.794 494.192 490.039 493.677 490.943 492.776C491.843 491.875 492.36 490.628 492.36 489.353C492.36 488.08 491.843 486.831 490.943 485.931C490.039 485.029 488.794 484.512 487.519 484.512C486.245 484.512 484.999 485.029 484.097 485.931C483.196 486.831 482.681 488.08 482.681 489.353C482.681 490.628 483.196 491.875 484.097 492.776C484.999 493.677 486.245 494.192 487.519 494.192ZM437.6 494.192H437.625C440.297 494.192 442.463 492.026 442.463 489.353C442.463 486.68 440.297 484.512 437.625 484.512H437.6C434.928 484.512 432.76 486.68 432.76 489.353C432.76 492.026 434.928 494.192 437.6 494.192ZM462.554 494.192H462.578C465.251 494.192 467.417 492.026 467.417 489.353C467.417 486.68 465.251 484.512 462.578 484.512H462.554C459.881 484.512 457.715 486.68 457.715 489.353C457.715 492.026 459.881 494.192 462.554 494.192ZM412.657 494.192C413.932 494.192 415.177 493.677 416.079 492.776C416.981 491.875 417.498 490.628 417.498 489.353C417.498 488.08 416.981 486.831 416.079 485.931C415.177 485.029 413.932 484.512 412.657 484.512C411.383 484.512 410.136 485.029 409.234 485.931C408.334 486.831 407.817 488.08 407.817 489.353C407.817 490.628 408.334 491.875 409.234 492.776C410.136 493.677 411.383 494.192 412.657 494.192ZM487.519 474.313C488.794 474.313 490.039 473.796 490.943 472.896C491.843 471.994 492.36 470.749 492.36 469.474C492.36 468.199 491.843 466.954 490.943 466.052C490.039 465.15 488.794 464.635 487.519 464.635C486.245 464.635 484.999 465.15 484.097 466.052C483.196 466.954 482.681 468.199 482.681 469.474C482.681 470.749 483.196 471.994 484.097 472.896C484.999 473.796 486.245 474.313 487.519 474.313ZM437.6 474.313H437.625C440.297 474.313 442.463 472.147 442.463 469.474C442.463 466.801 440.297 464.635 437.625 464.635H437.6C434.928 464.635 432.76 466.801 432.76 469.474C432.76 472.147 434.928 474.313 437.6 474.313ZM462.554 474.313H462.578C465.251 474.313 467.417 472.147 467.417 469.474C467.417 466.801 465.251 464.635 462.578 464.635H462.554C459.881 464.635 457.715 466.801 457.715 469.474C457.715 472.147 459.881 474.313 462.554 474.313ZM412.657 474.313C413.932 474.313 415.177 473.796 416.079 472.896C416.981 471.994 417.498 470.749 417.498 469.474C417.498 468.199 416.981 466.954 416.079 466.052C415.177 465.15 413.932 464.635 412.657 464.635C411.383 464.635 410.136 465.15 409.234 466.052C408.334 466.954 407.817 468.199 407.817 469.474C407.817 470.749 408.334 471.994 409.234 472.896C410.136 473.796 411.383 474.313 412.657 474.313ZM487.519 454.434C488.794 454.434 490.039 453.917 490.943 453.015C491.843 452.115 492.36 450.867 492.36 449.594C492.36 448.321 491.843 447.072 490.943 446.172C490.039 445.27 488.794 444.755 487.519 444.755C486.245 444.755 484.999 445.27 484.097 446.172C483.196 447.072 482.681 448.321 482.681 449.594C482.681 450.867 483.196 452.115 484.097 453.015C484.999 453.917 486.245 454.434 487.519 454.434ZM437.6 454.434H437.625C440.297 454.434 442.463 452.266 442.463 449.594C442.463 446.921 440.297 444.755 437.625 444.755H437.6C434.928 444.755 432.76 446.921 432.76 449.594C432.76 452.266 434.928 454.434 437.6 454.434ZM462.554 454.434H462.578C465.251 454.434 467.417 452.266 467.417 449.594C467.417 446.921 465.251 444.755 462.578 444.755H462.554C459.881 444.755 457.715 446.921 457.715 449.594C457.715 452.266 459.881 454.434 462.554 454.434ZM412.657 454.434C413.932 454.434 415.177 453.917 416.079 453.015C416.981 452.115 417.498 450.867 417.498 449.594C417.498 448.321 416.981 447.072 416.079 446.172C415.177 445.27 413.932 444.755 412.657 444.755C411.383 444.755 410.136 445.27 409.234 446.172C408.334 447.072 407.817 448.321 407.817 449.594C407.817 450.867 408.334 452.115 409.234 453.015C410.136 453.917 411.383 454.434 412.657 454.434ZM487.519 414.676C488.794 414.676 490.039 414.158 490.943 413.258C491.843 412.356 492.36 411.111 492.36 409.838C492.36 408.561 491.843 407.316 490.943 406.414C490.039 405.512 488.794 404.997 487.519 404.997C486.245 404.997 484.999 405.512 484.097 406.414C483.196 407.316 482.681 408.561 482.681 409.838C482.681 411.111 483.196 412.356 484.097 413.258C484.999 414.158 486.245 414.676 487.519 414.676ZM437.6 414.676H437.625C440.297 414.676 442.463 412.507 442.463 409.838C442.463 407.163 440.297 404.997 437.625 404.997H437.6C434.928 404.997 432.76 407.163 432.76 409.838C432.76 412.507 434.928 414.676 437.6 414.676ZM462.554 414.676H462.578C465.251 414.676 467.417 412.507 467.417 409.838C467.417 407.163 465.251 404.997 462.578 404.997H462.554C459.881 404.997 457.715 407.163 457.715 409.838C457.715 412.507 459.881 414.676 462.554 414.676ZM412.657 414.676C413.932 414.676 415.177 414.158 416.079 413.258C416.981 412.356 417.498 411.111 417.498 409.838C417.498 408.561 416.981 407.316 416.079 406.414C415.177 405.512 413.932 404.997 412.657 404.997C411.383 404.997 410.136 405.512 409.234 406.414C408.334 407.316 407.817 408.561 407.817 409.838C407.817 411.111 408.334 412.356 409.234 413.258C410.136 414.158 411.383 414.676 412.657 414.676ZM487.519 434.555C488.794 434.555 490.039 434.038 490.943 433.137C491.843 432.235 492.36 430.989 492.36 429.715C492.36 428.44 491.843 427.193 490.943 426.293C490.039 425.391 488.794 424.876 487.519 424.876C486.245 424.876 484.999 425.391 484.097 426.293C483.196 427.193 482.681 428.44 482.681 429.715C482.681 430.989 483.196 432.235 484.097 433.137C484.999 434.038 486.245 434.555 487.519 434.555ZM437.6 434.555H437.625C440.297 434.555 442.463 432.387 442.463 429.715C442.463 427.04 440.297 424.876 437.625 424.876H437.6C434.928 424.876 432.76 427.04 432.76 429.715C432.76 432.387 434.928 434.555 437.6 434.555ZM462.554 434.555H462.578C465.251 434.555 467.417 432.387 467.417 429.715C467.417 427.04 465.251 424.876 462.578 424.876H462.554C459.881 424.876 457.715 427.04 457.715 429.715C457.715 432.387 459.881 434.555 462.554 434.555Z" fill="#E8E8E8"/>
<path d="M400.134 399.638V362.48C434.791 362.48 462.885 334.386 462.885 299.729H500.043C500.043 354.908 455.311 399.638 400.134 399.638Z" fill="#F0F0F0"/>
<path d="M500.045 299.729H400.134V199.822C455.313 199.822 500.045 244.552 500.045 299.729Z" fill="#F6F6F6"/>
<path d="M599.952 299.729V262.573C634.607 262.573 662.703 234.479 662.703 199.822H699.861C699.861 255.001 655.129 299.729 599.952 299.729Z" fill="#F6F6F6"/>
<path d="M500.045 99.9091H462.887C462.887 65.2539 434.792 37.1578 400.135 37.1578V0.00170898C455.315 0.00170898 500.045 44.7316 500.045 99.9091Z" fill="#E8E8E8"/>
<path d="M512.566 134.825C513.841 134.825 515.086 134.308 515.988 133.406C516.89 132.504 517.407 131.259 517.407 129.984C517.407 128.709 516.89 127.462 515.988 126.562C515.086 125.66 513.841 125.144 512.566 125.144C511.292 125.144 510.046 125.66 509.145 126.562C508.244 127.462 507.728 128.709 507.728 129.984C507.728 131.259 508.244 132.504 509.145 133.406C510.046 134.308 511.292 134.825 512.566 134.825ZM587.428 194.461C588.705 194.461 589.948 193.946 590.852 193.044C591.752 192.144 592.269 190.897 592.269 189.622C592.269 188.347 591.752 187.1 590.852 186.2C589.948 185.299 588.705 184.782 587.428 184.782C586.154 184.782 584.908 185.299 584.008 186.2C583.105 187.1 582.59 188.347 582.59 189.622C582.59 190.897 583.105 192.144 584.008 193.044C584.908 193.946 586.154 194.461 587.428 194.461ZM537.509 194.461H537.534C540.206 194.461 542.372 192.295 542.372 189.622C542.372 186.95 540.206 184.782 537.534 184.782H537.509C534.837 184.782 532.669 186.95 532.669 189.622C532.669 192.295 534.837 194.461 537.509 194.461ZM562.463 194.461H562.487C565.161 194.461 567.328 192.295 567.328 189.622C567.328 186.95 565.161 184.782 562.487 184.782H562.463C559.792 184.782 557.624 186.95 557.624 189.622C557.624 192.295 559.792 194.461 562.463 194.461ZM512.566 194.461C513.841 194.461 515.086 193.946 515.988 193.044C516.89 192.144 517.407 190.897 517.407 189.622C517.407 188.347 516.89 187.1 515.988 186.2C515.086 185.299 513.841 184.782 512.566 184.782C511.292 184.782 510.046 185.299 509.145 186.2C508.244 187.1 507.728 188.347 507.728 189.622C507.728 190.897 508.244 192.144 509.145 193.044C510.046 193.946 511.292 194.461 512.566 194.461ZM587.428 174.584C588.705 174.584 589.948 174.065 590.852 173.165C591.752 172.263 592.269 171.018 592.269 169.743C592.269 168.469 591.752 167.222 590.852 166.322C589.948 165.42 588.705 164.903 587.428 164.903C586.154 164.903 584.908 165.42 584.008 166.322C583.105 167.222 582.59 168.469 582.59 169.743C582.59 171.018 583.105 172.263 584.008 173.165C584.908 174.065 586.154 174.584 587.428 174.584ZM537.509 174.584H537.534C540.206 174.584 542.372 172.416 542.372 169.743C542.372 167.071 540.206 164.903 537.534 164.903H537.509C534.837 164.903 532.669 167.071 532.669 169.743C532.669 172.416 534.837 174.584 537.509 174.584ZM562.463 174.584H562.487C565.161 174.584 567.328 172.416 567.328 169.743C567.328 167.071 565.161 164.903 562.487 164.903H562.463C559.792 164.903 557.624 167.071 557.624 169.743C557.624 172.416 559.792 174.584 562.463 174.584ZM512.566 174.584C513.841 174.584 515.086 174.065 515.988 173.165C516.89 172.263 517.407 171.018 517.407 169.743C517.407 168.469 516.89 167.222 515.988 166.322C515.086 165.42 513.841 164.903 512.566 164.903C511.292 164.903 510.046 165.42 509.145 166.322C508.244 167.222 507.728 168.469 507.728 169.743C507.728 171.018 508.244 172.263 509.145 173.165C510.046 174.065 511.292 174.584 512.566 174.584ZM587.428 154.703C588.705 154.703 589.948 154.185 590.852 153.285C591.752 152.385 592.269 151.138 592.269 149.865C592.269 148.588 591.752 147.343 590.852 146.441C589.948 145.539 588.705 145.024 587.428 145.024C586.154 145.024 584.908 145.539 584.008 146.441C583.105 147.343 582.59 148.588 582.59 149.865C582.59 151.138 583.105 152.385 584.008 153.285C584.908 154.185 586.154 154.703 587.428 154.703ZM537.509 154.703H537.534C540.206 154.703 542.372 152.535 542.372 149.865C542.372 147.19 540.206 145.024 537.534 145.024H537.509C534.837 145.024 532.669 147.19 532.669 149.865C532.669 152.535 534.837 154.703 537.509 154.703ZM562.463 154.703H562.487C565.161 154.703 567.328 152.535 567.328 149.865C567.328 147.19 565.161 145.024 562.487 145.024H562.463C559.792 145.024 557.624 147.19 557.624 149.865C557.624 152.535 559.792 154.703 562.463 154.703ZM512.566 154.703C513.841 154.703 515.086 154.185 515.988 153.285C516.89 152.385 517.407 151.138 517.407 149.865C517.407 148.588 516.89 147.343 515.988 146.441C515.086 145.539 513.841 145.024 512.566 145.024C511.292 145.024 510.046 145.539 509.145 146.441C508.244 147.343 507.728 148.588 507.728 149.865C507.728 151.138 508.244 152.385 509.145 153.285C510.046 154.185 511.292 154.703 512.566 154.703ZM587.428 114.946C588.705 114.946 589.948 114.427 590.852 113.527C591.752 112.625 592.269 111.38 592.269 110.107C592.269 108.831 591.752 107.585 590.852 106.683C589.948 105.782 588.705 105.266 587.428 105.266C586.154 105.266 584.908 105.782 584.008 106.683C583.105 107.585 582.59 108.831 582.59 110.107C582.59 111.38 583.105 112.625 584.008 113.527C584.908 114.427 586.154 114.946 587.428 114.946ZM537.509 114.946H537.534C540.206 114.946 542.372 112.778 542.372 110.107C542.372 107.433 540.206 105.266 537.534 105.266H537.509C534.837 105.266 532.669 107.433 532.669 110.107C532.669 112.778 534.837 114.946 537.509 114.946ZM562.463 114.946H562.487C565.161 114.946 567.328 112.778 567.328 110.107C567.328 107.433 565.161 105.266 562.487 105.266H562.463C559.792 105.266 557.624 107.433 557.624 110.107C557.624 112.778 559.792 114.946 562.463 114.946ZM512.566 114.946C513.841 114.946 515.086 114.427 515.988 113.527C516.89 112.625 517.407 111.38 517.407 110.107C517.407 108.831 516.89 107.585 515.988 106.683C515.086 105.782 513.841 105.266 512.566 105.266C511.292 105.266 510.046 105.782 509.145 106.683C508.244 107.585 507.728 108.831 507.728 110.107C507.728 111.38 508.244 112.625 509.145 113.527C510.046 114.427 511.292 114.946 512.566 114.946ZM587.428 134.825C588.705 134.825 589.948 134.308 590.852 133.406C591.752 132.504 592.269 131.259 592.269 129.984C592.269 128.709 591.752 127.462 590.852 126.562C589.948 125.66 588.705 125.144 587.428 125.144C586.154 125.144 584.908 125.66 584.008 126.562C583.105 127.462 582.59 128.709 582.59 129.984C582.59 131.259 583.105 132.504 584.008 133.406C584.908 134.308 586.154 134.825 587.428 134.825ZM537.509 134.825H537.534C540.206 134.825 542.372 132.657 542.372 129.984C542.372 127.31 540.206 125.144 537.534 125.144H537.509C534.837 125.144 532.669 127.31 532.669 129.984C532.669 132.657 534.837 134.825 537.509 134.825ZM562.463 134.825H562.487C565.161 134.825 567.328 132.657 567.328 129.984C567.328 127.31 565.161 125.144 562.487 125.144H562.463C559.792 125.144 557.624 127.31 557.624 129.984C557.624 132.657 559.792 134.825 562.463 134.825Z" fill="#F6F6F6"/>
<path d="M200.317 199.82H300.226V99.9092H200.317V199.82Z" fill="#F0F0F0"/>
<path d="M100.41 199.818H200.319V299.726C145.14 299.726 100.41 254.997 100.41 199.818Z" fill="#E8E8E8"/>
<path fill-rule="evenodd" clip-rule="evenodd" d="M300.226 249.772C300.226 277.362 277.862 299.726 250.273 299.726C222.683 299.726 200.317 277.362 200.317 249.772C200.317 222.182 222.683 199.818 250.273 199.818C277.862 199.818 300.226 222.182 300.226 249.772ZM252.645 253.709C252.645 257.193 249.82 260.017 246.336 260.017C242.851 260.017 240.028 257.193 240.028 253.709C240.028 250.223 242.851 247.399 246.336 247.399C249.82 247.399 252.645 250.223 252.645 253.709Z" fill="#F6F6F6"/>
<path d="M312.748 234.735C314.025 234.735 315.268 234.218 316.17 233.317C317.074 232.417 317.589 231.171 317.589 229.895C317.589 228.62 317.074 227.375 316.17 226.473C315.268 225.571 314.025 225.056 312.748 225.056C311.473 225.056 310.228 225.571 309.326 226.473C308.426 227.375 307.909 228.62 307.909 229.895C307.909 231.171 308.426 232.417 309.326 233.317C310.228 234.218 311.473 234.735 312.748 234.735ZM387.61 294.372C388.887 294.372 390.132 293.857 391.034 292.957C391.934 292.055 392.451 290.809 392.451 289.533C392.451 288.26 391.934 287.013 391.034 286.113C390.132 285.211 388.887 284.694 387.61 284.694C386.335 284.694 385.09 285.211 384.19 286.113C383.286 287.013 382.771 288.26 382.771 289.533C382.771 290.809 383.286 292.055 384.19 292.957C385.09 293.857 386.335 294.372 387.61 294.372ZM337.691 294.372H337.715C340.388 294.372 342.556 292.207 342.556 289.533C342.556 286.862 340.388 284.694 337.715 284.694H337.691C335.019 284.694 332.851 286.862 332.851 289.533C332.851 292.207 335.019 294.372 337.691 294.372ZM362.645 294.372H362.671C365.343 294.372 367.509 292.207 367.509 289.533C367.509 286.862 365.343 284.694 362.671 284.694H362.645C359.974 284.694 357.806 286.862 357.806 289.533C357.806 292.207 359.974 294.372 362.645 294.372ZM312.748 294.372C314.025 294.372 315.268 293.857 316.17 292.957C317.074 292.055 317.589 290.809 317.589 289.533C317.589 288.26 317.074 287.013 316.17 286.113C315.268 285.211 314.025 284.694 312.748 284.694C311.473 284.694 310.228 285.211 309.326 286.113C308.426 287.013 307.909 288.26 307.909 289.533C307.909 290.809 308.426 292.055 309.326 292.957C310.228 293.857 311.473 294.372 312.748 294.372ZM387.61 274.495C388.887 274.495 390.132 273.978 391.034 273.076C391.934 272.176 392.451 270.929 392.451 269.654C392.451 268.381 391.934 267.134 391.034 266.232C390.132 265.33 388.887 264.815 387.61 264.815C386.335 264.815 385.09 265.33 384.19 266.232C383.286 267.134 382.771 268.381 382.771 269.654C382.771 270.929 383.286 272.176 384.19 273.076C385.09 273.978 386.335 274.495 387.61 274.495ZM337.691 274.495H337.715C340.388 274.495 342.556 272.327 342.556 269.654C342.556 266.982 340.388 264.815 337.715 264.815H337.691C335.019 264.815 332.851 266.982 332.851 269.654C332.851 272.327 335.019 274.495 337.691 274.495ZM362.645 274.495H362.671C365.343 274.495 367.509 272.327 367.509 269.654C367.509 266.982 365.343 264.815 362.671 264.815H362.645C359.974 264.815 357.806 266.982 357.806 269.654C357.806 272.327 359.974 274.495 362.645 274.495ZM312.748 274.495C314.025 274.495 315.268 273.978 316.17 273.076C317.074 272.176 317.589 270.929 317.589 269.654C317.589 268.381 317.074 267.134 316.17 266.232C315.268 265.33 314.025 264.815 312.748 264.815C311.473 264.815 310.228 265.33 309.326 266.232C308.426 267.134 307.909 268.381 307.909 269.654C307.909 270.929 308.426 272.176 309.326 273.076C310.228 273.978 311.473 274.495 312.748 274.495ZM387.61 254.616C388.887 254.616 390.132 254.097 391.034 253.195C391.934 252.297 392.451 251.05 392.451 249.775C392.451 248.501 391.934 247.255 391.034 246.354C390.132 245.452 388.887 244.937 387.61 244.937C386.335 244.937 385.09 245.452 384.19 246.354C383.286 247.255 382.771 248.501 382.771 249.775C382.771 251.05 383.286 252.297 384.19 253.195C385.09 254.097 386.335 254.616 387.61 254.616ZM337.691 254.616H337.715C340.388 254.616 342.556 252.446 342.556 249.775C342.556 247.103 340.388 244.937 337.715 244.937H337.691C335.019 244.937 332.851 247.103 332.851 249.775C332.851 252.446 335.019 254.616 337.691 254.616ZM362.645 254.616H362.671C365.343 254.616 367.509 252.446 367.509 249.775C367.509 247.103 365.343 244.937 362.671 244.937H362.645C359.974 244.937 357.806 247.103 357.806 249.775C357.806 252.446 359.974 254.616 362.645 254.616ZM312.748 254.616C314.025 254.616 315.268 254.097 316.17 253.195C317.074 252.297 317.589 251.05 317.589 249.775C317.589 248.501 317.074 247.255 316.17 246.354C315.268 245.452 314.025 244.937 312.748 244.937C311.473 244.937 310.228 245.452 309.326 246.354C308.426 247.255 307.909 248.501 307.909 249.775C307.909 251.05 308.426 252.297 309.326 253.195C310.228 254.097 311.473 254.616 312.748 254.616ZM387.61 214.857C388.887 214.857 390.132 214.34 391.034 213.44C391.934 212.538 392.451 211.291 392.451 210.018C392.451 208.743 391.934 207.496 391.034 206.594C390.132 205.692 388.887 205.177 387.61 205.177C386.335 205.177 385.09 205.692 384.19 206.594C383.286 207.496 382.771 208.743 382.771 210.018C382.771 211.291 383.286 212.538 384.19 213.44C385.09 214.34 386.335 214.857 387.61 214.857ZM337.691 214.857H337.715C340.388 214.857 342.556 212.69 342.556 210.018C342.556 207.343 340.388 205.177 337.715 205.177H337.691C335.019 205.177 332.851 207.343 332.851 210.018C332.851 212.69 335.019 214.857 337.691 214.857ZM362.645 214.857H362.671C365.343 214.857 367.509 212.69 367.509 210.018C367.509 207.343 365.343 205.177 362.671 205.177H362.645C359.974 205.177 357.806 207.343 357.806 210.018C357.806 212.69 359.974 214.857 362.645 214.857ZM312.748 214.857C314.025 214.857 315.268 214.34 316.17 213.44C317.074 212.538 317.589 211.291 317.589 210.018C317.589 208.743 317.074 207.496 316.17 206.594C315.268 205.692 314.025 205.177 312.748 205.177C311.473 205.177 310.228 205.692 309.326 206.594C308.426 207.496 307.909 208.743 307.909 210.018C307.909 211.291 308.426 212.538 309.326 213.44C310.228 214.34 311.473 214.857 312.748 214.857ZM387.61 234.735C388.887 234.735 390.132 234.218 391.034 233.317C391.934 232.417 392.451 231.171 392.451 229.895C392.451 228.62 391.934 227.375 391.034 226.473C390.132 225.571 388.887 225.056 387.61 225.056C386.335 225.056 385.09 225.571 384.19 226.473C383.286 227.375 382.771 228.62 382.771 229.895C382.771 231.171 383.286 232.417 384.19 233.317C385.09 234.218 386.335 234.735 387.61 234.735ZM337.691 234.735H337.715C340.388 234.735 342.556 232.567 342.556 229.895C342.556 227.222 340.388 225.056 337.715 225.056H337.691C335.019 225.056 332.851 227.222 332.851 229.895C332.851 232.567 335.019 234.735 337.691 234.735ZM362.645 234.735H362.671C365.343 234.735 367.509 232.567 367.509 229.895C367.509 227.222 365.343 225.056 362.671 225.056H362.645C359.974 225.056 357.806 227.222 357.806 229.895C357.806 232.567 359.974 234.735 362.645 234.735Z" fill="#F0F0F0"/>
<path d="M300.226 199.818V99.9092H400.134C400.134 155.087 355.404 199.818 300.226 199.818Z" fill="#E8E8E8"/>
<path fill-rule="evenodd" clip-rule="evenodd" d="M400.134 49.9554C400.134 77.545 377.77 99.9091 350.18 99.9091C322.59 99.9091 300.225 77.545 300.225 49.9554C300.225 22.3658 322.59 0.00170898 350.18 0.00170898C377.77 0.00170898 400.134 22.3658 400.134 49.9554ZM352.553 53.8906C352.553 57.3766 349.727 60.2 346.243 60.2C342.759 60.2 339.935 57.3766 339.935 53.8906C339.935 50.4063 342.759 47.5829 346.243 47.5829C349.727 47.5829 352.553 50.4063 352.553 53.8906Z" fill="#F6F6F6"/>
<path d="M300.226 299.731H337.384C337.384 334.386 365.477 362.482 400.134 362.482V399.64C344.956 399.64 300.226 354.908 300.226 299.731Z" fill="#E8E8E8"/>
<path d="M300.226 499.551H400.135V399.64H300.226V499.551Z" fill="#F6F6F6" stroke="#F6F6F6" stroke-width="0.898379" stroke-miterlimit="10"/>
<path fill-rule="evenodd" clip-rule="evenodd" d="M599.952 249.772C599.952 277.362 577.588 299.726 549.997 299.726C522.409 299.726 500.043 277.362 500.043 249.772C500.043 222.182 522.409 199.818 549.997 199.818C577.588 199.818 599.952 222.182 599.952 249.772ZM552.371 253.709C552.371 257.193 549.546 260.017 546.061 260.017C542.577 260.017 539.754 257.193 539.754 253.709C539.754 250.223 542.577 247.399 546.061 247.399C549.546 247.399 552.371 250.223 552.371 253.709Z" fill="#E8E8E8"/>
<path d="M599.952 199.82H699.861V99.9092H599.952V199.82Z" fill="#F0F0F0"/>
<path d="M599.952 399.64V299.729H699.861C699.861 354.908 655.131 399.64 599.952 399.64Z" fill="#F0F0F0"/>
<path fill-rule="evenodd" clip-rule="evenodd" d="M699.861 49.9537C699.861 77.5433 677.497 99.9091 649.907 99.9091C622.318 99.9091 599.952 77.5433 599.952 49.9537C599.952 22.3641 622.318 0 649.907 0C677.497 0 699.861 22.3641 699.861 49.9537ZM652.28 53.8906C652.28 57.3749 649.455 60.1983 645.971 60.1983C642.486 60.1983 639.663 57.3749 639.663 53.8906C639.663 50.4064 642.486 47.5811 645.971 47.5811C649.455 47.5811 652.28 50.4064 652.28 53.8906Z" fill="#E8E8E8"/>
<path d="M712.385 234.734C713.659 234.734 714.905 234.217 715.806 233.315C716.708 232.413 717.225 231.168 717.225 229.893C717.225 228.618 716.708 227.373 715.806 226.471C714.905 225.569 713.659 225.054 712.385 225.054C711.11 225.054 709.863 225.569 708.963 226.471C708.061 227.373 707.544 228.618 707.544 229.893C707.544 231.168 708.061 232.413 708.963 233.315C709.863 234.217 711.11 234.734 712.385 234.734ZM787.247 294.37C788.521 294.37 789.767 293.855 790.67 292.955C791.57 292.053 792.087 290.806 792.087 289.531C792.087 288.258 791.57 287.011 790.67 286.109C789.767 285.209 788.521 284.692 787.247 284.692C785.972 284.692 784.727 285.209 783.827 286.109C782.923 287.011 782.408 288.258 782.408 289.531C782.408 290.806 782.923 292.053 783.827 292.955C784.727 293.855 785.972 294.37 787.247 294.37ZM737.328 294.37H737.352C740.024 294.37 742.191 292.206 742.191 289.531C742.191 286.859 740.024 284.692 737.352 284.692H737.328C734.655 284.692 732.487 286.859 732.487 289.531C732.487 292.206 734.655 294.37 737.328 294.37ZM762.281 294.37H762.305C764.978 294.37 767.146 292.206 767.146 289.531C767.146 286.859 764.978 284.692 762.305 284.692H762.281C759.61 284.692 757.442 286.859 757.442 289.531C757.442 292.206 759.61 294.37 762.281 294.37ZM712.385 294.37C713.659 294.37 714.905 293.855 715.806 292.955C716.708 292.053 717.225 290.806 717.225 289.531C717.225 288.258 716.708 287.011 715.806 286.109C714.905 285.209 713.659 284.692 712.385 284.692C711.11 284.692 709.863 285.209 708.963 286.109C708.061 287.011 707.544 288.258 707.544 289.531C707.544 290.806 708.061 292.053 708.963 292.955C709.863 293.855 711.11 294.37 712.385 294.37ZM787.247 274.493C788.521 274.493 789.767 273.974 790.67 273.074C791.57 272.172 792.087 270.927 792.087 269.652C792.087 268.378 791.57 267.132 790.67 266.231C789.767 265.329 788.521 264.814 787.247 264.814C785.972 264.814 784.727 265.329 783.827 266.231C782.923 267.132 782.408 268.378 782.408 269.652C782.408 270.927 782.923 272.172 783.827 273.074C784.727 273.974 785.972 274.493 787.247 274.493ZM737.328 274.493H737.352C740.024 274.493 742.191 272.325 742.191 269.652C742.191 266.98 740.024 264.814 737.352 264.814H737.328C734.655 264.814 732.487 266.98 732.487 269.652C732.487 272.325 734.655 274.493 737.328 274.493ZM762.281 274.493H762.305C764.978 274.493 767.146 272.325 767.146 269.652C767.146 266.98 764.978 264.814 762.305 264.814H762.281C759.61 264.814 757.442 266.98 757.442 269.652C757.442 272.325 759.61 274.493 762.281 274.493ZM712.385 274.493C713.659 274.493 714.905 273.974 715.806 273.074C716.708 272.172 717.225 270.927 717.225 269.652C717.225 268.378 716.708 267.132 715.806 266.231C714.905 265.329 713.659 264.814 712.385 264.814C711.11 264.814 709.863 265.329 708.963 266.231C708.061 267.132 707.544 268.378 707.544 269.652C707.544 270.927 708.061 272.172 708.963 273.074C709.863 273.974 711.11 274.493 712.385 274.493ZM787.247 254.612C788.521 254.612 789.767 254.096 790.67 253.194C791.57 252.294 792.087 251.047 792.087 249.774C792.087 248.499 791.57 247.252 790.67 246.35C789.767 245.45 788.521 244.933 787.247 244.933C785.972 244.933 784.727 245.45 783.827 246.35C782.923 247.252 782.408 248.499 782.408 249.774C782.408 251.047 782.923 252.294 783.827 253.194C784.727 254.096 785.972 254.612 787.247 254.612ZM737.328 254.612H737.352C740.024 254.612 742.191 252.445 742.191 249.774C742.191 247.099 740.024 244.933 737.352 244.933H737.328C734.655 244.933 732.487 247.099 732.487 249.774C732.487 252.445 734.655 254.612 737.328 254.612ZM762.281 254.612H762.305C764.978 254.612 767.146 252.445 767.146 249.774C767.146 247.099 764.978 244.933 762.305 244.933H762.281C759.61 244.933 757.442 247.099 757.442 249.774C757.442 252.445 759.61 254.612 762.281 254.612ZM712.385 254.612C713.659 254.612 714.905 254.096 715.806 253.194C716.708 252.294 717.225 251.047 717.225 249.774C717.225 248.499 716.708 247.252 715.806 246.35C714.905 245.45 713.659 244.933 712.385 244.933C711.11 244.933 709.863 245.45 708.963 246.35C708.061 247.252 707.544 248.499 707.544 249.774C707.544 251.047 708.061 252.294 708.963 253.194C709.863 254.096 711.11 254.612 712.385 254.612ZM787.247 214.855C788.521 214.855 789.767 214.336 790.67 213.436C791.57 212.534 792.087 211.289 792.087 210.016C792.087 208.74 791.57 207.494 790.67 206.592C789.767 205.691 788.521 205.176 787.247 205.176C785.972 205.176 784.727 205.691 783.827 206.592C782.923 207.494 782.408 208.74 782.408 210.016C782.408 211.289 782.923 212.534 783.827 213.436C784.727 214.336 785.972 214.855 787.247 214.855ZM737.328 214.855H737.352C740.024 214.855 742.191 212.687 742.191 210.016C742.191 207.342 740.024 205.176 737.352 205.176H737.328C734.655 205.176 732.487 207.342 732.487 210.016C732.487 212.687 734.655 214.855 737.328 214.855ZM762.281 214.855H762.305C764.978 214.855 767.146 212.687 767.146 210.016C767.146 207.342 764.978 205.176 762.305 205.176H762.281C759.61 205.176 757.442 207.342 757.442 210.016C757.442 212.687 759.61 214.855 762.281 214.855ZM712.385 214.855C713.659 214.855 714.905 214.336 715.806 213.436C716.708 212.534 717.225 211.289 717.225 210.016C717.225 208.74 716.708 207.494 715.806 206.592C714.905 205.691 713.659 205.176 712.385 205.176C711.11 205.176 709.863 205.691 708.963 206.592C708.061 207.494 707.544 208.74 707.544 210.016C707.544 211.289 708.061 212.534 708.963 213.436C709.863 214.336 711.11 214.855 712.385 214.855ZM787.247 234.734C788.521 234.734 789.767 234.217 790.67 233.315C791.57 232.413 792.087 231.168 792.087 229.893C792.087 228.618 791.57 227.373 790.67 226.471C789.767 225.569 788.521 225.054 787.247 225.054C785.972 225.054 784.727 225.569 783.827 226.471C782.923 227.373 782.408 228.618 782.408 229.893C782.408 231.168 782.923 232.413 783.827 233.315C784.727 234.217 785.972 234.734 787.247 234.734ZM737.328 234.734H737.352C740.024 234.734 742.191 232.566 742.191 229.893C742.191 227.219 740.024 225.054 737.352 225.054H737.328C734.655 225.054 732.487 227.219 732.487 229.893C732.487 232.566 734.655 234.734 737.328 234.734ZM762.281 234.734H762.305C764.978 234.734 767.146 232.566 767.146 229.893C767.146 227.219 764.978 225.054 762.305 225.054H762.281C759.61 225.054 757.442 227.219 757.442 229.893C757.442 232.566 759.61 234.734 762.281 234.734Z" fill="#E8E8E8"/>
<path d="M699.861 99.9092H799.772V199.817C744.593 199.817 699.861 155.087 699.861 99.9092Z" fill="#F6F6F6"/>
<path fill-rule="evenodd" clip-rule="evenodd" d="M899.679 249.772C899.679 277.363 877.315 299.727 849.726 299.727C822.136 299.727 799.77 277.363 799.77 249.772C799.77 222.184 822.136 199.82 849.726 199.82C877.315 199.82 899.679 222.184 899.679 249.772ZM852.098 253.709C852.098 257.193 849.273 260.018 845.789 260.018C842.304 260.018 839.481 257.193 839.481 253.709C839.481 250.225 842.304 247.401 845.789 247.401C849.273 247.401 852.098 250.225 852.098 253.709Z" fill="#F6F6F6"/>
<path d="M899.681 199.818H862.523C862.523 165.161 834.429 137.067 799.772 137.067V99.9092C854.951 99.9092 899.681 144.641 899.681 199.818Z" fill="#F0F0F0"/>
<path d="M912.203 134.823C913.479 134.823 914.723 134.306 915.625 133.404C916.528 132.502 917.043 131.257 917.043 129.982C917.043 128.707 916.528 127.462 915.625 126.56C914.723 125.659 913.479 125.143 912.203 125.143C910.928 125.143 909.683 125.659 908.781 126.56C907.881 127.462 907.364 128.707 907.364 129.982C907.364 131.257 907.881 132.502 908.781 133.404C909.683 134.306 910.928 134.823 912.203 134.823ZM987.065 194.459C988.341 194.459 989.587 193.944 990.488 193.044C991.389 192.142 991.905 190.895 991.905 189.62C991.905 188.347 991.389 187.1 990.488 186.199C989.587 185.298 988.341 184.782 987.065 184.782C985.792 184.782 984.545 185.298 983.645 186.199C982.743 187.1 982.226 188.347 982.226 189.62C982.226 190.895 982.743 192.142 983.645 193.044C984.545 193.944 985.792 194.459 987.065 194.459ZM937.146 194.459H937.172C939.844 194.459 942.011 192.295 942.011 189.62C942.011 186.948 939.844 184.782 937.172 184.782H937.146C934.473 184.782 932.305 186.948 932.305 189.62C932.305 192.295 934.473 194.459 937.146 194.459ZM962.099 194.459H962.125C964.798 194.459 966.964 192.295 966.964 189.62C966.964 186.948 964.798 184.782 962.125 184.782H962.099C959.428 184.782 957.261 186.948 957.261 189.62C957.261 192.295 959.428 194.459 962.099 194.459ZM912.203 194.459C913.479 194.459 914.723 193.944 915.625 193.044C916.528 192.142 917.043 190.895 917.043 189.62C917.043 188.347 916.528 187.1 915.625 186.199C914.723 185.298 913.479 184.782 912.203 184.782C910.928 184.782 909.683 185.298 908.781 186.199C907.881 187.1 907.364 188.347 907.364 189.62C907.364 190.895 907.881 192.142 908.781 193.044C909.683 193.944 910.928 194.459 912.203 194.459ZM987.065 174.582C988.341 174.582 989.587 174.063 990.488 173.163C991.389 172.262 991.905 171.016 991.905 169.742C991.905 168.467 991.389 167.222 990.488 166.32C989.587 165.418 988.341 164.903 987.065 164.903C985.792 164.903 984.545 165.418 983.645 166.32C982.743 167.222 982.226 168.467 982.226 169.742C982.226 171.016 982.743 172.262 983.645 173.163C984.545 174.063 985.792 174.582 987.065 174.582ZM937.146 174.582H937.172C939.844 174.582 942.011 172.414 942.011 169.742C942.011 167.069 939.844 164.903 937.172 164.903H937.146C934.473 164.903 932.305 167.069 932.305 169.742C932.305 172.414 934.473 174.582 937.146 174.582ZM962.099 174.582H962.125C964.798 174.582 966.964 172.414 966.964 169.742C966.964 167.069 964.798 164.903 962.125 164.903H962.099C959.428 164.903 957.261 167.069 957.261 169.742C957.261 172.414 959.428 174.582 962.099 174.582ZM912.203 174.582C913.479 174.582 914.723 174.063 915.625 173.163C916.528 172.262 917.043 171.016 917.043 169.742C917.043 168.467 916.528 167.222 915.625 166.32C914.723 165.418 913.479 164.903 912.203 164.903C910.928 164.903 909.683 165.418 908.781 166.32C907.881 167.222 907.364 168.467 907.364 169.742C907.364 171.016 907.881 172.262 908.781 173.163C909.683 174.063 910.928 174.582 912.203 174.582ZM987.065 154.702C988.341 154.702 989.587 154.185 990.488 153.283C991.389 152.384 991.905 151.136 991.905 149.863C991.905 148.588 991.389 147.341 990.488 146.439C989.587 145.539 988.341 145.022 987.065 145.022C985.792 145.022 984.545 145.539 983.645 146.439C982.743 147.341 982.226 148.588 982.226 149.863C982.226 151.136 982.743 152.384 983.645 153.283C984.545 154.185 985.792 154.702 987.065 154.702ZM937.146 154.702H937.172C939.844 154.702 942.011 152.534 942.011 149.863C942.011 147.188 939.844 145.022 937.172 145.022H937.146C934.473 145.022 932.305 147.188 932.305 149.863C932.305 152.534 934.473 154.702 937.146 154.702ZM962.099 154.702H962.125C964.798 154.702 966.964 152.534 966.964 149.863C966.964 147.188 964.798 145.022 962.125 145.022H962.099C959.428 145.022 957.261 147.188 957.261 149.863C957.261 152.534 959.428 154.702 962.099 154.702ZM912.203 154.702C913.479 154.702 914.723 154.185 915.625 153.283C916.528 152.384 917.043 151.136 917.043 149.863C917.043 148.588 916.528 147.341 915.625 146.439C914.723 145.539 913.479 145.022 912.203 145.022C910.928 145.022 909.683 145.539 908.781 146.439C907.881 147.341 907.364 148.588 907.364 149.863C907.364 151.136 907.881 152.384 908.781 153.283C909.683 154.185 910.928 154.702 912.203 154.702ZM987.065 114.944C988.341 114.944 989.587 114.425 990.488 113.525C991.389 112.623 991.905 111.378 991.905 110.105C991.905 108.829 991.389 107.583 990.488 106.682C989.587 105.78 988.341 105.265 987.065 105.265C985.792 105.265 984.545 105.78 983.645 106.682C982.743 107.583 982.226 108.829 982.226 110.105C982.226 111.378 982.743 112.623 983.645 113.525C984.545 114.425 985.792 114.944 987.065 114.944ZM937.146 114.944H937.172C939.844 114.944 942.011 112.776 942.011 110.105C942.011 107.431 939.844 105.265 937.172 105.265H937.146C934.473 105.265 932.305 107.431 932.305 110.105C932.305 112.776 934.473 114.944 937.146 114.944ZM962.099 114.944H962.125C964.798 114.944 966.964 112.776 966.964 110.105C966.964 107.431 964.798 105.265 962.125 105.265H962.099C959.428 105.265 957.261 107.431 957.261 110.105C957.261 112.776 959.428 114.944 962.099 114.944ZM912.203 114.944C913.479 114.944 914.723 114.425 915.625 113.525C916.528 112.623 917.043 111.378 917.043 110.105C917.043 108.829 916.528 107.583 915.625 106.682C914.723 105.78 913.479 105.265 912.203 105.265C910.928 105.265 909.683 105.78 908.781 106.682C907.881 107.583 907.364 108.829 907.364 110.105C907.364 111.378 907.881 112.623 908.781 113.525C909.683 114.425 910.928 114.944 912.203 114.944ZM987.065 134.823C988.341 134.823 989.587 134.306 990.488 133.404C991.389 132.502 991.905 131.257 991.905 129.982C991.905 128.707 991.389 127.462 990.488 126.56C989.587 125.659 988.341 125.143 987.065 125.143C985.792 125.143 984.545 125.659 983.645 126.56C982.743 127.462 982.226 128.707 982.226 129.982C982.226 131.257 982.743 132.502 983.645 133.404C984.545 134.306 985.792 134.823 987.065 134.823ZM937.146 134.823H937.172C939.844 134.823 942.011 132.655 942.011 129.982C942.011 127.308 939.844 125.143 937.172 125.143H937.146C934.473 125.143 932.305 127.308 932.305 129.982C932.305 132.655 934.473 134.823 937.146 134.823ZM962.099 134.823H962.125C964.798 134.823 966.964 132.655 966.964 129.982C966.964 127.308 964.798 125.143 962.125 125.143H962.099C959.428 125.143 957.261 127.308 957.261 129.982C957.261 132.655 959.428 134.823 962.099 134.823Z" fill="#E8E8E8"/>
<path d="M999.588 299.729H1099.5V199.818H999.588V299.729Z" fill="#F0F0F0"/>
</g>
<defs>
<clipPath id="clip0_52_64">
<rect width="1100" height="500" fill="white"/>
</clipPath>
</defs>
</svg>
