<svg width="1100" height="500" viewBox="0 0 1100 500" fill="none" xmlns="http://www.w3.org/2000/svg">
<g clip-path="url(#clip0_52_106)">
<path d="M299.994 200.001H399.992V100.003H299.994V200.001Z" fill="#E8E8E8"/>
<path fill-rule="evenodd" clip-rule="evenodd" d="M499.99 150.013C499.99 177.609 477.62 200.001 450.002 200.001C422.384 200.001 399.992 177.609 399.992 150.013C399.992 122.395 422.384 100.003 450.002 100.003C477.62 100.003 499.99 122.395 499.99 150.013ZM452.364 153.949C452.364 157.426 449.543 160.247 446.066 160.247C442.567 160.247 439.746 157.426 439.746 153.949C439.746 150.45 442.567 147.629 446.066 147.629C449.543 147.629 452.364 150.45 452.364 153.949Z" fill="#F0F0F0"/>
<path d="M499.99 200.001V100.003H599.988C599.988 155.239 555.226 200.001 499.99 200.001Z" fill="#E8E8E8"/>
<path d="M612.518 134.946C613.808 134.946 615.054 134.444 615.951 133.525C616.848 132.629 617.372 131.382 617.372 130.114C617.372 128.824 616.848 127.577 615.951 126.681C615.054 125.784 613.808 125.259 612.518 125.259C611.25 125.259 610.003 125.784 609.107 126.681C608.21 127.577 607.685 128.824 607.685 130.114C607.685 131.382 608.21 132.629 609.107 133.525C610.003 134.444 611.25 134.946 612.518 134.946ZM687.456 194.644C688.725 194.644 689.971 194.119 690.889 193.222C691.786 192.326 692.311 191.079 692.311 189.789C692.311 188.521 691.786 187.274 690.889 186.378C689.971 185.481 688.725 184.956 687.456 184.956C686.188 184.956 684.942 185.481 684.023 186.378C683.127 187.274 682.624 188.521 682.624 189.789C682.624 191.079 683.127 192.326 684.023 193.222C684.942 194.119 686.188 194.644 687.456 194.644ZM637.49 194.644H637.512C640.202 194.644 642.366 192.479 642.366 189.789C642.366 187.121 640.202 184.956 637.512 184.956H637.49C634.822 184.956 632.657 187.121 632.657 189.789C632.657 192.479 634.822 194.644 637.49 194.644ZM662.462 194.644H662.484C665.174 194.644 667.339 192.479 667.339 189.789C667.339 187.121 665.174 184.956 662.484 184.956H662.462C659.794 184.956 657.63 187.121 657.63 189.789C657.63 192.479 659.794 194.644 662.462 194.644ZM612.518 194.644C613.808 194.644 615.054 194.119 615.951 193.222C616.848 192.326 617.372 191.079 617.372 189.789C617.372 188.521 616.848 187.274 615.951 186.378C615.054 185.481 613.808 184.956 612.518 184.956C611.25 184.956 610.003 185.481 609.107 186.378C608.21 187.274 607.685 188.521 607.685 189.789C607.685 191.079 608.21 192.326 609.107 193.222C610.003 194.119 611.25 194.644 612.518 194.644ZM687.456 174.744C688.725 174.744 689.971 174.22 690.889 173.323C691.786 172.427 692.311 171.18 692.311 169.89C692.311 168.622 691.786 167.375 690.889 166.479C689.971 165.582 688.725 165.057 687.456 165.057C686.188 165.057 684.942 165.582 684.023 166.479C683.127 167.375 682.624 168.622 682.624 169.89C682.624 171.18 683.127 172.427 684.023 173.323C684.942 174.22 686.188 174.744 687.456 174.744ZM637.49 174.744H637.512C640.202 174.744 642.366 172.58 642.366 169.89C642.366 167.222 640.202 165.057 637.512 165.057H637.49C634.822 165.057 632.657 167.222 632.657 169.89C632.657 172.58 634.822 174.744 637.49 174.744ZM662.462 174.744H662.484C665.174 174.744 667.339 172.58 667.339 169.89C667.339 167.222 665.174 165.057 662.484 165.057H662.462C659.794 165.057 657.63 167.222 657.63 169.89C657.63 172.58 659.794 174.744 662.462 174.744ZM612.518 174.744C613.808 174.744 615.054 174.22 615.951 173.323C616.848 172.427 617.372 171.18 617.372 169.89C617.372 168.622 616.848 167.375 615.951 166.479C615.054 165.582 613.808 165.057 612.518 165.057C611.25 165.057 610.003 165.582 609.107 166.479C608.21 167.375 607.685 168.622 607.685 169.89C607.685 171.18 608.21 172.427 609.107 173.323C610.003 174.22 611.25 174.744 612.518 174.744ZM687.456 154.845C688.725 154.845 689.971 154.321 690.889 153.424C691.786 152.528 692.311 151.281 692.311 150.013C692.311 148.723 691.786 147.476 690.889 146.58C689.971 145.683 688.725 145.158 687.456 145.158C686.188 145.158 684.942 145.683 684.023 146.58C683.127 147.476 682.624 148.723 682.624 150.013C682.624 151.281 683.127 152.528 684.023 153.424C684.942 154.321 686.188 154.845 687.456 154.845ZM637.49 154.845H637.512C640.202 154.845 642.366 152.681 642.366 150.013C642.366 147.323 640.202 145.158 637.512 145.158H637.49C634.822 145.158 632.657 147.323 632.657 150.013C632.657 152.681 634.822 154.845 637.49 154.845ZM662.462 154.845H662.484C665.174 154.845 667.339 152.681 667.339 150.013C667.339 147.323 665.174 145.158 662.484 145.158H662.462C659.794 145.158 657.63 147.323 657.63 150.013C657.63 152.681 659.794 154.845 662.462 154.845ZM612.518 154.845C613.808 154.845 615.054 154.321 615.951 153.424C616.848 152.528 617.372 151.281 617.372 150.013C617.372 148.723 616.848 147.476 615.951 146.58C615.054 145.683 613.808 145.158 612.518 145.158C611.25 145.158 610.003 145.683 609.107 146.58C608.21 147.476 607.685 148.723 607.685 150.013C607.685 151.281 608.21 152.528 609.107 153.424C610.003 154.321 611.25 154.845 612.518 154.845ZM687.456 115.047C688.725 115.047 689.971 114.545 690.889 113.626C691.786 112.73 692.311 111.483 692.311 110.215C692.311 108.925 691.786 107.678 690.889 106.782C689.971 105.885 688.725 105.36 687.456 105.36C686.188 105.36 684.942 105.885 684.023 106.782C683.127 107.678 682.624 108.925 682.624 110.215C682.624 111.483 683.127 112.73 684.023 113.626C684.942 114.545 686.188 115.047 687.456 115.047ZM637.49 115.047H637.512C640.202 115.047 642.366 112.883 642.366 110.215C642.366 107.525 640.202 105.36 637.512 105.36H637.49C634.822 105.36 632.657 107.525 632.657 110.215C632.657 112.883 634.822 115.047 637.49 115.047ZM662.462 115.047H662.484C665.174 115.047 667.339 112.883 667.339 110.215C667.339 107.525 665.174 105.36 662.484 105.36H662.462C659.794 105.36 657.63 107.525 657.63 110.215C657.63 112.883 659.794 115.047 662.462 115.047ZM612.518 115.047C613.808 115.047 615.054 114.545 615.951 113.626C616.848 112.73 617.372 111.483 617.372 110.215C617.372 108.925 616.848 107.678 615.951 106.782C615.054 105.885 613.808 105.36 612.518 105.36C611.25 105.36 610.003 105.885 609.107 106.782C608.21 107.678 607.685 108.925 607.685 110.215C607.685 111.483 608.21 112.73 609.107 113.626C610.003 114.545 611.25 115.047 612.518 115.047ZM687.456 134.946C688.725 134.946 689.971 134.444 690.889 133.525C691.786 132.629 692.311 131.382 692.311 130.114C692.311 128.824 691.786 127.577 690.889 126.681C689.971 125.784 688.725 125.259 687.456 125.259C686.188 125.259 684.942 125.784 684.023 126.681C683.127 127.577 682.624 128.824 682.624 130.114C682.624 131.382 683.127 132.629 684.023 133.525C684.942 134.444 686.188 134.946 687.456 134.946ZM637.49 134.946H637.512C640.202 134.946 642.366 132.782 642.366 130.114C642.366 127.424 640.202 125.259 637.512 125.259H637.49C634.822 125.259 632.657 127.424 632.657 130.114C632.657 132.782 634.822 134.946 637.49 134.946ZM662.462 134.946H662.484C665.174 134.946 667.339 132.782 667.339 130.114C667.339 127.424 665.174 125.259 662.484 125.259H662.462C659.794 125.259 657.63 127.424 657.63 130.114C657.63 132.782 659.794 134.946 662.462 134.946Z" fill="#F0F0F0"/>
<path d="M599.988 0.00494385V37.2008C565.307 37.2008 537.186 65.3218 537.186 100.003H499.99C499.99 44.7668 544.774 0.00494385 599.988 0.00494385Z" fill="#F6F6F6"/>
<path d="M699.986 100.003H662.812C662.812 65.3218 634.691 37.2008 599.988 37.2008V0.00494385C655.224 0.00494385 699.986 44.7668 699.986 100.003Z" fill="#E8E8E8"/>
<path fill-rule="evenodd" clip-rule="evenodd" d="M699.986 250.011C699.986 277.607 677.616 299.999 649.998 299.999C622.38 299.999 599.988 277.607 599.988 250.011C599.988 222.393 622.38 200.001 649.998 200.001C677.616 200.001 699.986 222.393 699.986 250.011ZM652.36 253.947C652.36 257.424 649.539 260.267 646.062 260.267C642.563 260.267 639.742 257.424 639.742 253.947C639.742 250.448 642.563 247.627 646.062 247.627C649.539 247.627 652.36 250.448 652.36 253.947Z" fill="#E8E8E8"/>
<path d="M499.99 200.001H599.988V299.999C544.774 299.999 499.99 255.237 499.99 200.001Z" fill="#F6F6F6"/>
<path d="M699.986 299.999H799.984V200.001H699.986V299.999Z" fill="#F0F0F0"/>
<path d="M699.986 100.003H799.984V200.001C744.77 200.001 699.986 155.239 699.986 100.003Z" fill="#F6F6F6"/>
<path d="M612.518 434.94C613.808 434.94 615.054 434.438 615.951 433.519C616.848 432.623 617.372 431.376 617.372 430.108C617.372 428.84 616.848 427.571 615.951 426.675C615.054 425.778 613.808 425.253 612.518 425.253C611.25 425.253 610.003 425.778 609.107 426.675C608.21 427.571 607.685 428.84 607.685 430.108C607.685 431.376 608.21 432.623 609.107 433.519C610.003 434.438 611.25 434.94 612.518 434.94ZM687.456 494.638C688.725 494.638 689.971 494.135 690.889 493.216C691.786 492.32 692.311 491.073 692.311 489.805C692.311 488.515 691.786 487.268 690.889 486.372C689.971 485.475 688.725 484.95 687.456 484.95C686.188 484.95 684.942 485.475 684.023 486.372C683.127 487.268 682.624 488.515 682.624 489.805C682.624 491.073 683.127 492.32 684.023 493.216C684.942 494.135 686.188 494.638 687.456 494.638ZM637.49 494.638H637.512C640.202 494.638 642.366 492.473 642.366 489.805C642.366 487.115 640.202 484.95 637.512 484.95H637.49C634.822 484.95 632.657 487.115 632.657 489.805C632.657 492.473 634.822 494.638 637.49 494.638ZM662.462 494.638H662.484C665.174 494.638 667.339 492.473 667.339 489.805C667.339 487.115 665.174 484.95 662.484 484.95H662.462C659.794 484.95 657.63 487.115 657.63 489.805C657.63 492.473 659.794 494.638 662.462 494.638ZM612.518 494.638C613.808 494.638 615.054 494.135 615.951 493.216C616.848 492.32 617.372 491.073 617.372 489.805C617.372 488.515 616.848 487.268 615.951 486.372C615.054 485.475 613.808 484.95 612.518 484.95C611.25 484.95 610.003 485.475 609.107 486.372C608.21 487.268 607.685 488.515 607.685 489.805C607.685 491.073 608.21 492.32 609.107 493.216C610.003 494.135 611.25 494.638 612.518 494.638ZM687.456 474.739C688.725 474.739 689.971 474.236 690.889 473.317C691.786 472.421 692.311 471.174 692.311 469.906C692.311 468.616 691.786 467.369 690.889 466.473C689.971 465.576 688.725 465.051 687.456 465.051C686.188 465.051 684.942 465.576 684.023 466.473C683.127 467.369 682.624 468.616 682.624 469.906C682.624 471.174 683.127 472.421 684.023 473.317C684.942 474.236 686.188 474.739 687.456 474.739ZM637.49 474.739H637.512C640.202 474.739 642.366 472.574 642.366 469.906C642.366 467.216 640.202 465.051 637.512 465.051H637.49C634.822 465.051 632.657 467.216 632.657 469.906C632.657 472.574 634.822 474.739 637.49 474.739ZM662.462 474.739H662.484C665.174 474.739 667.339 472.574 667.339 469.906C667.339 467.216 665.174 465.051 662.484 465.051H662.462C659.794 465.051 657.63 467.216 657.63 469.906C657.63 472.574 659.794 474.739 662.462 474.739ZM612.518 474.739C613.808 474.739 615.054 474.236 615.951 473.317C616.848 472.421 617.372 471.174 617.372 469.906C617.372 468.616 616.848 467.369 615.951 466.473C615.054 465.576 613.808 465.051 612.518 465.051C611.25 465.051 610.003 465.576 609.107 466.473C608.21 467.369 607.685 468.616 607.685 469.906C607.685 471.174 608.21 472.421 609.107 473.317C610.003 474.236 611.25 474.739 612.518 474.739ZM687.456 454.84C688.725 454.84 689.971 454.337 690.889 453.418C691.786 452.522 692.311 451.275 692.311 450.007C692.311 448.717 691.786 447.47 690.889 446.574C689.971 445.677 688.725 445.152 687.456 445.152C686.188 445.152 684.942 445.677 684.023 446.574C683.127 447.47 682.624 448.717 682.624 450.007C682.624 451.275 683.127 452.522 684.023 453.418C684.942 454.337 686.188 454.84 687.456 454.84ZM637.49 454.84H637.512C640.202 454.84 642.366 452.675 642.366 450.007C642.366 447.317 640.202 445.152 637.512 445.152H637.49C634.822 445.152 632.657 447.317 632.657 450.007C632.657 452.675 634.822 454.84 637.49 454.84ZM662.462 454.84H662.484C665.174 454.84 667.339 452.675 667.339 450.007C667.339 447.317 665.174 445.152 662.484 445.152H662.462C659.794 445.152 657.63 447.317 657.63 450.007C657.63 452.675 659.794 454.84 662.462 454.84ZM612.518 454.84C613.808 454.84 615.054 454.337 615.951 453.418C616.848 452.522 617.372 451.275 617.372 450.007C617.372 448.717 616.848 447.47 615.951 446.574C615.054 445.677 613.808 445.152 612.518 445.152C611.25 445.152 610.003 445.677 609.107 446.574C608.21 447.47 607.685 448.717 607.685 450.007C607.685 451.275 608.21 452.522 609.107 453.418C610.003 454.337 611.25 454.84 612.518 454.84ZM687.456 415.063C688.725 415.063 689.971 414.539 690.889 413.642C691.786 412.724 692.311 411.477 692.311 410.209C692.311 408.941 691.786 407.694 690.889 406.776C689.971 405.879 688.725 405.354 687.456 405.354C686.188 405.354 684.942 405.879 684.023 406.776C683.127 407.694 682.624 408.941 682.624 410.209C682.624 411.477 683.127 412.724 684.023 413.642C684.942 414.539 686.188 415.063 687.456 415.063ZM637.49 415.063H637.512C640.202 415.063 642.366 412.877 642.366 410.209C642.366 407.541 640.202 405.354 637.512 405.354H637.49C634.822 405.354 632.657 407.541 632.657 410.209C632.657 412.877 634.822 415.063 637.49 415.063ZM662.462 415.063H662.484C665.174 415.063 667.339 412.877 667.339 410.209C667.339 407.541 665.174 405.354 662.484 405.354H662.462C659.794 405.354 657.63 407.541 657.63 410.209C657.63 412.877 659.794 415.063 662.462 415.063ZM612.518 415.063C613.808 415.063 615.054 414.539 615.951 413.642C616.848 412.724 617.372 411.477 617.372 410.209C617.372 408.941 616.848 407.694 615.951 406.776C615.054 405.879 613.808 405.354 612.518 405.354C611.25 405.354 610.003 405.879 609.107 406.776C608.21 407.694 607.685 408.941 607.685 410.209C607.685 411.477 608.21 412.724 609.107 413.642C610.003 414.539 611.25 415.063 612.518 415.063ZM687.456 434.94C688.725 434.94 689.971 434.438 690.889 433.519C691.786 432.623 692.311 431.376 692.311 430.108C692.311 428.84 691.786 427.571 690.889 426.675C689.971 425.778 688.725 425.253 687.456 425.253C686.188 425.253 684.942 425.778 684.023 426.675C683.127 427.571 682.624 428.84 682.624 430.108C682.624 431.376 683.127 432.623 684.023 433.519C684.942 434.438 686.188 434.94 687.456 434.94ZM637.49 434.94H637.512C640.202 434.94 642.366 432.776 642.366 430.108C642.366 427.418 640.202 425.253 637.512 425.253H637.49C634.822 425.253 632.657 427.418 632.657 430.108C632.657 432.776 634.822 434.94 637.49 434.94ZM662.462 434.94H662.484C665.174 434.94 667.339 432.776 667.339 430.108C667.339 427.418 665.174 425.253 662.484 425.253H662.462C659.794 425.253 657.63 427.418 657.63 430.108C657.63 432.776 659.794 434.94 662.462 434.94Z" fill="#E8E8E8"/>
<path fill-rule="evenodd" clip-rule="evenodd" d="M799.984 50.0149C799.984 77.6111 777.614 100.003 749.996 100.003C722.378 100.003 699.986 77.6111 699.986 50.0149C699.986 22.3968 722.378 0.00494385 749.996 0.00494385C777.614 0.00494385 799.984 22.3968 799.984 50.0149ZM752.358 53.951C752.358 57.4278 749.537 60.2705 746.06 60.2705C742.561 60.2705 739.74 57.4278 739.74 53.951C739.74 50.4522 742.561 47.6314 746.06 47.6314C749.537 47.6314 752.358 50.4522 752.358 53.951Z" fill="#F0F0F0"/>
<path d="M699.986 299.999V337.195C665.305 337.195 637.184 365.316 637.184 399.997H599.988C599.988 344.783 644.772 299.999 699.986 299.999Z" fill="#F6F6F6"/>
<path d="M499.99 399.997H599.988V299.999H499.99V399.997Z" fill="#F0F0F0"/>
<path d="M412.522 234.945C413.812 234.945 415.058 234.442 415.955 233.523C416.852 232.627 417.376 231.38 417.376 230.112C417.376 228.822 416.852 227.575 415.955 226.679C415.058 225.782 413.812 225.257 412.522 225.257C411.254 225.257 410.007 225.782 409.111 226.679C408.214 227.575 407.689 228.822 407.689 230.112C407.689 231.38 408.214 232.627 409.111 233.523C410.007 234.442 411.254 234.945 412.522 234.945ZM487.46 294.642C488.729 294.642 489.975 294.117 490.893 293.22C491.79 292.324 492.315 291.077 492.315 289.787C492.315 288.519 491.79 287.272 490.893 286.376C489.975 285.479 488.729 284.954 487.46 284.954C486.192 284.954 484.946 285.479 484.027 286.376C483.131 287.272 482.628 288.519 482.628 289.787C482.628 291.077 483.131 292.324 484.027 293.22C484.946 294.117 486.192 294.642 487.46 294.642ZM437.494 294.642H437.516C440.206 294.642 442.37 292.477 442.37 289.787C442.37 287.119 440.206 284.954 437.516 284.954H437.494C434.826 284.954 432.661 287.119 432.661 289.787C432.661 292.477 434.826 294.642 437.494 294.642ZM462.466 294.642H462.488C465.178 294.642 467.343 292.477 467.343 289.787C467.343 287.119 465.178 284.954 462.488 284.954H462.466C459.798 284.954 457.634 287.119 457.634 289.787C457.634 292.477 459.798 294.642 462.466 294.642ZM412.522 294.642C413.812 294.642 415.058 294.117 415.955 293.22C416.852 292.324 417.376 291.077 417.376 289.787C417.376 288.519 416.852 287.272 415.955 286.376C415.058 285.479 413.812 284.954 412.522 284.954C411.254 284.954 410.007 285.479 409.111 286.376C408.214 287.272 407.689 288.519 407.689 289.787C407.689 291.077 408.214 292.324 409.111 293.22C410.007 294.117 411.254 294.642 412.522 294.642ZM487.46 274.743C488.729 274.743 489.975 274.218 490.893 273.321C491.79 272.425 492.315 271.178 492.315 269.91C492.315 268.62 491.79 267.373 490.893 266.477C489.975 265.58 488.729 265.055 487.46 265.055C486.192 265.055 484.946 265.58 484.027 266.477C483.131 267.373 482.628 268.62 482.628 269.91C482.628 271.178 483.131 272.425 484.027 273.321C484.946 274.218 486.192 274.743 487.46 274.743ZM437.494 274.743H437.516C440.206 274.743 442.37 272.578 442.37 269.91C442.37 267.22 440.206 265.055 437.516 265.055H437.494C434.826 265.055 432.661 267.22 432.661 269.91C432.661 272.578 434.826 274.743 437.494 274.743ZM462.466 274.743H462.488C465.178 274.743 467.343 272.578 467.343 269.91C467.343 267.22 465.178 265.055 462.488 265.055H462.466C459.798 265.055 457.634 267.22 457.634 269.91C457.634 272.578 459.798 274.743 462.466 274.743ZM412.522 274.743C413.812 274.743 415.058 274.218 415.955 273.321C416.852 272.425 417.376 271.178 417.376 269.91C417.376 268.62 416.852 267.373 415.955 266.477C415.058 265.58 413.812 265.055 412.522 265.055C411.254 265.055 410.007 265.58 409.111 266.477C408.214 267.373 407.689 268.62 407.689 269.91C407.689 271.178 408.214 272.425 409.111 273.321C410.007 274.218 411.254 274.743 412.522 274.743ZM487.46 254.844C488.729 254.844 489.975 254.341 490.893 253.422C491.79 252.526 492.315 251.279 492.315 250.011C492.315 248.721 491.79 247.474 490.893 246.578C489.975 245.681 488.729 245.156 487.46 245.156C486.192 245.156 484.946 245.681 484.027 246.578C483.131 247.474 482.628 248.721 482.628 250.011C482.628 251.279 483.131 252.526 484.027 253.422C484.946 254.341 486.192 254.844 487.46 254.844ZM437.494 254.844H437.516C440.206 254.844 442.37 252.679 442.37 250.011C442.37 247.321 440.206 245.156 437.516 245.156H437.494C434.826 245.156 432.661 247.321 432.661 250.011C432.661 252.679 434.826 254.844 437.494 254.844ZM462.466 254.844H462.488C465.178 254.844 467.343 252.679 467.343 250.011C467.343 247.321 465.178 245.156 462.488 245.156H462.466C459.798 245.156 457.634 247.321 457.634 250.011C457.634 252.679 459.798 254.844 462.466 254.844ZM412.522 254.844C413.812 254.844 415.058 254.341 415.955 253.422C416.852 252.526 417.376 251.279 417.376 250.011C417.376 248.721 416.852 247.474 415.955 246.578C415.058 245.681 413.812 245.156 412.522 245.156C411.254 245.156 410.007 245.681 409.111 246.578C408.214 247.474 407.689 248.721 407.689 250.011C407.689 251.279 408.214 252.526 409.111 253.422C410.007 254.341 411.254 254.844 412.522 254.844ZM487.46 215.046C488.729 215.046 489.975 214.543 490.893 213.624C491.79 212.728 492.315 211.481 492.315 210.213C492.315 208.945 491.79 207.676 490.893 206.78C489.975 205.883 488.729 205.358 487.46 205.358C486.192 205.358 484.946 205.883 484.027 206.78C483.131 207.676 482.628 208.945 482.628 210.213C482.628 211.481 483.131 212.728 484.027 213.624C484.946 214.543 486.192 215.046 487.46 215.046ZM437.494 215.046H437.516C440.206 215.046 442.37 212.881 442.37 210.213C442.37 207.545 440.206 205.358 437.516 205.358H437.494C434.826 205.358 432.661 207.545 432.661 210.213C432.661 212.881 434.826 215.046 437.494 215.046ZM462.466 215.046H462.488C465.178 215.046 467.343 212.881 467.343 210.213C467.343 207.545 465.178 205.358 462.488 205.358H462.466C459.798 205.358 457.634 207.545 457.634 210.213C457.634 212.881 459.798 215.046 462.466 215.046ZM412.522 215.046C413.812 215.046 415.058 214.543 415.955 213.624C416.852 212.728 417.376 211.481 417.376 210.213C417.376 208.945 416.852 207.676 415.955 206.78C415.058 205.883 413.812 205.358 412.522 205.358C411.254 205.358 410.007 205.883 409.111 206.78C408.214 207.676 407.689 208.945 407.689 210.213C407.689 211.481 408.214 212.728 409.111 213.624C410.007 214.543 411.254 215.046 412.522 215.046ZM487.46 234.945C488.729 234.945 489.975 234.442 490.893 233.523C491.79 232.627 492.315 231.38 492.315 230.112C492.315 228.822 491.79 227.575 490.893 226.679C489.975 225.782 488.729 225.257 487.46 225.257C486.192 225.257 484.946 225.782 484.027 226.679C483.131 227.575 482.628 228.822 482.628 230.112C482.628 231.38 483.131 232.627 484.027 233.523C484.946 234.442 486.192 234.945 487.46 234.945ZM437.494 234.945H437.516C440.206 234.945 442.37 232.78 442.37 230.112C442.37 227.422 440.206 225.257 437.516 225.257H437.494C434.826 225.257 432.661 227.422 432.661 230.112C432.661 232.78 434.826 234.945 437.494 234.945ZM462.466 234.945H462.488C465.178 234.945 467.343 232.78 467.343 230.112C467.343 227.422 465.178 225.257 462.488 225.257H462.466C459.798 225.257 457.634 227.422 457.634 230.112C457.634 232.78 459.798 234.945 462.466 234.945Z" fill="#E8E8E8"/>
<path d="M799.984 399.997H699.986V299.999C755.222 299.999 799.984 344.783 799.984 399.997Z" fill="#E8E8E8"/>
<path d="M699.986 499.995V462.821C734.689 462.821 762.81 434.7 762.81 399.997H799.984C799.984 455.233 755.222 499.995 699.986 499.995Z" fill="#F6F6F6"/>
<path d="M199.996 200.001H299.994V299.999C244.78 299.999 199.996 255.237 199.996 200.001Z" fill="#F0F0F0"/>
<path d="M299.994 100.003V137.199C265.313 137.199 237.192 165.32 237.192 200.001H199.996C199.996 144.765 244.78 100.003 299.994 100.003Z" fill="#F6F6F6"/>
<path d="M112.528 134.946C113.818 134.946 115.064 134.444 115.961 133.525C116.857 132.629 117.382 131.382 117.382 130.114C117.382 128.824 116.857 127.577 115.961 126.681C115.064 125.784 113.818 125.259 112.528 125.259C111.26 125.259 110.013 125.784 109.117 126.681C108.198 127.577 107.695 128.824 107.695 130.114C107.695 131.382 108.198 132.629 109.117 133.525C110.013 134.444 111.26 134.946 112.528 134.946ZM187.466 194.644C188.734 194.644 189.981 194.119 190.899 193.222C191.796 192.326 192.299 191.079 192.299 189.789C192.299 188.521 191.796 187.274 190.899 186.378C189.981 185.481 188.734 184.956 187.466 184.956C186.198 184.956 184.93 185.481 184.033 186.378C183.137 187.274 182.612 188.521 182.612 189.789C182.612 191.079 183.137 192.326 184.033 193.222C184.93 194.119 186.198 194.644 187.466 194.644ZM137.5 194.644H137.522C140.19 194.644 142.376 192.479 142.376 189.789C142.376 187.121 140.19 184.956 137.522 184.956H137.5C134.832 184.956 132.645 187.121 132.645 189.789C132.645 192.479 134.832 194.644 137.5 194.644ZM162.472 194.644H162.494C165.184 194.644 167.348 192.479 167.348 189.789C167.348 187.121 165.184 184.956 162.494 184.956H162.472C159.804 184.956 157.64 187.121 157.64 189.789C157.64 192.479 159.804 194.644 162.472 194.644ZM112.528 194.644C113.818 194.644 115.064 194.119 115.961 193.222C116.857 192.326 117.382 191.079 117.382 189.789C117.382 188.521 116.857 187.274 115.961 186.378C115.064 185.481 113.818 184.956 112.528 184.956C111.26 184.956 110.013 185.481 109.117 186.378C108.198 187.274 107.695 188.521 107.695 189.789C107.695 191.079 108.198 192.326 109.117 193.222C110.013 194.119 111.26 194.644 112.528 194.644ZM187.466 174.744C188.734 174.744 189.981 174.22 190.899 173.323C191.796 172.427 192.299 171.18 192.299 169.912C192.299 168.622 191.796 167.375 190.899 166.479C189.981 165.582 188.734 165.057 187.466 165.057C186.198 165.057 184.93 165.582 184.033 166.479C183.137 167.375 182.612 168.622 182.612 169.912C182.612 171.18 183.137 172.427 184.033 173.323C184.93 174.22 186.198 174.744 187.466 174.744ZM137.5 174.744H137.522C140.19 174.744 142.376 172.58 142.376 169.912C142.376 167.222 140.19 165.057 137.522 165.057H137.5C134.832 165.057 132.645 167.222 132.645 169.912C132.645 172.58 134.832 174.744 137.5 174.744ZM162.472 174.744H162.494C165.184 174.744 167.348 172.58 167.348 169.912C167.348 167.222 165.184 165.057 162.494 165.057H162.472C159.804 165.057 157.64 167.222 157.64 169.912C157.64 172.58 159.804 174.744 162.472 174.744ZM112.528 174.744C113.818 174.744 115.064 174.22 115.961 173.323C116.857 172.427 117.382 171.18 117.382 169.912C117.382 168.622 116.857 167.375 115.961 166.479C115.064 165.582 113.818 165.057 112.528 165.057C111.26 165.057 110.013 165.582 109.117 166.479C108.198 167.375 107.695 168.622 107.695 169.912C107.695 171.18 108.198 172.427 109.117 173.323C110.013 174.22 111.26 174.744 112.528 174.744ZM187.466 154.845C188.734 154.845 189.981 154.321 190.899 153.424C191.796 152.528 192.299 151.281 192.299 150.013C192.299 148.723 191.796 147.476 190.899 146.58C189.981 145.683 188.734 145.158 187.466 145.158C186.198 145.158 184.93 145.683 184.033 146.58C183.137 147.476 182.612 148.723 182.612 150.013C182.612 151.281 183.137 152.528 184.033 153.424C184.93 154.321 186.198 154.845 187.466 154.845ZM137.5 154.845H137.522C140.19 154.845 142.376 152.681 142.376 150.013C142.376 147.323 140.19 145.158 137.522 145.158H137.5C134.832 145.158 132.645 147.323 132.645 150.013C132.645 152.681 134.832 154.845 137.5 154.845ZM162.472 154.845H162.494C165.184 154.845 167.348 152.681 167.348 150.013C167.348 147.323 165.184 145.158 162.494 145.158H162.472C159.804 145.158 157.64 147.323 157.64 150.013C157.64 152.681 159.804 154.845 162.472 154.845ZM112.528 154.845C113.818 154.845 115.064 154.321 115.961 153.424C116.857 152.528 117.382 151.281 117.382 150.013C117.382 148.723 116.857 147.476 115.961 146.58C115.064 145.683 113.818 145.158 112.528 145.158C111.26 145.158 110.013 145.683 109.117 146.58C108.198 147.476 107.695 148.723 107.695 150.013C107.695 151.281 108.198 152.528 109.117 153.424C110.013 154.321 111.26 154.845 112.528 154.845ZM187.466 115.047C188.734 115.047 189.981 114.545 190.899 113.626C191.796 112.73 192.299 111.483 192.299 110.215C192.299 108.925 191.796 107.678 190.899 106.782C189.981 105.885 188.734 105.36 187.466 105.36C186.198 105.36 184.93 105.885 184.033 106.782C183.137 107.678 182.612 108.925 182.612 110.215C182.612 111.483 183.137 112.73 184.033 113.626C184.93 114.545 186.198 115.047 187.466 115.047ZM137.5 115.047H137.522C140.19 115.047 142.376 112.883 142.376 110.215C142.376 107.525 140.19 105.36 137.522 105.36H137.5C134.832 105.36 132.645 107.525 132.645 110.215C132.645 112.883 134.832 115.047 137.5 115.047ZM162.472 115.047H162.494C165.184 115.047 167.348 112.883 167.348 110.215C167.348 107.525 165.184 105.36 162.494 105.36H162.472C159.804 105.36 157.64 107.525 157.64 110.215C157.64 112.883 159.804 115.047 162.472 115.047ZM112.528 115.047C113.818 115.047 115.064 114.545 115.961 113.626C116.857 112.73 117.382 111.483 117.382 110.215C117.382 108.925 116.857 107.678 115.961 106.782C115.064 105.885 113.818 105.36 112.528 105.36C111.26 105.36 110.013 105.885 109.117 106.782C108.198 107.678 107.695 108.925 107.695 110.215C107.695 111.483 108.198 112.73 109.117 113.626C110.013 114.545 111.26 115.047 112.528 115.047ZM187.466 134.946C188.734 134.946 189.981 134.444 190.899 133.525C191.796 132.629 192.299 131.382 192.299 130.114C192.299 128.824 191.796 127.577 190.899 126.681C189.981 125.784 188.734 125.259 187.466 125.259C186.198 125.259 184.93 125.784 184.033 126.681C183.137 127.577 182.612 128.824 182.612 130.114C182.612 131.382 183.137 132.629 184.033 133.525C184.93 134.444 186.198 134.946 187.466 134.946ZM137.5 134.946H137.522C140.19 134.946 142.376 132.782 142.376 130.114C142.376 127.424 140.19 125.259 137.522 125.259H137.5C134.832 125.259 132.645 127.424 132.645 130.114C132.645 132.782 134.832 134.946 137.5 134.946ZM162.472 134.946H162.494C165.184 134.946 167.348 132.782 167.348 130.114C167.348 127.424 165.184 125.259 162.494 125.259H162.472C159.804 125.259 157.64 127.424 157.64 130.114C157.64 132.782 159.804 134.946 162.472 134.946Z" fill="#E8E8E8"/>
<path fill-rule="evenodd" clip-rule="evenodd" d="M99.998 150.013C99.998 177.609 77.6062 200.001 50.0099 200.001C22.3919 200.001 0 177.609 0 150.013C0 122.395 22.3919 100.003 50.0099 100.003C77.6062 100.003 99.998 122.395 99.998 150.013ZM52.3716 153.949C52.3716 157.426 49.5507 160.247 46.052 160.247C42.5751 160.247 39.7543 157.426 39.7543 153.949C39.7543 150.45 42.5751 147.629 46.052 147.629C49.5507 147.629 52.3716 150.45 52.3716 153.949Z" fill="#F0F0F0"/>
<path d="M899.982 200.001H862.808C862.808 165.32 834.687 137.199 799.984 137.199V100.003C855.22 100.003 899.982 144.765 899.982 200.001Z" fill="#E8E8E8"/>
<path fill-rule="evenodd" clip-rule="evenodd" d="M899.982 250.011C899.982 277.629 877.612 299.999 849.994 299.999C822.376 299.999 799.984 277.629 799.984 250.011C799.984 222.393 822.376 200.001 849.994 200.001C877.612 200.001 899.982 222.393 899.982 250.011ZM852.378 253.947C852.378 257.424 849.535 260.267 846.058 260.267C842.559 260.267 839.738 257.424 839.738 253.947C839.738 250.448 842.559 247.627 846.058 247.627C849.535 247.627 852.378 250.448 852.378 253.947Z" fill="#F6F6F6"/>
<path d="M912.534 234.945C913.802 234.945 915.049 234.442 915.945 233.523C916.864 232.627 917.367 231.38 917.367 230.112C917.367 228.822 916.864 227.575 915.945 226.679C915.049 225.782 913.802 225.257 912.534 225.257C911.244 225.257 909.997 225.782 909.101 226.679C908.204 227.575 907.679 228.822 907.679 230.112C907.679 231.38 908.204 232.627 909.101 233.523C909.997 234.442 911.244 234.945 912.534 234.945ZM987.45 294.642C988.741 294.642 989.987 294.117 990.884 293.22C991.78 292.324 992.305 291.077 992.305 289.787C992.305 288.519 991.78 287.272 990.884 286.376C989.987 285.479 988.741 284.954 987.45 284.954C986.182 284.954 984.936 285.479 984.039 286.376C983.121 287.272 982.618 288.519 982.618 289.787C982.618 291.077 983.121 292.324 984.039 293.22C984.936 294.117 986.182 294.642 987.45 294.642ZM937.484 294.642H937.506C940.196 294.642 942.361 292.477 942.361 289.787C942.361 287.119 940.196 284.954 937.506 284.954H937.484C934.816 284.954 932.652 287.119 932.652 289.787C932.652 292.477 934.816 294.642 937.484 294.642ZM962.456 294.642H962.5C965.168 294.642 967.333 292.477 967.333 289.787C967.333 287.119 965.168 284.954 962.5 284.954H962.456C959.789 284.954 957.624 287.119 957.624 289.787C957.624 292.477 959.789 294.642 962.456 294.642ZM912.534 294.642C913.802 294.642 915.049 294.117 915.945 293.22C916.864 292.324 917.367 291.077 917.367 289.787C917.367 288.519 916.864 287.272 915.945 286.376C915.049 285.479 913.802 284.954 912.534 284.954C911.244 284.954 909.997 285.479 909.101 286.376C908.204 287.272 907.679 288.519 907.679 289.787C907.679 291.077 908.204 292.324 909.101 293.22C909.997 294.117 911.244 294.642 912.534 294.642ZM987.45 274.743C988.741 274.743 989.987 274.218 990.884 273.321C991.78 272.425 992.305 271.178 992.305 269.91C992.305 268.62 991.78 267.373 990.884 266.477C989.987 265.58 988.741 265.055 987.45 265.055C986.182 265.055 984.936 265.58 984.039 266.477C983.121 267.373 982.618 268.62 982.618 269.91C982.618 271.178 983.121 272.425 984.039 273.321C984.936 274.218 986.182 274.743 987.45 274.743ZM937.484 274.743H937.506C940.196 274.743 942.361 272.578 942.361 269.91C942.361 267.22 940.196 265.055 937.506 265.055H937.484C934.816 265.055 932.652 267.22 932.652 269.91C932.652 272.578 934.816 274.743 937.484 274.743ZM962.456 274.743H962.5C965.168 274.743 967.333 272.578 967.333 269.91C967.333 267.22 965.168 265.055 962.5 265.055H962.456C959.789 265.055 957.624 267.22 957.624 269.91C957.624 272.578 959.789 274.743 962.456 274.743ZM912.534 274.743C913.802 274.743 915.049 274.218 915.945 273.321C916.864 272.425 917.367 271.178 917.367 269.91C917.367 268.62 916.864 267.373 915.945 266.477C915.049 265.58 913.802 265.055 912.534 265.055C911.244 265.055 909.997 265.58 909.101 266.477C908.204 267.373 907.679 268.62 907.679 269.91C907.679 271.178 908.204 272.425 909.101 273.321C909.997 274.218 911.244 274.743 912.534 274.743ZM987.45 254.844C988.741 254.844 989.987 254.341 990.884 253.422C991.78 252.526 992.305 251.279 992.305 250.011C992.305 248.721 991.78 247.474 990.884 246.578C989.987 245.681 988.741 245.156 987.45 245.156C986.182 245.156 984.936 245.681 984.039 246.578C983.121 247.474 982.618 248.721 982.618 250.011C982.618 251.279 983.121 252.526 984.039 253.422C984.936 254.341 986.182 254.844 987.45 254.844ZM937.484 254.844H937.506C940.196 254.844 942.361 252.679 942.361 250.011C942.361 247.321 940.196 245.156 937.506 245.156H937.484C934.816 245.156 932.652 247.321 932.652 250.011C932.652 252.679 934.816 254.844 937.484 254.844ZM962.456 254.844H962.5C965.168 254.844 967.333 252.679 967.333 250.011C967.333 247.321 965.168 245.156 962.5 245.156H962.456C959.789 245.156 957.624 247.321 957.624 250.011C957.624 252.679 959.789 254.844 962.456 254.844ZM912.534 254.844C913.802 254.844 915.049 254.341 915.945 253.422C916.864 252.526 917.367 251.279 917.367 250.011C917.367 248.721 916.864 247.474 915.945 246.578C915.049 245.681 913.802 245.156 912.534 245.156C911.244 245.156 909.997 245.681 909.101 246.578C908.204 247.474 907.679 248.721 907.679 250.011C907.679 251.279 908.204 252.526 909.101 253.422C909.997 254.341 911.244 254.844 912.534 254.844ZM987.45 215.046C988.741 215.046 989.987 214.543 990.884 213.624C991.78 212.728 992.305 211.481 992.305 210.213C992.305 208.945 991.78 207.676 990.884 206.78C989.987 205.883 988.741 205.358 987.45 205.358C986.182 205.358 984.936 205.883 984.039 206.78C983.121 207.676 982.618 208.945 982.618 210.213C982.618 211.481 983.121 212.728 984.039 213.624C984.936 214.543 986.182 215.046 987.45 215.046ZM937.484 215.046H937.506C940.196 215.046 942.361 212.881 942.361 210.213C942.361 207.545 940.196 205.358 937.506 205.358H937.484C934.816 205.358 932.652 207.545 932.652 210.213C932.652 212.881 934.816 215.046 937.484 215.046ZM962.456 215.046H962.5C965.168 215.046 967.333 212.881 967.333 210.213C967.333 207.545 965.168 205.358 962.5 205.358H962.456C959.789 205.358 957.624 207.545 957.624 210.213C957.624 212.881 959.789 215.046 962.456 215.046ZM912.534 215.046C913.802 215.046 915.049 214.543 915.945 213.624C916.864 212.728 917.367 211.481 917.367 210.213C917.367 208.945 916.864 207.676 915.945 206.78C915.049 205.883 913.802 205.358 912.534 205.358C911.244 205.358 909.997 205.883 909.101 206.78C908.204 207.676 907.679 208.945 907.679 210.213C907.679 211.481 908.204 212.728 909.101 213.624C909.997 214.543 911.244 215.046 912.534 215.046ZM987.45 234.945C988.741 234.945 989.987 234.442 990.884 233.523C991.78 232.627 992.305 231.38 992.305 230.112C992.305 228.822 991.78 227.575 990.884 226.679C989.987 225.782 988.741 225.257 987.45 225.257C986.182 225.257 984.936 225.782 984.039 226.679C983.121 227.575 982.618 228.822 982.618 230.112C982.618 231.38 983.121 232.627 984.039 233.523C984.936 234.442 986.182 234.945 987.45 234.945ZM937.484 234.945H937.506C940.196 234.945 942.361 232.78 942.361 230.112C942.361 227.422 940.196 225.257 937.506 225.257H937.484C934.816 225.257 932.652 227.422 932.652 230.112C932.652 232.78 934.816 234.945 937.484 234.945ZM962.456 234.945H962.5C965.168 234.945 967.333 232.78 967.333 230.112C967.333 227.422 965.168 225.257 962.5 225.257H962.456C959.789 225.257 957.624 227.422 957.624 230.112C957.624 232.78 959.789 234.945 962.456 234.945Z" fill="#F0F0F0"/>
<path d="M1100 200.001H999.98V100.003C1055.22 100.003 1100 144.765 1100 200.001Z" fill="#E8E8E8"/>
</g>
<defs>
<clipPath id="clip0_52_106">
<rect width="1100" height="500" fill="white"/>
</clipPath>
</defs>
</svg>
