<svg width="169" height="80" viewBox="0 0 169 80" fill="none" xmlns="http://www.w3.org/2000/svg">
<path id="muzej-savremene-umjetnosti-republike-srpske-banja-luka-logo" d="M76.669 64.0628C76.669 64.1719 76.6491 64.3108 76.5797 64.4927L74.4603 71.3536H74.4404C74.49 69.7929 74.49 68.9994 74.49 68.3976V65.7888C74.49 64.5489 74.5694 64.4232 75.2207 64.3406V63.881H72.4599V64.3406C73.1608 64.4232 73.2402 64.5621 73.2402 65.8186V70.9237C73.2402 72.1637 73.1608 72.2893 72.4698 72.372V72.8316H74.619V72.6663C74.619 72.4976 74.619 72.329 74.6917 72.1075L76.8112 65.2201H76.8376C76.788 66.6948 76.788 67.3924 76.788 67.8553V70.9502C76.788 72.1769 76.7186 72.2893 76.0606 72.372V72.8316H78.8083V72.372C78.1073 72.2893 78.0379 72.1769 78.0379 70.9502V65.7061C78.0379 64.5356 78.1172 64.4232 78.8083 64.3406V63.881H76.669V64.0628ZM134.188 13.6458C133.844 16.0132 133.084 17.8285 132.099 17.6003C131.07 17.3623 130.998 15.7223 131.338 13.3515C131.679 10.9808 132.492 9.27795 133.444 9.41682C134.4 9.55239 134.569 11.0436 134.188 13.6458ZM133.577 8.80513H133.567C131.695 8.51085 130.419 10.7989 130.059 13.0903C129.635 15.7752 130.386 17.9244 132.006 18.179C133.537 18.4203 134.998 16.8068 135.465 13.8541C135.904 11.0568 135.058 9.03658 133.577 8.80513ZM109.099 15.8148L109.023 10.3393C109.006 9.21513 109.033 9.12916 109.73 9.02996V8.56045H107.922L106.318 14.608L104.754 8.56045H102.926V9.02996C103.66 9.12916 103.706 9.31432 103.64 10.8518L103.508 13.8806C103.441 15.2031 103.375 16.0165 103.329 16.4563C103.273 16.9556 103.141 17.154 102.641 17.2234V17.6929H104.714V17.2234C104.133 17.154 103.961 16.9952 103.924 16.3406C103.894 15.9306 103.904 15.2461 103.934 14.0657L104.037 10.4253H104.073L105.753 17.5673H106.044L107.875 10.2401H107.912V15.8148C107.922 17.0812 107.882 17.1242 107.251 17.2234V17.6929H109.806V17.2234C109.165 17.111 109.119 17.068 109.099 15.8148ZM110.388 9.02996C111.04 9.12916 111.106 9.22835 111.106 10.4088V15.1172C111.106 16.3273 111.086 17.2664 110.993 18.0203C110.907 18.7477 110.653 19.2436 110.203 19.5313L110.326 20.0141C110.702 19.8851 111.106 19.6007 111.437 19.1874C112.2 18.2385 112.313 16.8961 112.313 15.2627V10.4088C112.313 9.22835 112.369 9.12916 112.974 9.02996V8.56045H110.388V9.02996ZM94.2329 16.6679C94.0346 17.025 93.7601 17.1242 93.2608 17.1242C92.9203 17.1242 92.6657 17.0977 92.5235 16.982C92.3747 16.8531 92.3284 16.5423 92.3284 15.8744V13.2986H92.8674C93.6179 13.2986 93.694 13.3548 93.8362 14.3633H94.1569V11.5759H93.8362C93.694 12.5745 93.608 12.6307 92.8674 12.6307H92.3284V9.64166C92.3284 9.17214 92.3648 9.13247 92.6558 9.13247H92.9963C93.5716 9.13247 93.8163 9.25811 93.9486 9.51271C94.0908 9.75408 94.1867 10.1409 94.2792 10.6534L94.6 10.5807C94.5603 9.78384 94.514 8.78859 94.5041 8.56045H90.4437V9.01674C91.0356 9.10271 91.1182 9.18867 91.1182 10.3393V15.8876C91.1182 17.0548 91.0356 17.1242 90.3379 17.2234V17.6929H94.7223C94.7983 17.2961 94.967 16.0298 95.0232 15.4743L94.7025 15.3619C94.5537 15.9735 94.3917 16.3869 94.2329 16.6679ZM100.578 9.02996L100.915 9.14238C101.19 9.24158 101.216 9.41682 101.094 9.99545C100.813 11.3511 100.519 12.4885 100.218 13.7516L99.1232 9.78384C99.0108 9.38706 99.0306 9.22835 99.2092 9.14238L99.5035 9.02996V8.56045H96.9938V9.02996C97.5592 9.15892 97.6618 9.32755 97.8238 9.86981C98.042 10.5807 99.0769 14.1385 99.2952 14.8758C99.434 15.3751 99.5035 15.6892 99.5035 15.9306C99.5035 16.4563 99.2489 16.9126 99.0306 16.9126C98.8984 16.9126 98.7397 16.7969 98.6074 16.6679C98.3991 16.486 98.2305 16.4695 98.0883 16.6117C97.966 16.7109 97.8701 16.939 97.8701 17.2102C97.8634 17.7094 98.2106 18.0368 98.5479 18.0368C99.0306 18.0368 99.5398 17.6499 100.075 15.7454C100.38 14.6774 101.18 11.5462 101.501 10.3823C101.775 9.38706 101.868 9.18537 102.489 9.02996V8.56045H100.578V9.02996ZM82.6471 16.6679C82.4487 17.025 82.1743 17.1242 81.675 17.1242C81.3344 17.1242 81.0831 17.0977 80.9409 16.982C80.7888 16.8531 80.7393 16.5423 80.7393 15.8744V13.2986H81.2782C82.0321 13.2986 82.1081 13.3548 82.2503 14.3633H82.571V11.5759H82.2503C82.1081 12.5745 82.0222 12.6307 81.2782 12.6307H80.7393V9.64166C80.7393 9.17214 80.7789 9.13247 81.0732 9.13247H81.4105C81.9858 9.13247 82.2305 9.25811 82.3627 9.51271C82.5049 9.75408 82.6008 10.1409 82.6934 10.6534L83.0141 10.5807C82.9777 9.78384 82.9281 8.78859 82.9182 8.56045H78.8579V9.01674C79.4497 9.10271 79.5357 9.18867 79.5357 10.3393V15.8876C79.5357 17.0548 79.4497 17.1242 78.7521 17.2234V17.6929H83.1364C83.2125 17.2961 83.3811 16.0298 83.4373 15.4743L83.1166 15.3619C82.9678 15.9735 82.8058 16.3869 82.6471 16.6679ZM117.309 16.6679C117.11 17.025 116.839 17.1242 116.34 17.1242C115.999 17.1242 115.745 17.0977 115.606 16.982C115.454 16.8531 115.404 16.5423 115.404 15.8744V13.2986H115.943C116.697 13.2986 116.773 13.3548 116.915 14.3633H117.236V11.5759H116.915C116.773 12.5745 116.687 12.6307 115.943 12.6307H115.404V9.64166C115.404 9.17214 115.444 9.13247 115.735 9.13247H116.075C116.651 9.13247 116.895 9.25811 117.028 9.51271C117.167 9.75408 117.262 10.1409 117.355 10.6534L117.679 10.5807C117.643 9.78384 117.593 8.78859 117.583 8.56045H113.52V9.01674C114.115 9.10271 114.201 9.18867 114.201 10.3393V15.8876C114.201 17.0548 114.115 17.1242 113.417 17.2234V17.6929H117.801C117.877 17.2961 118.046 16.0298 118.102 15.4743L117.782 15.3619C117.633 15.9735 117.471 16.3869 117.309 16.6679ZM127.122 9.02996C127.737 9.11593 127.813 9.21513 127.813 10.3526V12.4885H125.711V10.3526C125.711 9.21513 125.787 9.11593 126.369 9.02996V8.56045H123.76V9.02996C124.418 9.11593 124.504 9.21513 124.504 10.3526V15.9008C124.504 17.0382 124.418 17.1374 123.786 17.2234V17.6929H126.398V17.2234C125.787 17.1374 125.711 17.0382 125.711 15.9008V13.1829H127.813V15.9008C127.813 17.025 127.737 17.1374 127.096 17.2234V17.6929H129.725V17.2234C129.093 17.1242 129.02 17.0118 129.02 15.8876V10.3526C129.02 9.21513 129.086 9.11593 129.744 9.02996V8.56045H127.122V9.02996ZM141.787 20.7183L145.774 15.299L146.115 15.5503C146.419 15.7752 146.568 15.9702 146.538 16.2513C146.508 16.529 146.34 16.9357 145.999 17.5673L146.277 17.7194C146.75 17.0085 147.394 16.0694 147.732 15.5933L147.543 15.4544C147.279 15.5933 147.13 15.59 146.945 15.4544L144.319 13.5235C144.114 13.3714 144.061 13.2656 144.124 12.9382L143.942 12.806C143.516 13.3714 142.898 14.1186 142.309 14.8527L142.567 15.0444C143.013 14.6113 143.367 14.2906 143.618 14.1715C143.893 14.036 144.111 14.0756 144.528 14.3831L144.802 14.5848L140.814 20.0041C140.123 20.9432 140.001 20.9961 139.376 20.639L139.095 21.0192L141.35 22.6758L141.631 22.2988C141.082 21.7863 141.096 21.6574 141.787 20.7183ZM151.164 20.8109L151.018 20.9266C150.929 20.9994 150.807 21.0721 150.621 21.1349L143.896 23.9223L143.883 23.9091C145.162 22.9568 145.797 22.4509 146.277 22.0707L148.36 20.4174C149.352 19.6272 149.497 19.6074 149.944 20.0339L150.314 19.7429L148.694 17.7028L148.327 17.9971C148.671 18.5658 148.605 18.7146 147.603 19.5115L143.526 22.7485C142.537 23.5354 142.388 23.5586 141.916 23.099L141.549 23.39L142.808 24.9804L142.944 24.8746C143.079 24.7688 143.212 24.6596 143.43 24.5704L150.175 21.7665L150.195 21.7896C148.985 22.689 148.426 23.1321 148.059 23.423L145.586 25.3871C144.604 26.1641 144.475 26.1839 144.022 25.7508L143.655 26.045L145.265 28.0719L145.635 27.7809C145.288 27.2089 145.338 27.0866 146.32 26.3096L150.506 22.9833C151.441 22.2393 151.577 22.2294 152.05 22.6857L152.417 22.3947L151.164 20.8109ZM77.565 15.8148L77.489 10.3393C77.4725 9.21513 77.4989 9.12916 78.1966 9.02996V8.56045H76.3846L74.7843 14.608L73.2203 8.56045H71.3886V9.02996C72.1259 9.12916 72.1722 9.31432 72.1061 10.8518L71.9738 13.8806C71.9077 15.2031 71.8448 16.0165 71.7952 16.4563C71.739 16.9556 71.6068 17.154 71.1075 17.2234V17.6929H73.1807V17.2234C72.5954 17.154 72.4268 16.9952 72.3871 16.3406C72.3607 15.9306 72.3706 15.2461 72.397 14.0657L72.5028 10.4253H72.5425L74.2189 17.5673H74.5099L76.3383 10.2401H76.378V15.8148C76.3846 17.0812 76.3483 17.1242 75.72 17.2234V17.6929H78.2726V17.2234C77.6312 17.111 77.5849 17.068 77.565 15.8148ZM122.966 8.20335C122.834 8.47778 122.712 8.56045 122.487 8.56045H119.223C118.969 8.56045 118.866 8.50424 118.724 8.20335H118.499C118.489 8.91754 118.433 9.88303 118.393 10.8221H118.714C118.82 10.2104 118.912 9.74086 119.045 9.49948C119.187 9.22835 119.385 9.12916 119.904 9.12916H120.242V15.8578C120.242 17.025 120.175 17.1374 119.461 17.2234V17.6929H122.259V17.2234C121.515 17.1374 121.448 17.025 121.448 15.8578V9.12916H121.872C122.249 9.12916 122.487 9.2019 122.629 9.44327C122.768 9.68465 122.874 10.1112 122.976 10.8221L123.287 10.7791C123.251 9.92602 123.211 8.78859 123.201 8.20335H122.966ZM139.528 18.4732C138.619 19.442 137.862 19.9281 137.26 19.6371C136.334 19.1907 136.407 17.2829 137.518 14.9783C138.44 13.0672 139.885 11.6355 140.838 12.0918C141.396 12.3629 141.671 13.0308 141.267 14.5617L141.608 14.5981C141.889 13.8806 142.134 13.2722 142.405 12.5514C142.216 12.3794 141.79 11.9198 141.254 11.6619C139.446 10.789 137.422 12.0554 136.172 14.641C135.21 16.6415 134.932 19.1643 136.919 20.1232C137.439 20.3745 138.173 20.4571 138.427 20.4703C138.761 20.1099 139.376 19.2866 139.74 18.7642L139.528 18.4732ZM87.1703 9.02996C87.7853 9.11593 87.8614 9.21513 87.8614 10.3526V12.4885H85.7552V10.3526C85.7552 9.21513 85.8312 9.11593 86.4165 9.02996V8.56045H83.8076V9.02996C84.4656 9.11593 84.5516 9.21513 84.5516 10.3526V15.9008C84.5516 17.0382 84.4656 17.1374 83.8341 17.2234V17.6929H86.4462V17.2234C85.8312 17.1374 85.7552 17.0382 85.7552 15.9008V13.1829H87.8614V15.9008C87.8614 17.025 87.7853 17.1374 87.1439 17.2234V17.6929H89.7725V17.2234C89.141 17.1242 89.0682 17.0118 89.0682 15.8876V10.3526C89.0682 9.21513 89.1344 9.11593 89.7924 9.02996V8.56045H87.1703V9.02996ZM29.6808 16.1653L29.6411 16.0926C29.8527 15.8314 29.9916 15.5139 30.0908 15.1568C30.1767 14.8196 30.1503 14.2509 29.8395 13.6756C29.2344 12.548 28.2788 12.0422 27.1513 12.6472C26.8008 12.839 26.4735 13.2226 26.3644 13.3614C26.2222 13.5499 26.1329 13.6656 26.0304 13.8144C26.2156 14.2178 26.6024 15.0577 26.8074 15.5801L27.1348 15.5305C26.8405 14.608 26.6487 13.5466 27.1877 13.2589C27.6605 13.0043 28.2854 13.4276 28.8575 14.4956C29.3534 15.4214 29.2278 16.0198 28.9699 16.1752C28.7682 16.3009 28.5433 16.2447 28.2887 16.3802C28.0639 16.4993 28.0308 16.7605 28.173 17.025C28.302 17.2631 28.5433 17.392 28.7649 17.273C29.0062 17.1407 29.0889 16.9357 29.2873 16.8299C29.7271 16.5919 30.4611 17.1044 31.0827 18.255C31.8234 19.6338 31.6481 20.4042 31.2183 20.6191C30.838 20.8076 30.3652 20.6257 29.7271 20.0008C29.4923 19.8024 29.2741 19.6933 29.1253 19.776C28.9765 19.8553 28.917 20.143 29.1054 20.4935C29.2873 20.8341 29.6345 21.1019 29.9684 21.2441C30.4346 21.4292 31.0166 21.3598 31.4663 21.1184C32.5177 20.553 33.1393 19.2337 32.2135 17.5177C31.4861 16.162 30.5338 15.9173 29.6808 16.1653ZM24.6582 16.2447C24.159 15.342 24.0862 15.1337 24.4235 14.5848L24.0961 14.2509L22.7273 15.5867L23.0546 15.924L23.3753 15.7685C23.6432 15.6495 23.782 15.752 24.1028 16.2546C24.8434 17.4185 25.4286 18.4369 26.0966 19.5545L22.5421 17.478C22.185 17.273 22.0891 17.1473 22.1552 16.9589L22.2842 16.6745L21.9569 16.3373L20.1647 18.0897L20.4921 18.4269C20.9848 18.1228 21.1765 18.1723 21.6692 18.4468C22.3239 18.8039 25.5477 20.6257 26.2222 21.0027C26.6719 21.2606 26.9364 21.4391 27.105 21.6111C27.4754 21.988 27.6076 22.4906 27.4522 22.6427C27.3596 22.7353 27.1645 22.765 26.9827 22.765C26.7049 22.7783 26.5727 22.8874 26.5694 23.0858C26.5528 23.2445 26.6454 23.4726 26.8339 23.6644C27.1745 24.0281 27.6539 24.0215 27.8953 23.7834C28.2425 23.4495 28.335 22.8146 27.3894 21.0754C26.8603 20.1033 25.2435 17.3027 24.6582 16.2447ZM51.1794 14.0657C51.4043 13.0407 51.5927 12.0322 51.8374 10.9775H51.8672L52.4987 14.0657H51.1794ZM54.1189 15.7322C53.5435 13.2821 53.0443 10.8518 52.4789 8.37528L52.0358 8.54722L50.2635 15.9008C49.999 16.982 49.8568 17.1374 49.3311 17.2234V17.6929H51.2819V17.2234C50.6504 17.0977 50.6107 16.9258 50.7529 16.1719C50.8554 15.6164 50.9612 15.1469 51.0372 14.7931H52.6574C52.7731 15.2594 52.8756 15.8314 52.9682 16.2546C53.1203 16.9523 53.074 17.1242 52.5615 17.2234V17.6929H55.0447V17.2234C54.5256 17.1374 54.4098 16.9688 54.1189 15.7322ZM40.278 9.68465L40.2482 9.21513L37.6692 9.38045L37.699 9.84997C38.3536 9.90618 38.4297 10.0021 38.5024 11.1792L38.8033 15.8777C38.8827 17.0878 38.9223 18.0236 38.8794 18.784C38.8397 19.5148 38.6181 20.0273 38.185 20.3381L38.3371 20.8142C38.7074 20.6621 39.0943 20.3513 39.3952 19.9182C40.0961 18.9196 40.1226 17.5772 40.0168 15.9438L39.706 11.1031C39.6332 9.92271 39.6828 9.82021 40.278 9.68465ZM47.2183 17.2961C46.19 17.2961 45.4295 15.5437 45.4295 12.9845C45.4295 10.8651 46.104 8.9473 47.1621 8.9473C47.7837 8.9473 48.3226 9.42674 48.6235 10.9775L48.9409 10.8651C48.8847 10.098 48.8384 9.44327 48.7756 8.67287C48.5276 8.60343 47.9457 8.37528 47.3505 8.37528C45.3435 8.37528 44.0705 10.3955 44.0705 13.2689C44.0705 15.4875 44.917 17.8814 47.1257 17.8814C47.6977 17.8814 48.3987 17.6367 48.6334 17.5375C48.7756 17.068 48.9707 16.0562 49.0732 15.4313L48.7558 15.2627C48.359 16.529 47.8862 17.2961 47.2183 17.2961ZM63.3671 13.4838C63.1885 13.4838 63.0563 13.4243 62.9339 13.3548V9.67142C62.9339 9.44327 62.9538 9.28456 63.0298 9.2019C63.086 9.14569 63.1687 9.08948 63.3274 9.08948C63.8101 9.08948 64.3656 9.58545 64.3656 11.2354C64.3656 13.1564 63.6415 13.4838 63.3671 13.4838ZM64.9773 9.08948C64.6103 8.71585 64.1408 8.56045 63.4233 8.56045H61.0955V9.02996C61.6808 9.14569 61.7469 9.24489 61.7469 10.4088V15.9008C61.7469 17.068 61.6808 17.1969 61.0492 17.2796V17.6929H63.7142V17.2796C62.9901 17.1969 62.9339 17.068 62.9339 15.9008V13.8938L63.4795 14.1219C63.5754 14.1219 63.668 14.1219 63.8101 14.0955C64.7988 13.9103 65.6584 13.0275 65.6584 11.1759C65.6584 10.2401 65.4038 9.51602 64.9773 9.08948ZM37.1236 16.1124C37.1335 16.744 37.0839 17.1837 37.0013 17.4978C36.9021 17.8913 36.664 18.0599 36.178 18.1889C35.8506 18.2715 35.596 18.3112 35.4307 18.2385C35.2522 18.1525 35.1265 17.8615 34.9579 17.2168L34.2999 14.727L34.819 14.5881C35.5464 14.3964 35.6324 14.4327 36.0292 15.3718L36.34 15.2891L35.6258 12.5943L35.315 12.677C35.434 13.6756 35.3679 13.7516 34.6471 13.9434L34.1247 14.0789L33.3642 11.1924C33.2418 10.7394 33.2683 10.6898 33.5526 10.6138L33.88 10.5245C34.4355 10.379 34.7066 10.4418 34.8984 10.6534C35.0968 10.8518 35.2852 11.199 35.5101 11.6685L35.801 11.5197C35.5597 10.7559 35.2588 9.80698 35.1926 9.58876L31.2646 10.6303L31.3803 11.0667C31.9755 11.0006 32.0813 11.0601 32.3755 12.1744L33.794 17.5375C34.0916 18.665 34.0288 18.7543 33.3807 19.0287L33.4997 19.485L37.7353 18.3641C37.7089 17.9607 37.5469 16.6911 37.4609 16.1422L37.1236 16.1124ZM70.0792 16.6679C69.8808 17.025 69.6097 17.1242 69.1071 17.1242C68.7698 17.1242 68.5152 17.0977 68.3731 16.982C68.2243 16.8531 68.1747 16.5423 68.1747 15.8744V13.2986H68.7136C69.4675 13.2986 69.5435 13.3548 69.6824 14.3633H70.0031V11.5759H69.6824C69.5435 12.5745 69.4576 12.6307 68.7136 12.6307H68.1747V9.64166C68.1747 9.17214 68.2143 9.13247 68.5053 9.13247H68.8426C69.4179 9.13247 69.6659 9.25811 69.7981 9.51271C69.937 9.75408 70.0329 10.1409 70.1255 10.6534L70.4495 10.5807C70.4098 9.78384 70.3635 8.78859 70.3536 8.56045H66.29V9.01674C66.8851 9.10271 66.9678 9.18867 66.9678 10.3393V15.8876C66.9678 17.0548 66.8851 17.1242 66.1842 17.2234V17.6929H70.5686C70.6446 17.2961 70.8165 16.0298 70.8694 15.4743L70.552 15.3619C70.3999 15.9735 70.2379 16.3869 70.0792 16.6679ZM24.3507 24.5571L19.7349 21.6111C18.786 21.006 18.7297 20.9366 19.0306 20.2984L18.6372 20.0405L17.6419 21.5549L21.8114 26.217L15.8994 24.1967L14.8942 25.7276L15.2877 25.9822C15.7738 25.4267 15.9556 25.4863 17.2022 26.3889L19.6589 28.1645C20.7268 28.9448 21.3683 29.4474 21.7122 29.7285C22.0957 30.0492 22.1883 30.2707 21.9734 30.727L22.3669 30.9849L23.5076 29.2523L23.1141 28.9944C22.7339 29.4441 22.509 29.497 21.9436 29.1697C21.5832 28.968 21.0178 28.5844 20.049 27.9132L17.0633 25.8202L17.0831 25.7905L23.9705 28.3166L24.1325 28.0719L19.0174 22.5137L19.0406 22.484L23.6961 25.5524C24.7574 26.2368 24.774 26.293 24.5094 26.875L24.9029 27.1329L26.3082 25.0002L25.9147 24.7423C25.4683 25.2151 25.4055 25.2317 24.3507 24.5571ZM57.9841 17.1242C57.5311 17.1242 57.3824 16.8398 57.3824 15.8578V13.1432H57.5708C58.5132 13.1432 59.0224 13.7946 59.0224 15.1039C59.0224 16.5555 58.4636 17.1242 57.9841 17.1242ZM57.3824 9.92602C57.3824 9.55569 57.4088 9.34408 57.4749 9.25811C57.5311 9.18537 57.637 9.11593 57.8254 9.11593C58.2949 9.11593 58.7678 9.59868 58.7678 10.8651C58.7678 12.0752 58.4173 12.5877 57.5973 12.5877H57.3824V9.92602ZM58.6818 12.7564V12.7134C59.3133 12.515 60.0209 11.933 60.0209 10.6237C60.0209 9.94255 59.8225 9.38706 59.5018 9.05972C59.1645 8.70262 58.7281 8.56045 58.0304 8.56045H55.5043V9.02996C56.1457 9.11593 56.2019 9.24489 56.2019 10.4088V15.8446C56.2019 17.0118 56.1358 17.1374 55.458 17.2234V17.6929H57.6436C58.371 17.6929 59.0587 17.5111 59.5283 17.0812C60.0011 16.6547 60.3416 15.957 60.3416 14.975C60.3416 13.6524 59.6605 12.958 58.6818 12.7564ZM79.8994 33.4582H84.3896H88.8864H94.5967H95.6084L94.5967 32.4398L91.6572 29.4772H88.8864H84.3896H79.8994H77.0393L74.1825 32.4166L73.1707 33.4582H74.1825H79.8994ZM125.109 32.7109H130.042L125.109 29.0969L122.943 27.5065L120.929 29.0143L116.003 32.7109H120.929H125.109ZM47.8531 32.7109H52.7798L47.8531 29.0969L45.6841 27.5065L43.6704 29.0143L38.7405 32.7109H43.6704H47.8531ZM126.531 36.7316V40.4778H125.109H123.69V36.7316C123.69 35.9512 124.332 35.3131 125.109 35.3131C125.892 35.3131 126.531 35.9512 126.531 36.7316ZM126.531 47.2759H125.109H123.69V43.533C123.69 42.7526 124.332 42.1112 125.109 42.1112C125.892 42.1112 126.531 42.7493 126.531 43.533V47.2759ZM122.351 40.4778H120.929H119.511V36.7316C119.511 35.9512 120.149 35.3131 120.929 35.3131C121.713 35.3131 122.351 35.9512 122.351 36.7316V40.4778ZM122.351 47.2759H120.929H119.511V43.533C119.511 42.7526 120.149 42.1112 120.929 42.1112C121.713 42.1112 122.351 42.7493 122.351 43.533V47.2759ZM116.128 45.368H114.707H113.288V41.6218C113.288 40.8415 113.93 40.2033 114.707 40.2033H114.71C115.49 40.2033 116.128 40.8415 116.128 41.6218V45.368ZM112.104 45.368H110.686H109.267V41.6218C109.267 40.8415 109.909 40.2033 110.686 40.2033C111.466 40.2033 112.104 40.8415 112.104 41.6218V45.368ZM108.084 45.368H106.665H105.247V41.6218C105.247 40.8415 105.885 40.2033 106.665 40.2033C107.446 40.2033 108.084 40.8415 108.084 41.6218V45.368ZM104.06 45.368H102.645H101.223V41.6218C101.223 40.8415 101.864 40.2033 102.645 40.2033C103.425 40.2033 104.06 40.8415 104.06 41.6218V45.368ZM100.039 45.368H98.6206H97.1988V41.6218C97.1988 40.8415 97.8403 40.2033 98.6206 40.2033C99.401 40.2033 100.039 40.8415 100.039 41.6218V45.368ZM96.0184 45.368H94.5967H93.1782V41.6218C93.1782 40.8415 93.8196 40.2033 94.5967 40.2033C95.3803 40.2033 96.0184 40.8415 96.0184 41.6218V45.368ZM90.3016 48.4431H88.8831H87.4646V38.9403C87.4646 38.16 88.1028 37.5218 88.8831 37.5218C89.6634 37.5218 90.3016 38.16 90.3016 38.9403V48.4431ZM85.8114 48.4431H84.3896H82.9711V38.9403C82.9711 38.16 83.6126 37.5218 84.3896 37.5218C85.1732 37.5218 85.8114 38.16 85.8114 38.9403V48.4431ZM81.3179 48.4431H79.8961H78.4809V38.9403C78.4809 38.16 79.1191 37.5218 79.8961 37.5218C80.6797 37.5218 81.3179 38.16 81.3179 38.9403V48.4431ZM75.601 45.368H74.1858H72.764V41.6218C72.764 40.8415 73.4055 40.2033 74.1858 40.2033C74.9628 40.2033 75.601 40.8415 75.601 41.6218V45.368ZM71.5836 45.368H70.1619H68.7434V41.6218C68.7434 40.8415 69.3815 40.2033 70.1619 40.2033C70.9422 40.2033 71.5836 40.8415 71.5836 41.6218V45.368ZM67.5597 45.368H66.1379H64.7194V41.6218C64.7194 40.8415 65.3609 40.2033 66.1379 40.2033C66.9215 40.2033 67.5597 40.8415 67.5597 41.6218V45.368ZM63.5357 45.368H62.1172H60.6987V41.6218C60.6987 40.8415 61.3369 40.2033 62.1172 40.2033C62.8975 40.2033 63.5357 40.8415 63.5357 41.6218V45.368ZM59.515 45.368H58.0932H56.6781V41.6218C56.6781 40.8415 57.3162 40.2033 58.0932 40.2033C58.8736 40.2033 59.515 40.8415 59.515 41.6218V45.368ZM55.4911 45.368H54.0759H52.6541V41.6218C52.6541 40.8415 53.2956 40.2033 54.0726 40.2033H54.0759C54.8562 40.2033 55.4911 40.8415 55.4911 41.6218V45.368ZM84.3896 34.999C84.4094 34.999 84.4293 34.999 84.4491 34.999C84.8194 34.999 85.1203 35.2999 85.1203 35.6669C85.1203 36.0339 84.8194 36.3381 84.4491 36.3381C84.4293 36.3381 84.4094 36.3381 84.3896 36.3348C84.049 36.305 83.7812 36.0174 83.7812 35.6669C83.7812 35.3164 84.049 35.0287 84.3896 34.999ZM49.2716 40.4778H47.8531H46.4313V36.7316C46.4313 35.9512 47.0695 35.3131 47.8531 35.3131C48.6334 35.3131 49.2716 35.9512 49.2716 36.7316V40.4778ZM49.2716 47.2759H47.8531H46.4313V43.533C46.4313 42.7526 47.0695 42.1112 47.8531 42.1112C48.6334 42.1112 49.2716 42.7493 49.2716 43.533V47.2759ZM45.0889 40.4778H43.6737H42.252V36.7316C42.252 35.9512 42.8901 35.3131 43.6737 35.3131C44.4541 35.3131 45.0889 35.9512 45.0889 36.7316V40.4778ZM45.0889 47.2759H43.6737H42.252V43.533C42.252 42.7526 42.8901 42.1112 43.6737 42.1112C44.4541 42.1112 45.0889 42.7493 45.0889 43.533V47.2759ZM120.929 33.2631H117.815V35.3957H114.707H110.686H106.665H102.645H98.6206H95.3505L95.8035 36.5001H98.6206H102.645H106.665H110.686H114.707H117.815V36.8109H114.707H110.686H106.665H102.645H98.6206H95.377L94.5967 35.0221L94.2065 34.1294H88.8831H84.3896H79.8961H74.3512L74.1858 34.5294L73.2402 36.8109H70.1619H66.1379H62.1172H58.0932H54.0759H50.9678V36.4174H54.0759H58.0932H62.1172H66.1379H70.1619H72.9757L73.432 35.3131H70.1619H66.1379H62.1172H58.0932H54.0759H50.9678V33.2631H47.8531H43.6737H40.5557V50.6121H43.6737H47.8531H50.9678V49.9012H54.0759H58.0932H62.1172H66.1379H70.1619H74.1858H79.8961H84.3896H88.8831H94.5967H98.6206H102.645H106.665H110.686H114.707H117.815V50.6121H120.929H125.109H128.227V33.2631H125.109H120.929ZM167.124 50.3278L140.236 44.882V35.895L167.124 30.4493V50.3278ZM158.917 55.585C153.105 67.6107 140.785 75.9463 126.583 75.976H125.988V76.5646V78.8196H42.6487V76.5646V75.976L42.0569 75.9727H42.0139C39.2629 75.9562 36.5748 75.6189 33.9924 75.0072C31.41 74.3955 28.9368 73.5028 26.6024 72.3687C17.6221 67.9942 10.7149 59.9893 7.80848 50.2881L25.6138 46.6807C26.6057 49.5507 28.2524 52.1265 30.3751 54.2294C33.9626 57.7805 38.9091 59.9826 44.3516 59.9826V59.9859H124.431V59.9826C129.873 59.9826 134.82 57.7805 138.407 54.2294C140.53 52.1265 142.177 49.5507 143.165 46.6807L160.977 50.2881C160.428 52.1166 159.737 53.8888 158.917 55.585ZM1.65514 50.3278V30.4493L28.5466 35.895V44.882L1.65514 50.3278ZM139.528 45.9434L141.995 46.4427C141.062 49.0812 139.532 51.4486 137.574 53.3895C134.202 56.7291 129.549 58.7989 124.431 58.8022V58.7989H44.3516V58.8022C39.2332 58.8022 34.581 56.7291 31.2084 53.3895C29.2476 51.4486 27.7233 49.0812 26.7843 46.4427L29.2509 45.9434L29.7271 45.8475V45.3614V35.4156V34.9295L29.2509 34.8336L26.7843 34.3344C27.72 31.6958 29.2476 29.3284 31.2084 27.3875C34.581 24.0479 39.2332 21.9781 44.3516 21.9748V21.9781H124.431V21.9748C129.549 21.9748 134.202 24.0479 137.574 27.3875C139.535 29.3284 141.062 31.6958 141.998 34.3344L139.528 34.8336L139.055 34.9295V35.4156V45.3614V45.8475L139.528 45.9434ZM9.81881 24.5108C15.5952 12.4753 27.8754 4.11325 42.0569 4.02728L42.6487 4.02397V3.43542V1.18372H125.988V3.43542V4.02397L126.583 4.02728H126.702C129.463 4.0405 132.155 4.37115 134.747 4.98285C137.336 5.59454 139.816 6.48398 142.157 7.6181C151.372 12.0984 158.411 20.4042 161.186 30.4493L143.165 34.0963C142.177 31.2263 140.53 28.6505 138.407 26.5476C134.823 22.9965 129.873 20.7944 124.431 20.7944V20.7911H44.3516V20.7944C38.9091 20.7944 33.9626 22.9965 30.3751 26.5476C28.2524 28.6505 26.6057 31.2263 25.6138 34.0963L7.59025 30.4493C8.16227 28.386 8.90953 26.4021 9.81881 24.5108ZM167.6 29.1498L162.353 30.2112C159.499 19.8024 152.215 11.1924 142.669 6.55342C140.252 5.37962 137.69 4.46043 135.018 3.82889C132.495 3.23373 129.873 2.89647 127.175 2.85018V0.591858V0H126.583H42.0569H41.4617V0.591858V2.85348C27.062 3.1676 14.6363 11.7347 8.75082 24.0017C7.80187 25.9822 7.02154 28.062 6.42968 30.2112L1.18232 29.1498L0.474731 29.0043V29.7285V51.0486V51.7694L1.18232 51.6272L6.64129 50.5228C9.62373 60.591 16.7756 68.9002 26.0833 73.4333C28.497 74.6071 31.0529 75.5297 33.718 76.1612C36.2044 76.753 38.7967 77.0903 41.4617 77.1465V79.4114V80H42.0569H126.583H127.175V79.4114V77.1498C141.598 76.8919 154.06 68.3513 159.985 56.1008C160.848 54.312 161.572 52.4505 162.145 50.5228L167.6 51.6272L168.308 51.7694V51.0486V29.7285V29.0043L167.6 29.1498ZM114.492 72.4414C113.404 72.4414 112.59 70.7254 112.59 68.2157C112.59 66.1393 113.311 64.2546 114.432 64.2546C115.09 64.2546 115.662 64.7307 115.98 66.2484L116.32 66.1393C116.261 65.3854 116.211 64.744 116.142 63.9901C115.88 63.9206 115.262 63.6991 114.631 63.6991C112.504 63.6991 111.152 65.6797 111.152 68.4968C111.152 70.6725 112.051 73.0167 114.392 73.0167C115.001 73.0167 115.742 72.7754 115.99 72.6795C116.142 72.2199 116.35 71.2279 116.459 70.6162L116.122 70.4476C115.702 71.6875 115.203 72.4414 114.492 72.4414ZM104.268 64.3406C104.986 64.4232 105.055 64.5356 105.055 65.8053V70.894C105.055 72.1769 104.986 72.2893 104.298 72.372V72.8316H107.016V72.372C106.407 72.2893 106.335 72.1769 106.335 70.894V64.9556C106.335 64.4662 106.354 64.4365 106.695 64.4365H108.054C108.385 64.4365 108.404 64.453 108.404 64.982V70.894C108.404 72.1769 108.335 72.2893 107.694 72.372V72.8316H110.431V72.372C109.754 72.2893 109.684 72.1769 109.684 70.894V65.8053C109.684 64.5356 109.754 64.4232 110.454 64.3406V63.881H104.268V64.3406ZM121.756 71.3271C121.488 70.517 121.29 69.7235 121.148 69.3036C120.86 68.3976 120.49 68.0504 119.99 67.8553V67.8124C120.129 67.7032 120.539 67.2833 120.86 66.3211C121.267 65.0382 121.439 64.8002 121.789 64.8002H121.971C122.149 64.8002 122.358 64.6348 122.358 64.3273C122.358 63.9636 122.149 63.6826 121.799 63.6826C121.349 63.6991 121.058 64.0893 120.777 65.0515C120.46 66.1525 120.278 66.6948 120 67.1147C119.709 67.5445 119.379 67.6867 118.949 67.7032V65.7491C118.949 64.5224 119.008 64.4232 119.68 64.3406V63.881H116.948V64.3406C117.61 64.4232 117.689 64.5224 117.689 65.7491V70.9502C117.689 72.1934 117.61 72.2893 116.948 72.372V72.8316H119.68V72.372C119.008 72.2893 118.949 72.1934 118.949 70.937V68.2025C119.428 68.1893 119.66 68.5232 119.921 69.5978C120.109 70.4212 120.278 71.175 120.39 71.5652C120.648 72.415 120.91 72.8316 121.607 72.8316H122.678V72.372C122.259 72.3025 122.007 72.0678 121.756 71.3271ZM127.195 71.8297C126.987 72.1769 126.696 72.2761 126.167 72.2761C125.806 72.2761 125.535 72.2463 125.386 72.1372C125.228 72.0083 125.175 71.7041 125.175 71.0461V68.5232H125.747C126.547 68.5232 126.626 68.5795 126.775 69.5681H127.116V66.8336H126.775C126.626 67.8124 126.537 67.8686 125.747 67.8686H125.175V64.939C125.175 64.4794 125.218 64.4365 125.525 64.4365H125.886C126.497 64.4365 126.755 64.5621 126.894 64.8134C127.046 65.0515 127.146 65.4284 127.245 65.931L127.585 65.8615C127.546 65.0779 127.496 64.1025 127.486 63.881H123.178V64.3273C123.806 64.41 123.895 64.4927 123.895 65.6235V71.0626C123.895 72.2066 123.806 72.2761 123.065 72.372V72.8316H127.714C127.794 72.4414 127.975 71.2015 128.035 70.6559L127.698 70.5468C127.536 71.1453 127.364 71.5487 127.195 71.8297ZM46.7025 71.8297C46.4908 72.1769 46.2032 72.2761 45.6742 72.2761C45.3137 72.2761 45.0426 72.2463 44.8938 72.1372C44.7351 72.0083 44.6822 71.7041 44.6822 71.0461V68.5232H45.2542C46.0544 68.5232 46.1338 68.5795 46.2825 69.5681H46.6231V66.8336H46.2825C46.1338 67.8124 46.0445 67.8686 45.2542 67.8686H44.6822V64.939C44.6822 64.4794 44.7252 64.4365 45.036 64.4365H45.3931C46.0048 64.4365 46.2627 64.5621 46.4049 64.8134C46.5504 65.0515 46.6529 65.4284 46.7521 65.931L47.0926 65.8615C47.0529 65.0779 47.0034 64.1025 46.9934 63.881H42.6851V64.3273C43.3133 64.41 43.4059 64.4927 43.4059 65.6235V71.0626C43.4059 72.2066 43.3133 72.2761 42.576 72.372V72.8316H47.2216C47.3042 72.4414 47.4828 71.2015 47.5423 70.6559L47.2017 70.5468C47.043 71.1453 46.8744 71.5487 46.7025 71.8297ZM101.236 68.7051C101.048 68.7051 100.905 68.6489 100.78 68.5795V64.9688C100.78 64.744 100.796 64.5919 100.879 64.5059C100.938 64.453 101.028 64.3935 101.2 64.3935C101.706 64.3935 102.297 64.8828 102.297 66.4997C102.297 68.3844 101.527 68.7051 101.236 68.7051ZM101.299 63.881H98.8289V64.3406C99.4472 64.453 99.5167 64.5489 99.5167 65.6929V71.0758C99.5167 72.2199 99.4472 72.3455 98.7793 72.4282V72.8316H101.61V72.4282C100.839 72.3455 100.78 72.2199 100.78 71.0758V69.1085L101.358 69.3333C101.458 69.3333 101.557 69.3333 101.706 69.3036C102.757 69.1217 103.666 68.2587 103.666 66.4468C103.666 65.5243 103.395 64.8134 102.949 64.3935C102.555 64.0331 102.056 63.881 101.299 63.881ZM63.2745 72.2893H63.2646C62.8149 72.2893 62.6529 72.0116 62.6529 71.0758V68.1595C62.795 68.1463 62.9273 68.1331 63.0563 68.1331C63.8862 68.1331 64.3755 68.7481 64.3755 70.1401C64.3755 71.7735 63.7242 72.2893 63.2745 72.2893ZM63.5754 67.5478C63.2546 67.5478 62.967 67.5611 62.6529 67.5908V64.9688C62.6529 64.4497 62.676 64.4398 63.0166 64.4398H63.625C64.154 64.4398 64.3557 64.5621 64.5045 64.896C64.6434 65.2333 64.726 65.5243 64.8451 66.0401L65.1757 65.9707C65.1327 65.1077 65.093 64.1455 65.0831 63.881H60.6558V64.3406C61.327 64.4232 61.4063 64.5092 61.4063 65.8318V70.894C61.4063 72.1934 61.327 72.2893 60.6392 72.372V72.8316H63.0265C63.7738 72.8316 64.445 72.6795 64.8947 72.2728C65.3939 71.8429 65.7543 71.1453 65.7543 70.0442C65.7543 68.4968 64.9839 67.5478 63.5754 67.5478ZM39.5869 68.7051C39.3952 68.7051 39.2563 68.6489 39.1273 68.5795V64.9688C39.1273 64.744 39.1472 64.5919 39.2265 64.5059C39.2861 64.453 39.3753 64.3935 39.5473 64.3935C40.0565 64.3935 40.645 64.8828 40.645 66.4997C40.645 68.3844 39.8746 68.7051 39.5869 68.7051ZM39.6465 63.881H37.1765V64.3406C37.7981 64.453 37.8676 64.5489 37.8676 65.6929V71.0758C37.8676 72.2199 37.7981 72.3455 37.1269 72.4282V72.8316H39.9573V72.4282C39.1869 72.3455 39.1273 72.2199 39.1273 71.0758V69.1085L39.706 69.3333C39.8052 69.3333 39.9077 69.3333 40.0565 69.3036C41.1046 69.1217 42.0139 68.2587 42.0139 66.4468C42.0139 65.5243 41.7461 64.8134 41.2964 64.3935C40.9062 64.0331 40.4036 63.881 39.6465 63.881ZM47.9325 64.3406C48.6533 64.4232 48.7227 64.5356 48.7227 65.8053V70.894C48.7227 72.1769 48.6533 72.2893 47.9622 72.372V72.8316H50.6835V72.372C50.0718 72.2893 50.0023 72.1769 50.0023 70.894V64.9556C50.0023 64.4662 50.0222 64.4365 50.3627 64.4365H51.7184C52.0523 64.4365 52.0722 64.453 52.0722 64.982V70.894C52.0722 72.1769 51.9994 72.2893 51.3613 72.372V72.8316H54.099V72.372C53.4212 72.2893 53.3518 72.1769 53.3518 70.894V65.8053C53.3518 64.5356 53.4212 64.4232 54.1189 64.3406V63.881H47.9325V64.3406ZM58.2883 64.3406L58.6487 64.453C58.9364 64.5489 58.9662 64.7175 58.8372 65.2862C58.5363 66.6121 58.2288 67.7297 57.9081 68.9696L56.7475 65.0812C56.6285 64.6877 56.6483 64.5356 56.8401 64.453L57.1476 64.3406V63.881H54.4892V64.3406C55.0877 64.4662 55.2001 64.6348 55.3687 65.1639C55.5969 65.8615 56.6979 69.3466 56.9261 70.0707C57.0782 70.56 57.1476 70.8642 57.1476 71.1023C57.1476 71.6181 56.8765 72.0645 56.6483 72.0645C56.5061 72.0645 56.3375 71.9521 56.1986 71.8297C55.9771 71.6479 55.7986 71.6346 55.6498 71.7735C55.5208 71.8694 55.4183 72.0942 55.4183 72.3587C55.4117 72.8481 55.7787 73.1688 56.1391 73.1688C56.6483 73.1688 57.1873 72.7919 57.7593 70.9237C58.0767 69.8789 58.9265 66.8072 59.267 65.6665C59.558 64.6877 59.6572 64.4927 60.3152 64.3406V63.881H58.2883V64.3406ZM66.862 64.3406C67.5531 64.41 67.7151 64.5753 67.7151 65.1507C67.7151 67.5875 67.4935 69.5813 67.1232 70.8642C66.9116 71.5917 66.6834 72.1637 66.2239 72.6365V72.9341C66.3462 73.0035 66.5644 73.0597 66.8025 73.0597C67.0339 73.0597 67.2224 72.8481 67.4241 72.372C67.9829 71.0064 68.2441 68.1628 68.2441 64.9556C68.2441 64.5224 68.2838 64.4365 68.5847 64.4365H69.4741C69.7717 64.4365 69.7816 64.4794 69.7816 65.1341V70.9237C69.7816 72.1769 69.7122 72.2893 69.0343 72.372V72.8316H71.8019V72.372C71.134 72.2893 71.0612 72.1769 71.0612 70.9237V65.5243C71.0612 64.5224 71.134 64.4232 71.8019 64.3406V63.881H66.862V64.3406ZM89.7229 71.8297C89.5113 72.1769 89.2236 72.2761 88.6946 72.2761C88.3342 72.2761 88.0631 72.2463 87.9143 72.1372C87.7556 72.0083 87.7027 71.7041 87.7027 71.0461V68.5232H88.2747C89.0749 68.5232 89.1542 68.5795 89.303 69.5681H89.6436V66.8336H89.303C89.1542 67.8124 89.0649 67.8686 88.2747 67.8686H87.7027V64.939C87.7027 64.4794 87.7457 64.4365 88.0565 64.4365H88.4136C89.0253 64.4365 89.2832 64.5621 89.4253 64.8134C89.5741 65.0515 89.6733 65.4284 89.7725 65.931L90.1131 65.8615C90.0734 65.0779 90.0238 64.1025 90.0139 63.881H85.7056V64.3273C86.3338 64.41 86.4231 64.4927 86.4231 65.6235V71.0626C86.4231 72.2066 86.3338 72.2761 85.5965 72.372V72.8316H90.242C90.3214 72.4414 90.5033 71.2015 90.5628 70.6559L90.2222 70.5468C90.0635 71.1453 89.8915 71.5487 89.7229 71.8297ZM84.2871 71.3271C84.016 70.517 83.8176 69.7235 83.6754 69.3036C83.3877 68.3976 83.0174 68.0504 82.5148 67.8553V67.8124C82.657 67.7032 83.067 67.2833 83.3877 66.3211C83.7944 65.0382 83.9664 64.8002 84.3168 64.8002H84.4954C84.6773 64.8002 84.8856 64.6348 84.8856 64.3273C84.8856 63.9636 84.6773 63.6826 84.3235 63.6826C83.8771 63.6991 83.5861 64.0893 83.3051 65.0515C82.9843 66.1525 82.8058 66.6948 82.5247 67.1147C82.2371 67.5445 81.9064 67.6867 81.4766 67.7032V65.7491C81.4766 64.5224 81.5361 64.4232 82.2073 64.3406V63.881H79.4762V64.3406C80.1375 64.4232 80.2168 64.5224 80.2168 65.7491V70.9502C80.2168 72.1934 80.1375 72.2893 79.4762 72.372V72.8316H82.2073V72.372C81.5361 72.2893 81.4766 72.1934 81.4766 70.937V68.2025C81.956 68.1893 82.1875 68.5232 82.4454 69.5978C82.6372 70.4212 82.8058 71.175 82.9182 71.5652C83.1761 72.415 83.434 72.8316 84.135 72.8316H85.2063V72.372C84.7864 72.3025 84.5351 72.0678 84.2871 71.3271ZM96.3193 72.4414C95.2282 72.4414 94.4214 70.7254 94.4214 68.2157C94.4214 66.1393 95.1389 64.2546 96.2598 64.2546C96.9211 64.2546 97.4898 64.7307 97.8072 66.2484L98.1478 66.1393C98.0883 65.3854 98.0387 64.744 97.9693 63.9901C97.708 63.9206 97.0897 63.6991 96.4615 63.6991C94.3288 63.6991 92.9798 65.6797 92.9798 68.4968C92.9798 70.6725 93.8792 73.0167 96.2201 73.0167C96.8285 73.0167 97.5692 72.7754 97.8205 72.6795C97.9693 72.2199 98.1809 71.2279 98.2867 70.6162L97.9494 70.4476C97.5295 71.6875 97.0302 72.4414 96.3193 72.4414Z" fill="#1D1D1D"/>
</svg>
