<svg width="81" height="80" viewBox="0 0 81 80" fill="none" xmlns="http://www.w3.org/2000/svg">
<g clip-path="url(#clip0_66_164)">
<path d="M38.7888 64.1271C38.3631 64.1271 38.0644 64.502 38.0644 65.0294C38.0644 65.4869 38.344 65.811 38.7761 65.811C39.1065 65.811 39.3734 65.6458 39.5005 65.4233C39.5322 65.3789 39.545 65.3217 39.545 65.2454C39.545 64.61 39.3162 64.1271 38.7888 64.1271ZM40.8476 38.6148C39.259 38.6148 38.4139 39.784 38.4012 41.9889H43.3384C43.3194 39.784 42.4616 38.6148 40.8476 38.6148ZM49.3178 71.4917C49.4258 71.39 49.4576 71.2438 49.4131 71.0532C49.3686 70.888 49.2797 70.7863 49.1335 70.7546C48.9937 70.7164 48.7967 70.7355 48.5362 70.799L47.958 70.9452L48.1994 71.892L48.7523 71.7585C49.0191 71.6886 49.2034 71.5997 49.3178 71.4917ZM39.2908 71.6124C38.9286 71.5997 38.6617 71.7077 38.4965 71.9492C38.3313 72.1843 38.236 72.5782 38.2106 73.1183C38.1851 73.6585 38.2423 74.0524 38.3821 74.3066C38.5283 74.5608 38.7761 74.7006 39.1383 74.7196C39.5005 74.7387 39.7674 74.6243 39.9326 74.3828C40.0978 74.1477 40.1931 73.7538 40.2185 73.2137C40.2439 72.6735 40.1867 72.2796 40.0469 72.0254C39.9071 71.7712 39.653 71.6315 39.2908 71.6124ZM49.7944 72.4575C49.6419 72.413 49.375 72.4321 49.0064 72.5274L48.3964 72.6799L48.676 73.7855L49.1335 73.6712C49.4894 73.5822 49.7245 73.506 49.8515 73.4361C49.9723 73.3725 50.0549 73.2899 50.0994 73.1946C50.1375 73.0929 50.1375 72.9722 50.1057 72.8324C50.0549 72.6291 49.9469 72.5083 49.7944 72.4575ZM64.7713 63.8284L63.0176 62.9007L63.8881 64.6863L64.7713 63.8284ZM40.8666 0C18.811 0 0.866638 17.9444 0.866638 40C0.866638 62.0556 18.811 80 40.8666 80C62.9222 80 80.8666 62.0556 80.8666 40C80.8666 17.9444 62.9222 0 40.8666 0ZM75.9612 34.4845L72.7713 34.8975L76.1836 36.1811L76.3233 37.274L71.7356 37.8586L71.6212 36.9881L75.0271 36.5496L71.3924 35.1962L71.2654 34.1986L75.8531 33.614L75.9612 34.4845ZM75.8531 41.722C75.8531 42.4654 75.2495 43.0691 74.506 43.0691C73.7626 43.0691 73.1589 42.4654 73.1589 41.722C73.1589 40.9722 73.7626 40.3685 74.506 40.3685C75.2495 40.3685 75.8531 40.9722 75.8531 41.722ZM74.7983 29.4647L71.1764 30.4813L71.6403 32.1207L75.2622 31.104L75.5164 32.0127L71.8944 33.0294L72.0469 33.5568L70.4266 34.0143L70.1661 33.1056L70.9604 32.8832L70.0898 29.8078L74.5442 28.556L74.7983 29.4647ZM72.981 24.807L71.3607 26.7133L73.8007 26.6624L74.201 27.5711L70.0581 27.533C69.8039 27.533 69.5878 27.5075 69.4163 27.4567C69.2447 27.4059 69.1049 27.336 68.9969 27.2343C68.8825 27.1326 68.7872 26.9801 68.6919 26.7768C68.6538 26.6942 68.6156 26.5417 68.5648 26.332C68.514 26.116 68.4886 25.9444 68.4886 25.8046L69.2638 25.7665C69.2638 25.8554 69.2701 25.9762 69.2955 26.116C69.3273 26.2621 69.3527 26.3638 69.3782 26.4273C69.4226 26.529 69.5052 26.5989 69.626 26.6497C69.7467 26.6942 69.9564 26.7069 70.2614 26.6815L72.5743 23.8729L72.981 24.807ZM69.626 20.8991L70.4774 20.3717L72.0533 22.9007L68.1264 25.3407L67.6307 24.5465L70.8905 22.5195L70.2932 21.56L69.9755 21.757C68.9334 22.4114 68.1073 22.7927 67.5037 22.9071C66.9063 23.0278 66.4743 22.8817 66.2201 22.475C66.0422 22.189 65.9532 21.9095 65.9469 21.6426L66.7348 21.5028C66.7539 21.6553 66.792 21.776 66.8555 21.8713C66.9381 22.0048 67.0779 22.062 67.2876 22.0365C67.4909 22.0175 67.7832 21.9158 68.1645 21.7315C68.5394 21.5473 69.0287 21.2677 69.626 20.8991ZM39.5322 65.7982C39.3226 66.0461 39.0303 66.1922 38.6617 66.1922C37.9945 66.1922 37.5688 65.6902 37.5688 65.0612C37.5688 64.3622 38.0708 63.7458 38.8333 63.7458C39.5894 63.7458 40.0533 64.3622 40.0533 65.309C40.0533 66.1223 39.7801 66.6878 39.4179 67.0437C39.1319 67.3233 38.738 67.4885 38.344 67.533C38.1597 67.5647 38.0009 67.5711 37.8801 67.5647V67.1581C37.9882 67.1644 38.1152 67.1581 38.2868 67.139C38.5728 67.1009 38.846 66.9801 39.0557 66.7768C39.3035 66.5608 39.4814 66.2367 39.545 65.7982H39.5322ZM39.5704 61.8014L39.6403 52.5624L19.2368 37.363C19.3448 36.5115 19.4909 35.6791 19.6943 34.8594L40.962 50.5735L62.1025 34.6497C62.3059 35.4504 62.4647 36.2764 62.5728 37.1088L42.3027 52.5687L42.2264 61.8078C41.7944 61.8332 41.3623 61.8459 40.9238 61.8459C40.4663 61.8459 40.0215 61.8268 39.5704 61.8014ZM48.9175 28.5179L48.9302 40.4512L46.8523 41.9889L44.1518 43.9778H37.6832L34.9826 41.9889H36.5013C36.5267 40.2097 37.2701 39.0977 37.8992 38.475C38.7062 37.6743 39.7928 37.2105 40.873 37.2105C43.0271 37.2105 45.2066 38.8499 45.232 41.9889H46.5156V29.8523C42.6458 28.1303 41.1653 26.3002 40.7141 24.2732C40.1232 26.3828 38.3376 28.0858 34.9508 29.8396V41.9635L32.4091 40.089L32.4218 28.4289L32.4536 28.4098C37.626 25.7029 38.9413 24.5401 38.8778 18.2494C39.5513 18.1859 40.2312 18.1541 40.9238 18.1541C41.4258 18.1541 41.9278 18.1732 42.4234 18.2113C42.3345 25.8745 44.6855 26.9674 48.9175 28.5179ZM46.649 23.6442C45.7848 22.3542 45.3146 20.6767 45.2193 18.5798C46.1979 18.7768 47.1573 19.0373 48.0851 19.3614C48.5998 22.2081 50.5759 24.197 54.2423 25.6521L54.2868 25.6648V36.5052L51.7578 38.367V26.923C49.2733 26.2176 47.6911 25.2073 46.649 23.6442ZM29.9755 26.923V38.2971L27.4528 36.4289V25.6648L27.4909 25.6521C31.6657 24 33.375 22.3034 33.699 19.3805C34.5759 19.0755 35.4719 18.8213 36.3932 18.6307C35.9612 23.0913 33.8452 25.8173 29.9755 26.923ZM45.0986 53.1787L45.1494 53.1406L62.7634 39.695C62.7634 39.7967 62.7697 39.8983 62.7697 40C62.7697 40.9277 62.7062 41.8427 62.5918 42.745L47.7546 54.1763V60.7466C46.8968 61.0326 46.0072 61.2677 45.0986 61.4456V53.1787ZM61.8801 46.17C61.429 47.6886 60.819 49.1501 60.0692 50.5163L53.2002 55.784V58.0651C52.3551 58.637 51.4655 59.1517 50.5442 59.6092V54.7927L50.595 54.7546L61.8801 46.17ZM50.1311 62.9706C59.2177 59.2915 65.6419 50.3892 65.6419 40C65.6419 26.3384 54.5283 15.2248 40.8666 15.2248C27.205 15.2248 16.0914 26.3384 16.0914 40C16.0914 50.224 22.3186 59.0183 31.1764 62.799V64.6164C21.3654 60.7403 14.4075 51.1708 14.4075 40C14.4075 25.4106 26.2773 13.5409 40.8666 13.5409C55.456 13.5409 67.3321 25.4106 67.3321 40C67.3321 51.336 60.1645 61.0199 50.1311 64.7879V62.9706ZM21.6959 50.3638C20.9588 49.004 20.3678 47.5552 19.9294 46.0429L31.4115 54.7927V59.6664C30.4901 59.2152 29.6006 58.7069 28.7554 58.1414V55.784L21.6959 50.3638ZM68.0183 17.0866L65.5084 19.3296C65.1462 19.66 64.8031 19.7998 64.4854 19.7554C64.1613 19.7109 63.8245 19.4948 63.4751 19.1009C63.3988 19.0183 63.3098 18.8912 63.1955 18.7196C63.0874 18.5417 63.0048 18.3892 62.9604 18.2558L63.7737 17.9063C63.7928 17.9889 63.8372 18.0969 63.9135 18.243C63.9834 18.3892 64.0533 18.4972 64.1105 18.5608C64.2185 18.6815 64.3202 18.7577 64.4028 18.7832C64.479 18.8086 64.5743 18.7959 64.676 18.745C64.784 18.6942 64.9111 18.5989 65.07 18.4591L67.3829 16.3813L68.0183 17.0866ZM62.846 12.7466C63.3607 12.645 63.8817 12.8229 64.3901 13.274C64.9111 13.7252 65.1462 14.2145 65.1081 14.7419C65.07 15.2693 64.7967 15.8221 64.2948 16.394C63.761 16.9976 63.2336 17.3407 62.7189 17.417C62.1979 17.4932 61.6959 17.3153 61.2066 16.8832C60.6982 16.4321 60.4568 15.9428 60.4949 15.4154C60.533 14.888 60.7999 14.3352 61.3083 13.7633C61.8102 13.1914 62.3249 12.8483 62.846 12.7466ZM56.8539 8.15886L57.6609 8.64813L56.8031 10.0461L58.1629 10.8721L59.0144 9.46783L59.8214 9.96346L58.9699 11.3614L59.5735 11.7363C60.12 12.0667 60.4504 12.4035 60.5712 12.7593C60.6855 13.1088 60.6156 13.4901 60.3551 13.9158C60.0819 14.367 59.7515 14.6211 59.3766 14.6783C58.9953 14.7291 58.5442 14.5957 58.0104 14.2716L56.6125 13.4202L57.7372 11.5711L56.3837 10.745L55.2527 12.5941L54.452 12.1048L56.8539 8.15886ZM54.3313 7.12947L54.0835 11.9968L53.1812 11.641L53.2384 10.6561L51.5799 10.0079L50.9572 10.7768L50.0867 10.4337L53.1939 6.68467L54.3313 7.12947ZM47.4687 5.06434L50.5315 5.78872L50.3535 6.53852L48.2058 6.03018L47.9707 7.02145L48.5998 7.17395C49.2161 7.3201 49.6546 7.5552 49.9087 7.87291C50.1629 8.19063 50.2328 8.58459 50.1184 9.0548C50.0168 9.49325 49.7944 9.78554 49.4512 9.93805C49.1081 10.0905 48.6125 10.0905 47.9707 9.93805L46.4012 9.56315L47.4687 5.06434ZM40.6442 4.43527L41.6609 4.4861L42.6395 6.79269L43.6943 4.58777L44.6855 4.6386L42.7983 8.32407C42.6776 8.55282 42.5569 8.73074 42.4361 8.86418C42.3218 8.99762 42.1883 9.08658 42.0549 9.14376C41.9151 9.1946 41.7308 9.21366 41.5084 9.20731C41.4131 9.20095 41.2606 9.17554 41.0509 9.1247C40.8349 9.07387 40.6697 9.01668 40.5489 8.95949L40.8539 8.24146C40.9365 8.28594 41.0509 8.33042 41.1907 8.36855C41.3305 8.41303 41.4322 8.43209 41.5021 8.43844C41.6101 8.43844 41.7118 8.40032 41.8071 8.31771C41.9024 8.22875 42.0104 8.04448 42.1248 7.75854L40.6442 4.43527ZM38.1724 4.54329L38.2868 5.39476L36.8762 5.57903L37.3527 9.30898L36.4187 9.42971L35.9357 5.69976L34.5251 5.87768L34.4171 5.02621L38.1724 4.54329ZM33.572 5.20413L33.7817 6.01112L31.7801 6.52581L32.0279 7.47895L33.7118 7.04686L33.9151 7.85385L32.2312 8.28594L32.5108 9.35981L34.506 8.85147L34.7221 9.68388L31.8118 10.4273L30.6617 5.95393L33.572 5.20413ZM29.6577 6.24623L29.9755 7.04686L28.6538 7.56791L30.0263 11.0691L29.1494 11.4122L27.7769 7.91104L26.4488 8.43209L26.1311 7.63145L29.6577 6.24623ZM22.7125 9.46148L24.282 12.2764L24.1994 8.62907L25.1589 8.09531L27.421 12.1303L26.6522 12.556L24.9747 9.56315L25.0763 13.4392L24.1994 13.9285L21.9437 9.89357L22.7125 9.46148ZM19.3575 11.6283C19.6562 11.3995 19.9421 11.247 20.2217 11.1644C20.4949 11.0882 20.7491 11.0818 20.9778 11.1581C21.2066 11.2343 21.4036 11.3741 21.5688 11.5965C21.7276 11.7998 21.8102 12.0222 21.8166 12.2446C21.823 12.4734 21.7721 12.6704 21.6577 12.8419C22.1788 12.7149 22.5855 12.8419 22.8714 13.2232C23.1573 13.5981 23.24 13.973 23.1383 14.3542C23.0303 14.7355 22.7507 15.0977 22.2932 15.4472C21.95 15.7014 21.6196 15.8602 21.2828 15.9174C20.9461 15.9809 20.5966 15.9365 20.2344 15.7967L20.5712 14.9643C21.035 15.1612 21.4481 15.1231 21.8102 14.8435C22.0009 14.7037 22.1216 14.5322 22.1724 14.3415C22.2296 14.1446 22.1915 13.9666 22.0708 13.8078C21.9373 13.6235 21.7912 13.5282 21.6387 13.5155C21.4862 13.5028 21.3019 13.5727 21.0986 13.7315L20.317 14.3225L19.8468 13.6998L20.6665 13.077C20.8253 12.9627 20.9143 12.8292 20.9397 12.6767C20.9588 12.5306 20.9079 12.3717 20.7809 12.2129C20.6792 12.0794 20.5394 12.0159 20.3551 12.0286C20.1645 12.0413 19.9739 12.1176 19.7896 12.2573C19.6498 12.359 19.5227 12.4925 19.4147 12.645C19.3003 12.7975 19.205 13.0071 19.1224 13.2677L18.3345 13.0135C18.4997 12.4797 18.8365 12.0159 19.3575 11.6283ZM16.1804 14.475C16.5553 14.1064 16.9302 13.9158 17.3051 13.8904C17.68 13.865 18.0612 14.0492 18.4361 14.4369C18.8301 14.8372 19.0207 15.2248 19.0271 15.5997C19.0271 15.9746 18.8174 16.3685 18.398 16.7752L17.8452 17.3153L18.8428 18.3384L18.1693 18.9929L14.9413 15.6886L16.1804 14.475ZM14.1089 16.61L14.757 17.1247L13.4671 18.7387L14.236 19.355L15.3226 17.9952L15.977 18.5163L14.8905 19.8761L15.761 20.5687L17.0446 18.9547L17.7181 19.4948L15.8436 21.8396L12.228 18.9547L14.1089 16.61ZM10.5124 21.5663C10.8237 21.0643 11.116 20.7466 11.3956 20.6132C11.6752 20.4861 11.9802 20.5179 12.2979 20.7149C12.5394 20.861 12.7046 21.0453 12.7872 21.255C12.8635 21.4647 12.8508 21.7125 12.7491 21.9984C12.9969 21.6934 13.2511 21.5218 13.5052 21.471C13.7594 21.4138 14.0263 21.4774 14.3122 21.6489C14.7062 21.8904 14.9095 22.2017 14.9286 22.583C14.9477 22.9706 14.8079 23.4027 14.5156 23.8856L13.6133 25.3662L9.66092 22.9643L10.5124 21.5663ZM7.85631 26.8658L10.811 28.1366L8.52986 25.2899L8.96831 24.2859L13.2129 26.1096L12.8635 26.923L9.71175 25.5631L12.1518 28.5751L11.7515 29.5028L7.50683 27.6728L7.85631 26.8658ZM6.30588 31.7712L8.04694 32.2288L8.5108 30.4686L6.76974 30.0111L7.01755 29.0961L11.4846 30.278L11.2431 31.193L9.34321 30.691L8.87935 32.4512L10.7793 32.9531L10.5378 33.8618L6.06441 32.6799L6.30588 31.7712ZM5.49889 36.6958L7.86902 35.8888L5.74035 34.6815L5.85472 33.6966L9.4004 35.838C9.62279 35.9714 9.79436 36.1048 9.92144 36.2319C10.0422 36.3654 10.1248 36.4988 10.1693 36.6386C10.2137 36.7784 10.2201 36.9627 10.1947 37.1851C10.182 37.2804 10.1438 37.4265 10.0803 37.6362C10.0104 37.8459 9.94686 38.0111 9.87696 38.1255L9.18435 37.7697C9.23518 37.6871 9.28602 37.579 9.33685 37.4456C9.38769 37.3058 9.41946 37.2041 9.42581 37.1342C9.43852 37.0326 9.40675 36.9245 9.32414 36.8229C9.24789 36.7212 9.06997 36.6005 8.79674 36.467L5.37816 37.7125L5.49889 36.6958ZM7.42422 40.3685C8.16767 40.3685 8.77132 40.9722 8.77132 41.722C8.77132 42.4654 8.16767 43.0691 7.42422 43.0691C6.68078 43.0691 6.07712 42.4654 6.07712 41.722C6.07712 40.9722 6.68078 40.3685 7.42422 40.3685ZM6.2614 48.3304C6.10254 47.6823 6.14067 47.1803 6.37577 46.8245C6.60453 46.4686 7.07474 46.2017 7.77371 46.0365L10.3599 45.4138L10.5759 46.3225L8.05329 46.9261C7.75464 46.996 7.52589 47.085 7.36704 47.1803C7.20182 47.282 7.10016 47.4027 7.04932 47.5488C6.99849 47.695 6.99849 47.892 7.06203 48.1334C7.14464 48.4766 7.29078 48.6926 7.50683 48.7879C7.72287 48.8769 8.04694 48.8769 8.48538 48.7689L11.0144 48.1589L11.2368 49.0675L8.65059 49.6839C7.95163 49.8491 7.42422 49.83 7.04932 49.6203C6.68078 49.4106 6.4139 48.9786 6.2614 48.3304ZM8.29476 54.1255L10.684 51.355L7.66569 52.5878L7.32256 51.7427L11.5418 50.0143L11.9993 51.1326L9.73717 53.7315L12.5902 52.5624L12.9334 53.4075L8.70778 55.1422L8.29476 54.1255ZM10.3853 58.2113L9.31144 56.2859L9.93415 55.9365L10.2455 56.4956L12.9842 54.9706L12.6728 54.4114L13.2955 54.0683L14.3694 55.9873L13.7467 56.3368L13.4353 55.784L10.6967 57.309L11.008 57.8618L10.3853 58.2113ZM12.228 60.969L11.5926 60.0731L14.5029 56.2859L15.0493 57.0548L12.8698 59.8634L16.2376 58.7323L16.7713 59.4821L12.228 60.969ZM15.7674 65.1311L13.7594 62.9515L17.1272 59.8634L19.1287 62.0492L18.5251 62.6021L17.1462 61.1025L16.4345 61.7633L17.591 63.0278L16.981 63.5806L15.8245 62.3225L15.0176 63.0596L16.3901 64.5592L15.7674 65.1311ZM19.7705 66.2303L19.5227 68.4226L18.7094 67.7363L18.9318 65.6648L18.5696 65.3598L17.4576 66.6815L16.7459 66.0778L19.6879 62.5957L20.9588 63.6632C21.4036 64.0445 21.6641 64.4003 21.734 64.7371C21.8102 65.0739 21.6895 65.4233 21.3782 65.7919C21.1303 66.0905 20.8635 66.2748 20.5902 66.3447C20.317 66.4146 20.0438 66.3765 19.7705 66.2303ZM22.9985 70.3797C22.6172 70.4241 22.1788 70.2907 21.6832 69.973C21.3464 69.757 21.0859 69.5091 20.9079 69.2359C20.73 68.9627 20.6411 68.6513 20.6411 68.3018L21.5434 68.2256C21.5497 68.4035 21.5751 68.556 21.6133 68.6704C21.6514 68.7848 21.7149 68.8928 21.8039 68.9944C21.8865 69.1025 22.0009 69.1978 22.147 69.2931C22.3567 69.4265 22.5473 69.4964 22.7125 69.5028C22.8778 69.5028 23.0112 69.4329 23.1065 69.2804C23.1637 69.1978 23.1891 69.1088 23.1828 69.0262C23.1764 68.9436 23.1446 68.8546 23.0874 68.7593C23.0366 68.664 22.9159 68.5242 22.7507 68.34C22.5855 68.1557 22.4266 67.9841 22.2868 67.8125C22.147 67.6473 22.039 67.4758 21.9627 67.3106C21.8928 67.139 21.8611 66.9674 21.8674 66.7895C21.8801 66.6052 21.95 66.421 22.0771 66.2176C22.3122 65.8554 22.6172 65.6458 22.9921 65.6013C23.367 65.5504 23.7864 65.6775 24.2503 65.9698C24.9111 66.3956 25.2352 66.923 25.2225 67.5584L24.3265 67.641C24.3265 67.4122 24.282 67.2152 24.1931 67.0627C24.1105 66.9102 23.9707 66.7705 23.7928 66.6561C23.6085 66.5417 23.4433 66.4782 23.2844 66.4718C23.1319 66.4654 23.0048 66.5353 22.9159 66.6751C22.8396 66.7959 22.8333 66.9293 22.9159 67.0691C22.9921 67.2152 23.151 67.4122 23.4052 67.6664C23.5386 67.8125 23.672 67.965 23.7991 68.1112C23.9262 68.2637 24.0279 68.4226 24.0978 68.5878C24.1677 68.7593 24.1931 68.9372 24.1804 69.1215C24.1677 69.3121 24.0851 69.5218 23.9453 69.7379C23.6975 70.1255 23.3861 70.3415 22.9985 70.3797ZM27.2368 68.5623L25.8452 71.3709L26.4107 71.6505L26.093 72.2923L24.1168 71.3137L24.4345 70.672L25.0064 70.9579L26.398 68.1493L25.8325 67.8697L26.1502 67.228L28.12 68.2065L27.8023 68.8483L27.2368 68.5623ZM31.6276 70.4686L30.3122 69.9857L29.0287 73.4678L28.1518 73.1438L29.4353 69.6616L28.12 69.1787L28.4123 68.3781L31.9199 69.6743L31.6276 70.4686ZM33.7054 72.9913L33.3114 74.6815L32.3964 74.4718L32.784 72.7943L32.0342 69.7061L33.0255 69.9349L33.4639 71.9936L34.7793 70.3415L35.7324 70.5576L33.7054 72.9913ZM36.2407 67.5075H35.7578V64.2732H35.7451L35.1033 64.6227L35.0017 64.2415L35.815 63.8094H36.2407V67.5075ZM36.8571 61.4647C35.9484 61.2931 35.0652 61.0643 34.201 60.7847V54.1763L19.2495 42.7133C19.1415 41.8237 19.0779 40.9214 19.0779 40C19.0779 39.8983 19.0843 39.7967 19.0843 39.6886L36.8571 53.1787V61.4647ZM40.5871 75.0183C40.2312 75.3995 39.7356 75.5711 39.1002 75.5393C38.4266 75.5075 37.9373 75.2724 37.6387 74.8467C37.3464 74.4146 37.2129 73.8237 37.2511 73.0675C37.2892 72.3177 37.4735 71.7395 37.8102 71.3392C38.1534 70.9388 38.6554 70.7609 39.3289 70.7927C40.0088 70.8245 40.4981 71.0532 40.7904 71.4853C41.0827 71.9174 41.2161 72.5083 41.178 73.2645C41.1399 74.0524 40.9429 74.6434 40.5871 75.0183ZM40.784 67.5075L42.3917 64.2351V64.2224H40.5807V63.8094H42.9127V64.1398L41.3051 67.5075H40.784ZM43.0716 72.6926L44.7491 72.5592L44.8126 73.3789L43.1351 73.5123L43.2813 75.4122L42.3535 75.4821L41.9977 70.9325L44.927 70.7037L44.9905 71.5489L42.9953 71.7077L43.0716 72.6926ZM44.3361 67.5711C43.9357 67.5711 43.5926 67.4567 43.4147 67.3423L43.5418 66.9611C43.6943 67.0564 43.9929 67.1644 44.3297 67.1644C44.7999 67.1644 45.2066 66.8594 45.2066 66.3638C45.2002 65.8872 44.8825 65.5441 44.1454 65.5441C43.9357 65.5441 43.7642 65.5695 43.6307 65.5822L43.8722 63.8094H45.6387V64.2288H44.228L44.0882 65.1819C44.1708 65.1692 44.2535 65.1565 44.3869 65.1565C44.6728 65.1565 44.9588 65.22 45.1875 65.3598C45.4735 65.525 45.7149 65.8427 45.7149 66.3066C45.7149 67.031 45.1367 67.5711 44.3361 67.5711ZM50.8301 73.7665C50.5823 74.0524 50.182 74.2621 49.6419 74.3956L47.977 74.8149L46.8587 70.3924L48.4218 69.9984C48.9937 69.8523 49.4195 69.8332 49.7054 69.9349C49.9913 70.0365 50.182 70.2716 50.2709 70.6275C50.3408 70.9007 50.3281 71.1422 50.2392 71.3455C50.1502 71.5489 49.9723 71.7204 49.699 71.8475C50.0867 71.803 50.3853 71.8539 50.6013 71.9936C50.8174 72.1334 50.9635 72.3622 51.0461 72.6799C51.1542 73.1183 51.0843 73.4869 50.8301 73.7665ZM55.3734 72.4194L54.7443 71.6759L53.1176 72.3431L53.1939 73.309L52.3361 73.6585L52.0056 68.8674L53.1303 68.4035L56.2566 72.0572L55.3734 72.4194ZM59.5863 70.1636L56.4981 68.2065L58.1566 71.0151L57.375 71.479L55.0493 67.552L56.0851 66.9357L58.989 68.7911L57.4131 66.1477L58.201 65.6775L60.533 69.6044L59.5863 70.1636ZM62.9159 67.552C62.8523 67.8634 62.6109 68.1811 62.2042 68.4925C62.1152 68.5623 61.9818 68.645 61.8039 68.7403C61.6196 68.8356 61.4671 68.9055 61.3273 68.9436L61.0477 68.1176C61.124 68.1048 61.2384 68.0667 61.3845 68.0032C61.537 67.9396 61.645 67.8824 61.7149 67.8316C61.842 67.7299 61.9246 67.641 61.95 67.5647C61.9818 67.4821 61.9755 67.3932 61.9373 67.2851C61.8928 67.1771 61.8039 67.0437 61.6832 66.8785L59.8087 64.4511L60.5457 63.8793L62.5728 66.5099C62.865 66.8912 62.9794 67.2407 62.9159 67.552ZM66.3917 64.6863L65.5275 64.2288L64.2693 65.4551L64.7014 66.3257L64.0342 66.9674L61.9437 62.6402L62.8142 61.7951L67.0779 64.0191L66.3917 64.6863ZM68.7237 62.0238L65.0509 59.3169L65.6037 58.5671L68.5902 60.772L69.7276 59.228L70.4139 59.7299L68.7237 62.0238ZM71.9516 57.3471C71.6276 57.9253 71.259 58.2685 70.846 58.3701C70.433 58.4782 69.9119 58.3574 69.2828 58.0016L66.9635 56.7053L67.4147 55.892L69.6768 57.1628C69.95 57.309 70.1788 57.4043 70.3631 57.4361C70.5473 57.4742 70.7062 57.4551 70.846 57.3852C70.9794 57.309 71.1065 57.1628 71.2272 56.9468C71.3988 56.6418 71.4433 56.3749 71.348 56.1652C71.2527 55.9492 71.0048 55.7331 70.6172 55.5107L68.3424 54.2399L68.7936 53.4329L71.1129 54.7291C71.7356 55.0786 72.1168 55.4535 72.2439 55.8602C72.3774 56.2669 72.282 56.7625 71.9516 57.3471ZM74.3345 51.8634L72.1041 52.359L72.3011 52.7339L73.788 53.2994L73.4512 54.17L69.1875 52.5433L69.5243 51.6728L71.1828 52.3082L70.0581 50.2748L70.4393 49.2645L71.672 51.552L74.7475 50.7768L74.3345 51.8634ZM75.6879 46.9706L74.7221 47.0532L74.3218 48.7689L75.1542 49.2645L74.9445 50.1668L70.846 47.6569L71.1192 46.475L75.9103 46.0429L75.6879 46.9706ZM73.8643 47.1231L71.8881 47.2947L73.5847 48.3241L73.8643 47.1231ZM53.0541 71.4853L54.1915 71.0214L52.9079 69.5091L53.0541 71.4853ZM11.9802 21.6362C11.8277 21.5409 11.6879 21.5346 11.5672 21.6108C11.4401 21.6871 11.3067 21.8396 11.1669 22.0683L10.8492 22.583L11.7006 23.0977L11.9993 22.6084C12.1454 22.3733 12.2153 22.1763 12.2217 22.0175C12.228 21.865 12.1454 21.7379 11.9802 21.6362ZM48.8222 9.20731C49.0064 9.15647 49.1272 9.01033 49.1843 8.76886C49.2225 8.61001 49.2225 8.48292 49.178 8.3749C49.1399 8.26688 49.0573 8.17792 48.9365 8.10802C48.8158 8.04448 48.6061 7.97458 48.3202 7.90469L47.7928 7.7776L47.4941 9.02939L48.0787 9.16918C48.3837 9.23908 48.6315 9.25179 48.8222 9.20731ZM53.4036 7.78396L52.1264 9.34075L53.2892 9.7919L53.4036 7.78396ZM62.5982 16.4956C62.8778 16.413 63.2018 16.1652 63.564 15.7522C63.9262 15.3392 64.1295 14.9897 64.1804 14.7037C64.2312 14.4114 64.1168 14.1446 63.8372 13.8967C63.564 13.6553 63.2844 13.5727 62.9985 13.6616C62.7189 13.7442 62.3948 13.9921 62.0326 14.4051C61.6768 14.8181 61.4671 15.1676 61.4226 15.4599C61.3718 15.7522 61.4862 16.0191 61.7594 16.2605C62.039 16.502 62.3186 16.5846 62.5982 16.4956ZM20.4314 64.2796L19.8786 63.8094L19.097 64.7434L19.618 65.1819C19.7769 65.3153 19.9103 65.4043 20.0247 65.4488C20.1327 65.4869 20.2344 65.4932 20.3233 65.4615C20.4187 65.4297 20.5203 65.3471 20.6347 65.2137C20.7809 65.0357 20.838 64.8769 20.7999 64.7434C20.7618 64.6037 20.6347 64.4511 20.4314 64.2796ZM18.0422 15.5361C17.9977 15.4154 17.9024 15.282 17.7499 15.1231C17.5656 14.9325 17.3813 14.8499 17.1971 14.8689C17.0191 14.888 16.7904 15.0278 16.5235 15.2883L16.1867 15.6124L17.2733 16.7244L17.5465 16.4575C17.7944 16.216 17.9469 16.0318 18.0104 15.9047C18.0676 15.7776 18.0803 15.6569 18.0422 15.5361ZM59.0589 13.7506C59.2431 13.7315 59.3956 13.6172 59.5291 13.4075C59.6498 13.2041 59.6752 13.0262 59.6053 12.8737C59.5418 12.7212 59.3766 12.5624 59.116 12.4035L58.5442 12.0604L57.8515 13.2041L58.4171 13.5473C58.6649 13.6998 58.8746 13.7633 59.0589 13.7506ZM13.9882 23.0469C14.0263 22.9071 14.0326 22.7927 13.9882 22.691C13.95 22.5957 13.8674 22.5068 13.7403 22.4241C13.5624 22.3161 13.3972 22.3034 13.2511 22.3797C13.1049 22.4496 12.9334 22.6529 12.7364 22.9833L12.3996 23.5298L13.3845 24.1271L13.6387 23.7204C13.8293 23.4091 13.9437 23.1803 13.9882 23.0469Z" fill="#1D1D1D"/>
</g>
<defs>
<clipPath id="clip0_66_164">
<rect width="80" height="80" fill="white" transform="translate(0.866638)"/>
</clipPath>
</defs>
</svg>
