<svg width="87" height="114" viewBox="0 0 87 114" fill="none" xmlns="http://www.w3.org/2000/svg">
<path d="M0 114C0 102.482 4.5755 91.4358 12.7199 83.2914C20.8644 75.1469 31.9106 70.5714 43.4286 70.5714C54.9465 70.5714 65.9928 75.1469 74.1372 83.2914C82.2816 91.4358 86.8571 102.482 86.8571 114H76C76 105.362 72.5684 97.0768 66.4601 90.9685C60.3517 84.8602 52.0671 81.4286 43.4286 81.4286C34.7901 81.4286 26.5054 84.8602 20.3971 90.9685C14.2888 97.0768 10.8571 105.362 10.8571 114H0ZM43.4286 65.1429C25.4329 65.1429 10.8571 50.5671 10.8571 32.5714C10.8571 14.5757 25.4329 0 43.4286 0C61.4243 0 76 14.5757 76 32.5714C76 50.5671 61.4243 65.1429 43.4286 65.1429ZM43.4286 54.2857C55.4257 54.2857 65.1429 44.5686 65.1429 32.5714C65.1429 20.5743 55.4257 10.8571 43.4286 10.8571C31.4314 10.8571 21.7143 20.5743 21.7143 32.5714C21.7143 44.5686 31.4314 54.2857 43.4286 54.2857Z" fill="#272727"/>
</svg>
