<svg width="600" height="101" viewBox="0 0 600 101" fill="none" xmlns="http://www.w3.org/2000/svg">
<path d="M0.00402069 -4.37079e-06L0.00401632 100.012L99.996 100.012L99.996 0L0.00402069 -4.37079e-06Z" fill="#F0F0F0"/>
<path d="M99.996 -4.37079e-06L137.184 -2.74527e-06C137.184 34.6923 165.316 62.8245 199.988 62.8245L199.988 100.012C144.77 100.012 99.996 55.2381 99.996 -4.37079e-06Z" fill="#E8E8E8"/>
<path d="M199.988 -4.37079e-06L199.988 100.012L299.98 100.012L299.98 0L199.988 -4.37079e-06Z" fill="#F0F0F0"/>
<path fill-rule="evenodd" clip-rule="evenodd" d="M399.972 49.9859C399.972 77.615 377.595 99.992 349.986 99.992C322.377 99.992 299.98 77.615 299.98 49.9859C299.98 22.3769 322.377 0 349.986 0C377.595 0 399.972 22.3769 399.972 49.9859ZM352.36 53.9301C352.36 57.4315 349.523 60.2487 346.042 60.2487C342.56 60.2487 339.723 57.4315 339.723 53.9301C339.723 50.4487 342.56 47.6114 346.042 47.6114C349.523 47.6114 352.36 50.4487 352.36 53.9301Z" fill="#F6F6F6"/>
<path d="M465.03 12.5367C465.03 13.8044 465.553 15.0521 466.459 15.9576C467.344 16.8632 468.592 17.3864 469.88 17.3864C471.147 17.3864 472.395 16.8632 473.301 15.9576C474.206 15.0521 474.709 13.8044 474.709 12.5367C474.709 11.2689 474.206 10.0213 473.301 9.11575C472.395 8.21021 471.147 7.68701 469.88 7.68701C468.592 7.68701 467.344 8.21021 466.459 9.11575C465.553 10.0213 465.03 11.2689 465.03 12.5367ZM405.345 87.4753C405.345 88.7431 405.848 89.9907 406.753 90.8963C407.659 91.8018 408.907 92.3049 410.174 92.3049C411.462 92.3049 412.71 91.8018 413.615 90.8963C414.501 89.9907 415.024 88.7431 415.024 87.4753C415.024 86.1874 414.501 84.9398 413.615 84.0343C412.71 83.1488 411.462 82.6256 410.174 82.6256C408.907 82.6256 407.659 83.1488 406.753 84.0343C405.848 84.9398 405.345 86.1874 405.345 87.4753ZM405.345 37.5095L405.345 37.5296C405.345 40.206 407.498 42.3793 410.174 42.3793C412.851 42.3793 415.024 40.206 415.024 37.5296L415.024 37.5095C415.024 34.8331 412.851 32.6598 410.174 32.6598C407.498 32.6598 405.345 34.8331 405.345 37.5095ZM405.345 62.4824L405.345 62.5025C405.345 65.1789 407.498 67.3522 410.174 67.3522C412.851 67.3522 415.024 65.1789 415.024 62.5025L415.024 62.4824C415.024 59.806 412.851 57.6327 410.174 57.6327C407.498 57.6327 405.345 59.806 405.345 62.4824ZM405.345 12.5367C405.345 13.8044 405.848 15.0521 406.753 15.9576C407.659 16.8632 408.907 17.3864 410.174 17.3864C411.462 17.3864 412.71 16.8632 413.615 15.9576C414.501 15.0521 415.024 13.8044 415.024 12.5367C415.024 11.2689 414.501 10.0213 413.615 9.11575C412.71 8.21021 411.462 7.68701 410.174 7.68701C408.907 7.68701 407.659 8.21021 406.753 9.11575C405.848 10.0213 405.345 11.2689 405.345 12.5367ZM425.226 87.4753C425.226 88.7431 425.75 89.9907 426.655 90.8963C427.561 91.8018 428.808 92.3049 430.076 92.3049C431.364 92.3049 432.612 91.8018 433.497 90.8963C434.403 89.9907 434.926 88.7431 434.926 87.4753C434.926 86.1874 434.403 84.9398 433.497 84.0343C432.612 83.1488 431.364 82.6256 430.076 82.6256C428.808 82.6256 427.561 83.1488 426.655 84.0343C425.75 84.9398 425.226 86.1874 425.226 87.4753ZM425.226 37.5095L425.226 37.5296C425.226 40.206 427.4 42.3793 430.076 42.3793C432.752 42.3793 434.926 40.206 434.926 37.5296L434.926 37.5095C434.926 34.8331 432.752 32.6598 430.076 32.6598C427.4 32.6598 425.226 34.8331 425.226 37.5095ZM425.226 62.4824L425.226 62.5025C425.226 65.1789 427.4 67.3522 430.076 67.3522C432.752 67.3522 434.926 65.1789 434.926 62.5025L434.926 62.4824C434.926 59.806 432.752 57.6327 430.076 57.6327C427.4 57.6327 425.226 59.806 425.226 62.4824ZM425.226 12.5367C425.226 13.8044 425.75 15.0521 426.655 15.9576C427.561 16.8632 428.808 17.3864 430.076 17.3864C431.364 17.3864 432.612 16.8632 433.497 15.9576C434.403 15.0521 434.926 13.8044 434.926 12.5367C434.926 11.2689 434.403 10.0213 433.497 9.11575C432.612 8.21021 431.364 7.68701 430.076 7.68701C428.808 7.68701 427.561 8.21021 426.655 9.11575C425.75 10.0213 425.226 11.2689 425.226 12.5367ZM445.128 87.4753C445.128 88.7431 445.651 89.9907 446.557 90.8963C447.462 91.8018 448.71 92.3049 449.978 92.3049C451.246 92.3049 452.493 91.8018 453.399 90.8963C454.304 89.9907 454.828 88.7431 454.828 87.4753C454.828 86.1874 454.304 84.9398 453.399 84.0343C452.493 83.1488 451.246 82.6256 449.978 82.6256C448.71 82.6256 447.462 83.1488 446.557 84.0343C445.651 84.9398 445.128 86.1874 445.128 87.4753ZM445.128 37.5095L445.128 37.5296C445.128 40.206 447.301 42.3793 449.978 42.3793C452.654 42.3793 454.828 40.206 454.828 37.5296L454.828 37.5095C454.828 34.8331 452.654 32.6598 449.978 32.6598C447.301 32.6598 445.128 34.8331 445.128 37.5095ZM445.128 62.4824L445.128 62.5025C445.128 65.1789 447.301 67.3522 449.978 67.3522C452.654 67.3522 454.828 65.1789 454.828 62.5025L454.828 62.4824C454.828 59.806 452.654 57.6327 449.978 57.6327C447.301 57.6327 445.128 59.806 445.128 62.4824ZM445.128 12.5367C445.128 13.8044 445.651 15.0521 446.557 15.9576C447.462 16.8632 448.71 17.3864 449.978 17.3864C451.246 17.3864 452.493 16.8632 453.399 15.9576C454.304 15.0521 454.828 13.8044 454.828 12.5367C454.828 11.2689 454.304 10.0213 453.399 9.11575C452.493 8.21021 451.246 7.68701 449.978 7.68701C448.71 7.68701 447.462 8.21021 446.557 9.11575C445.651 10.0213 445.128 11.2689 445.128 12.5367ZM484.932 87.4753C484.932 88.7431 485.435 89.9907 486.34 90.8963C487.246 91.8018 488.494 92.3049 489.761 92.3049C491.049 92.3049 492.297 91.8018 493.202 90.8963C494.108 89.9907 494.611 88.7431 494.611 87.4753C494.611 86.1874 494.108 84.9398 493.202 84.0343C492.297 83.1488 491.049 82.6256 489.761 82.6256C488.494 82.6256 487.246 83.1488 486.34 84.0343C485.435 84.9398 484.932 86.1874 484.932 87.4753ZM484.932 37.5095L484.932 37.5296C484.932 40.206 487.105 42.3793 489.761 42.3793C492.438 42.3793 494.611 40.206 494.611 37.5296L494.611 37.5095C494.611 34.8331 492.438 32.6598 489.761 32.6598C487.105 32.6598 484.932 34.8331 484.932 37.5095ZM484.932 62.4824L484.932 62.5025C484.932 65.1789 487.105 67.3522 489.761 67.3522C492.438 67.3522 494.611 65.1789 494.611 62.5025L494.611 62.4824C494.611 59.806 492.438 57.6327 489.761 57.6327C487.105 57.6327 484.932 59.806 484.932 62.4824ZM484.932 12.5367C484.932 13.8045 485.435 15.0521 486.34 15.9576C487.246 16.8632 488.494 17.3864 489.761 17.3864C491.049 17.3864 492.297 16.8632 493.202 15.9576C494.108 15.0521 494.611 13.8045 494.611 12.5367C494.611 11.2689 494.108 10.0213 493.202 9.11576C492.297 8.21021 491.049 7.68701 489.761 7.68701C488.494 7.68701 487.246 8.21021 486.34 9.11576C485.435 10.0213 484.932 11.2689 484.932 12.5367ZM465.03 87.4753C465.03 88.7431 465.553 89.9907 466.459 90.8963C467.344 91.8018 468.592 92.3049 469.88 92.3049C471.147 92.3049 472.395 91.8018 473.301 90.8963C474.206 89.9907 474.709 88.7431 474.709 87.4753C474.709 86.1874 474.206 84.9398 473.301 84.0343C472.395 83.1488 471.147 82.6256 469.88 82.6256C468.592 82.6256 467.344 83.1488 466.459 84.0343C465.553 84.9398 465.03 86.1874 465.03 87.4753ZM465.03 37.5095L465.03 37.5296C465.03 40.206 467.203 42.3793 469.88 42.3793C472.556 42.3793 474.709 40.206 474.709 37.5296L474.709 37.5095C474.709 34.8331 472.556 32.6598 469.88 32.6598C467.203 32.6598 465.03 34.8331 465.03 37.5095ZM465.03 62.4824L465.03 62.5025C465.03 65.1789 467.203 67.3522 469.88 67.3522C472.556 67.3522 474.709 65.1789 474.709 62.5025L474.709 62.4824C474.709 59.806 472.556 57.6327 469.88 57.6327C467.203 57.6327 465.03 59.806 465.03 62.4824Z" fill="#F0F0F0"/>
<path d="M499.984 100.012L499.984 -4.37167e-06L599.996 0C599.996 55.2381 555.222 100.012 499.984 100.012Z" fill="#E8E8E8"/>
</svg>
