<svg width="1100" height="500" viewBox="0 0 1100 500" fill="none" xmlns="http://www.w3.org/2000/svg">
<g clip-path="url(#clip0_168_708)">
<path d="M12.5396 134.944C13.8173 134.944 15.0636 134.427 15.9645 133.524C16.8689 132.621 17.3845 131.375 17.3845 130.099C17.3845 128.823 16.8689 127.577 15.9645 126.674C15.0636 125.772 13.8173 125.256 12.5396 125.256C11.2638 125.256 10.0174 125.772 9.11475 126.674C8.21383 127.577 7.69653 128.823 7.69653 130.099C7.69653 131.375 8.21383 132.621 9.11475 133.524C10.0174 134.427 11.2638 134.944 12.5396 134.944ZM87.4707 194.634C88.7466 194.634 89.993 194.118 90.8956 193.218C91.7983 192.315 92.3156 191.067 92.3156 189.791C92.3156 188.517 91.7983 187.269 90.8956 186.366C89.993 185.465 88.7466 184.948 87.4707 184.948C86.1949 184.948 84.9468 185.465 84.0458 186.366C83.1432 187.269 82.6259 188.517 82.6259 189.791C82.6259 191.067 83.1432 192.315 84.0458 193.218C84.9468 194.118 86.1949 194.634 87.4707 194.634ZM37.5051 194.634H37.5311C40.2061 194.634 42.3742 192.468 42.3742 189.791C42.3742 187.116 40.2061 184.948 37.5311 184.948H37.5051C34.8301 184.948 32.6603 187.116 32.6603 189.791C32.6603 192.468 34.8301 194.634 37.5051 194.634ZM62.4827 194.634H62.507C65.182 194.634 67.3501 192.468 67.3501 189.791C67.3501 187.116 65.182 184.948 62.507 184.948H62.4827C59.8077 184.948 57.6379 187.116 57.6379 189.791C57.6379 192.468 59.8077 194.634 62.4827 194.634ZM12.5396 194.634C13.8173 194.634 15.0636 194.118 15.9645 193.218C16.8689 192.315 17.3845 191.067 17.3845 189.791C17.3845 188.517 16.8689 187.269 15.9645 186.366C15.0636 185.465 13.8173 184.948 12.5396 184.948C11.2638 184.948 10.0174 185.465 9.11475 186.366C8.21383 187.269 7.69653 188.517 7.69653 189.791C7.69653 191.067 8.21383 192.315 9.11475 193.218C10.0174 194.118 11.2638 194.634 12.5396 194.634ZM87.4707 174.739C88.7466 174.739 89.993 174.22 90.8956 173.319C91.7983 172.417 92.3156 171.17 92.3156 169.894C92.3156 168.618 91.7983 167.372 90.8956 166.469C89.993 165.567 88.7466 165.051 87.4707 165.051C86.1949 165.051 84.9468 165.567 84.0458 166.469C83.1432 167.372 82.6259 168.618 82.6259 169.894C82.6259 171.17 83.1432 172.417 84.0458 173.319C84.9468 174.22 86.1949 174.739 87.4707 174.739ZM37.5051 174.739H37.5311C40.2061 174.739 42.3742 172.569 42.3742 169.894C42.3742 167.219 40.2061 165.051 37.5311 165.051H37.5051C34.8301 165.051 32.6603 167.219 32.6603 169.894C32.6603 172.569 34.8301 174.739 37.5051 174.739ZM62.4827 174.739H62.507C65.182 174.739 67.3501 172.569 67.3501 169.894C67.3501 167.219 65.182 165.051 62.507 165.051H62.4827C59.8077 165.051 57.6379 167.219 57.6379 169.894C57.6379 172.569 59.8077 174.739 62.4827 174.739ZM12.5396 174.739C13.8173 174.739 15.0636 174.22 15.9645 173.319C16.8689 172.417 17.3845 171.17 17.3845 169.894C17.3845 168.618 16.8689 167.372 15.9645 166.469C15.0636 165.567 13.8173 165.051 12.5396 165.051C11.2638 165.051 10.0174 165.567 9.11475 166.469C8.21383 167.372 7.69653 168.618 7.69653 169.894C7.69653 171.17 8.21383 172.417 9.11475 173.319C10.0174 174.22 11.2638 174.739 12.5396 174.739ZM87.4707 154.841C88.7466 154.841 89.993 154.323 90.8956 153.421C91.7983 152.522 92.3156 151.272 92.3156 149.998C92.3156 148.722 91.7983 147.474 90.8956 146.571C89.993 145.67 88.7466 145.153 87.4707 145.153C86.1949 145.153 84.9468 145.67 84.0458 146.571C83.1432 147.474 82.6259 148.722 82.6259 149.998C82.6259 151.272 83.1432 152.522 84.0458 153.421C84.9468 154.323 86.1949 154.841 87.4707 154.841ZM37.5051 154.841H37.5311C40.2061 154.841 42.3742 152.671 42.3742 149.998C42.3742 147.321 40.2061 145.153 37.5311 145.153H37.5051C34.8301 145.153 32.6603 147.321 32.6603 149.998C32.6603 152.671 34.8301 154.841 37.5051 154.841ZM62.4827 154.841H62.507C65.182 154.841 67.3501 152.671 67.3501 149.998C67.3501 147.321 65.182 145.153 62.507 145.153H62.4827C59.8077 145.153 57.6379 147.321 57.6379 149.998C57.6379 152.671 59.8077 154.841 62.4827 154.841ZM12.5396 154.841C13.8173 154.841 15.0636 154.323 15.9645 153.421C16.8689 152.522 17.3845 151.272 17.3845 149.998C17.3845 148.722 16.8689 147.474 15.9645 146.571C15.0636 145.67 13.8173 145.153 12.5396 145.153C11.2638 145.153 10.0174 145.67 9.11475 146.571C8.21383 147.474 7.69653 148.722 7.69653 149.998C7.69653 151.272 8.21383 152.522 9.11475 153.421C10.0174 154.323 11.2638 154.841 12.5396 154.841ZM87.4707 115.047C88.7466 115.047 89.993 114.528 90.8956 113.627C91.7983 112.725 92.3156 111.478 92.3156 110.204C92.3156 108.927 91.7983 107.68 90.8956 106.778C89.993 105.875 88.7466 105.359 87.4707 105.359C86.1949 105.359 84.9468 105.875 84.0458 106.778C83.1432 107.68 82.6259 108.927 82.6259 110.204C82.6259 111.478 83.1432 112.725 84.0458 113.627C84.9468 114.528 86.1949 115.047 87.4707 115.047ZM37.5051 115.047H37.5311C40.2061 115.047 42.3742 112.877 42.3742 110.204C42.3742 107.527 40.2061 105.359 37.5311 105.359H37.5051C34.8301 105.359 32.6603 107.527 32.6603 110.204C32.6603 112.877 34.8301 115.047 37.5051 115.047ZM62.4827 115.047H62.507C65.182 115.047 67.3501 112.877 67.3501 110.204C67.3501 107.527 65.182 105.359 62.507 105.359H62.4827C59.8077 105.359 57.6379 107.527 57.6379 110.204C57.6379 112.877 59.8077 115.047 62.4827 115.047ZM12.5396 115.047C13.8173 115.047 15.0636 114.528 15.9645 113.627C16.8689 112.725 17.3845 111.478 17.3845 110.204C17.3845 108.927 16.8689 107.68 15.9645 106.778C15.0636 105.875 13.8173 105.359 12.5396 105.359C11.2638 105.359 10.0174 105.875 9.11475 106.778C8.21383 107.68 7.69653 108.927 7.69653 110.204C7.69653 111.478 8.21383 112.725 9.11475 113.627C10.0174 114.528 11.2638 115.047 12.5396 115.047ZM87.4707 134.944C88.7466 134.944 89.993 134.427 90.8956 133.524C91.7983 132.621 92.3156 131.375 92.3156 130.099C92.3156 128.823 91.7983 127.577 90.8956 126.674C89.993 125.772 88.7466 125.256 87.4707 125.256C86.1949 125.256 84.9468 125.772 84.0458 126.674C83.1432 127.577 82.6259 128.823 82.6259 130.099C82.6259 131.375 83.1432 132.621 84.0458 133.524C84.9468 134.427 86.1949 134.944 87.4707 134.944ZM37.5051 134.944H37.5311C40.2061 134.944 42.3742 132.774 42.3742 130.099C42.3742 127.422 40.2061 125.256 37.5311 125.256H37.5051C34.8301 125.256 32.6603 127.422 32.6603 130.099C32.6603 132.774 34.8301 134.944 37.5051 134.944ZM62.4827 134.944H62.507C65.182 134.944 67.3501 132.774 67.3501 130.099C67.3501 127.422 65.182 125.256 62.507 125.256H62.4827C59.8077 125.256 57.6379 127.422 57.6379 130.099C57.6379 132.774 59.8077 134.944 62.4827 134.944Z" fill="#EB4836"/>
<path d="M200.003 99.999V137.19C165.316 137.19 137.195 165.31 137.195 199.998H100.004C100.004 144.769 144.776 99.999 200.003 99.999Z" fill="#FFCA45"/>
<path d="M399.999 200H500V99.999H399.999V200Z" fill="#EB4836"/>
<path d="M412.534 434.946C413.81 434.946 415.056 434.429 415.959 433.526C416.861 432.623 417.379 431.377 417.379 430.101C417.379 428.825 416.861 427.577 415.959 426.676C415.056 425.774 413.81 425.258 412.534 425.258C411.258 425.258 410.01 425.774 409.107 426.676C408.206 427.577 407.689 428.825 407.689 430.101C407.689 431.377 408.206 432.623 409.107 433.526C410.01 434.429 411.258 434.946 412.534 434.946ZM487.463 494.636C488.739 494.636 489.985 494.121 490.89 493.22C491.791 492.317 492.308 491.069 492.308 489.793C492.308 488.519 491.791 487.269 490.89 486.368C489.985 485.465 488.739 484.948 487.463 484.948C486.187 484.948 484.941 485.465 484.038 486.368C483.136 487.269 482.62 488.519 482.62 489.793C482.62 491.069 483.136 492.317 484.038 493.22C484.941 494.121 486.187 494.636 487.463 494.636ZM437.499 494.636H437.524C440.199 494.636 442.367 492.468 442.367 489.793C442.367 487.118 440.199 484.948 437.524 484.948H437.499C434.824 484.948 432.654 487.118 432.654 489.793C432.654 492.468 434.824 494.636 437.499 494.636ZM462.475 494.636H462.499C465.174 494.636 467.343 492.468 467.343 489.793C467.343 487.118 465.174 484.948 462.499 484.948H462.475C459.8 484.948 457.632 487.118 457.632 489.793C457.632 492.468 459.8 494.636 462.475 494.636ZM412.534 494.636C413.81 494.636 415.056 494.121 415.959 493.22C416.861 492.317 417.379 491.069 417.379 489.793C417.379 488.519 416.861 487.269 415.959 486.368C415.056 485.465 413.81 484.948 412.534 484.948C411.258 484.948 410.01 485.465 409.107 486.368C408.206 487.269 407.689 488.519 407.689 489.793C407.689 491.069 408.206 492.317 409.107 493.22C410.01 494.121 411.258 494.636 412.534 494.636ZM487.463 474.739C488.739 474.739 489.985 474.222 490.89 473.321C491.791 472.419 492.308 471.172 492.308 469.896C492.308 468.62 491.791 467.374 490.89 466.471C489.985 465.569 488.739 465.053 487.463 465.053C486.187 465.053 484.941 465.569 484.038 466.471C483.136 467.374 482.62 468.62 482.62 469.896C482.62 471.172 483.136 472.419 484.038 473.321C484.941 474.222 486.187 474.739 487.463 474.739ZM437.499 474.739H437.524C440.199 474.739 442.367 472.571 442.367 469.896C442.367 467.221 440.199 465.053 437.524 465.053H437.499C434.824 465.053 432.654 467.221 432.654 469.896C432.654 472.571 434.824 474.739 437.499 474.739ZM462.475 474.739H462.499C465.174 474.739 467.343 472.571 467.343 469.896C467.343 467.221 465.174 465.053 462.499 465.053H462.475C459.8 465.053 457.632 467.221 457.632 469.896C457.632 472.571 459.8 474.739 462.475 474.739ZM412.534 474.739C413.81 474.739 415.056 474.222 415.959 473.321C416.861 472.419 417.379 471.172 417.379 469.896C417.379 468.62 416.861 467.374 415.959 466.471C415.056 465.569 413.81 465.053 412.534 465.053C411.258 465.053 410.01 465.569 409.107 466.471C408.206 467.374 407.689 468.62 407.689 469.896C407.689 471.172 408.206 472.419 409.107 473.321C410.01 474.222 411.258 474.739 412.534 474.739ZM487.463 454.843C488.739 454.843 489.985 454.325 490.89 453.423C491.791 452.522 492.308 451.272 492.308 449.998C492.308 448.724 491.791 447.474 490.89 446.573C489.985 445.67 488.739 445.155 487.463 445.155C486.187 445.155 484.941 445.67 484.038 446.573C483.136 447.474 482.62 448.724 482.62 449.998C482.62 451.272 483.136 452.522 484.038 453.423C484.941 454.325 486.187 454.843 487.463 454.843ZM437.499 454.843H437.524C440.199 454.843 442.367 452.673 442.367 449.998C442.367 447.323 440.199 445.155 437.524 445.155H437.499C434.824 445.155 432.654 447.323 432.654 449.998C432.654 452.673 434.824 454.843 437.499 454.843ZM462.475 454.843H462.499C465.174 454.843 467.343 452.673 467.343 449.998C467.343 447.323 465.174 445.155 462.499 445.155H462.475C459.8 445.155 457.632 447.323 457.632 449.998C457.632 452.673 459.8 454.843 462.475 454.843ZM412.534 454.843C413.81 454.843 415.056 454.325 415.959 453.423C416.861 452.522 417.379 451.272 417.379 449.998C417.379 448.724 416.861 447.474 415.959 446.573C415.056 445.67 413.81 445.155 412.534 445.155C411.258 445.155 410.01 445.67 409.107 446.573C408.206 447.474 407.689 448.724 407.689 449.998C407.689 451.272 408.206 452.522 409.107 453.423C410.01 454.325 411.258 454.843 412.534 454.843ZM487.463 415.049C488.739 415.049 489.985 414.53 490.89 413.629C491.791 412.727 492.308 411.48 492.308 410.206C492.308 408.929 491.791 407.682 490.89 406.78C489.985 405.877 488.739 405.361 487.463 405.361C486.187 405.361 484.941 405.877 484.038 406.78C483.136 407.682 482.62 408.929 482.62 410.206C482.62 411.48 483.136 412.727 484.038 413.629C484.941 414.53 486.187 415.049 487.463 415.049ZM437.499 415.049H437.524C440.199 415.049 442.367 412.878 442.367 410.206C442.367 407.53 440.199 405.361 437.524 405.361H437.499C434.824 405.361 432.654 407.53 432.654 410.206C432.654 412.878 434.824 415.049 437.499 415.049ZM462.475 415.049H462.499C465.174 415.049 467.343 412.878 467.343 410.206C467.343 407.53 465.174 405.361 462.499 405.361H462.475C459.8 405.361 457.632 407.53 457.632 410.206C457.632 412.878 459.8 415.049 462.475 415.049ZM412.534 415.049C413.81 415.049 415.056 414.53 415.959 413.629C416.861 412.727 417.379 411.48 417.379 410.206C417.379 408.929 416.861 407.682 415.959 406.78C415.056 405.877 413.81 405.361 412.534 405.361C411.258 405.361 410.01 405.877 409.107 406.78C408.206 407.682 407.689 408.929 407.689 410.206C407.689 411.48 408.206 412.727 409.107 413.629C410.01 414.53 411.258 415.049 412.534 415.049ZM487.463 434.946C488.739 434.946 489.985 434.429 490.89 433.526C491.791 432.623 492.308 431.377 492.308 430.101C492.308 428.825 491.791 427.577 490.89 426.676C489.985 425.774 488.739 425.258 487.463 425.258C486.187 425.258 484.941 425.774 484.038 426.676C483.136 427.577 482.62 428.825 482.62 430.101C482.62 431.377 483.136 432.623 484.038 433.526C484.941 434.429 486.187 434.946 487.463 434.946ZM437.499 434.946H437.524C440.199 434.946 442.367 432.776 442.367 430.101C442.367 427.425 440.199 425.258 437.524 425.258H437.499C434.824 425.258 432.654 427.425 432.654 430.101C432.654 432.776 434.824 434.946 437.499 434.946ZM462.475 434.946H462.499C465.174 434.946 467.343 432.776 467.343 430.101C467.343 427.425 465.174 425.258 462.499 425.258H462.475C459.8 425.258 457.632 427.425 457.632 430.101C457.632 432.776 459.8 434.946 462.475 434.946Z" fill="#1D1D1D"/>
<path d="M399.999 399.998V362.806C434.687 362.806 462.807 334.687 462.807 299.999H499.998C499.998 355.227 455.226 399.998 399.999 399.998Z" fill="#EB4836"/>
<path d="M500 299.999H399.999V200.001C455.228 200.001 500 244.772 500 299.999Z" fill="#FFCA45"/>
<path d="M599.997 299.999V262.809C634.683 262.809 662.805 234.69 662.805 200.001H699.996C699.996 255.23 655.224 299.999 599.997 299.999Z" fill="#FFCA45"/>
<path d="M500 99.999H462.808C462.808 65.3126 434.689 37.1913 400.001 37.1913V0.0017395C455.23 0.0017395 500 44.7719 500 99.999Z" fill="#1D1D1D"/>
<path d="M512.533 134.946C513.808 134.946 515.055 134.428 515.957 133.526C516.86 132.623 517.377 131.377 517.377 130.101C517.377 128.825 516.86 127.577 515.957 126.676C515.055 125.773 513.808 125.256 512.533 125.256C511.257 125.256 510.01 125.773 509.108 126.676C508.207 127.577 507.689 128.825 507.689 130.101C507.689 131.377 508.207 132.623 509.108 133.526C510.01 134.428 511.257 134.946 512.533 134.946ZM587.462 194.636C588.74 194.636 589.984 194.12 590.889 193.218C591.789 192.317 592.307 191.069 592.307 189.793C592.307 188.517 591.789 187.269 590.889 186.368C589.984 185.465 588.74 184.948 587.462 184.948C586.186 184.948 584.94 185.465 584.039 186.368C583.134 187.269 582.619 188.517 582.619 189.793C582.619 191.069 583.134 192.317 584.039 193.218C584.94 194.12 586.186 194.636 587.462 194.636ZM537.498 194.636H537.522C540.197 194.636 542.365 192.468 542.365 189.793C542.365 187.118 540.197 184.948 537.522 184.948H537.498C534.823 184.948 532.653 187.118 532.653 189.793C532.653 192.468 534.823 194.636 537.498 194.636ZM562.474 194.636H562.498C565.175 194.636 567.343 192.468 567.343 189.793C567.343 187.118 565.175 184.948 562.498 184.948H562.474C559.801 184.948 557.631 187.118 557.631 189.793C557.631 192.468 559.801 194.636 562.474 194.636ZM512.533 194.636C513.808 194.636 515.055 194.12 515.957 193.218C516.86 192.317 517.377 191.069 517.377 189.793C517.377 188.517 516.86 187.269 515.957 186.368C515.055 185.465 513.808 184.948 512.533 184.948C511.257 184.948 510.01 185.465 509.108 186.368C508.207 187.269 507.689 188.517 507.689 189.793C507.689 191.069 508.207 192.317 509.108 193.218C510.01 194.12 511.257 194.636 512.533 194.636ZM587.462 174.741C588.74 174.741 589.984 174.222 590.889 173.321C591.789 172.418 592.307 171.172 592.307 169.896C592.307 168.62 591.789 167.372 590.889 166.471C589.984 165.568 588.74 165.051 587.462 165.051C586.186 165.051 584.94 165.568 584.039 166.471C583.134 167.372 582.619 168.62 582.619 169.896C582.619 171.172 583.134 172.418 584.039 173.321C584.94 174.222 586.186 174.741 587.462 174.741ZM537.498 174.741H537.522C540.197 174.741 542.365 172.571 542.365 169.896C542.365 167.221 540.197 165.051 537.522 165.051H537.498C534.823 165.051 532.653 167.221 532.653 169.896C532.653 172.571 534.823 174.741 537.498 174.741ZM562.474 174.741H562.498C565.175 174.741 567.343 172.571 567.343 169.896C567.343 167.221 565.175 165.051 562.498 165.051H562.474C559.801 165.051 557.631 167.221 557.631 169.896C557.631 172.571 559.801 174.741 562.474 174.741ZM512.533 174.741C513.808 174.741 515.055 174.222 515.957 173.321C516.86 172.418 517.377 171.172 517.377 169.896C517.377 168.62 516.86 167.372 515.957 166.471C515.055 165.568 513.808 165.051 512.533 165.051C511.257 165.051 510.01 165.568 509.108 166.471C508.207 167.372 507.689 168.62 507.689 169.896C507.689 171.172 508.207 172.418 509.108 173.321C510.01 174.222 511.257 174.741 512.533 174.741ZM587.462 154.842C588.74 154.842 589.984 154.323 590.889 153.422C591.789 152.522 592.307 151.273 592.307 149.999C592.307 148.722 591.789 147.475 590.889 146.573C589.984 145.67 588.74 145.154 587.462 145.154C586.186 145.154 584.94 145.67 584.039 146.573C583.134 147.475 582.619 148.722 582.619 149.999C582.619 151.273 583.134 152.522 584.039 153.422C584.94 154.323 586.186 154.842 587.462 154.842ZM537.498 154.842H537.522C540.197 154.842 542.365 152.673 542.365 149.999C542.365 147.323 540.197 145.154 537.522 145.154H537.498C534.823 145.154 532.653 147.323 532.653 149.999C532.653 152.673 534.823 154.842 537.498 154.842ZM562.474 154.842H562.498C565.175 154.842 567.343 152.673 567.343 149.999C567.343 147.323 565.175 145.154 562.498 145.154H562.474C559.801 145.154 557.631 147.323 557.631 149.999C557.631 152.673 559.801 154.842 562.474 154.842ZM512.533 154.842C513.808 154.842 515.055 154.323 515.957 153.422C516.86 152.522 517.377 151.273 517.377 149.999C517.377 148.722 516.86 147.475 515.957 146.573C515.055 145.67 513.808 145.154 512.533 145.154C511.257 145.154 510.01 145.67 509.108 146.573C508.207 147.475 507.689 148.722 507.689 149.999C507.689 151.273 508.207 152.522 509.108 153.422C510.01 154.323 511.257 154.842 512.533 154.842ZM587.462 115.049C588.74 115.049 589.984 114.53 590.889 113.629C591.789 112.726 592.307 111.48 592.307 110.206C592.307 108.928 591.789 107.682 590.889 106.779C589.984 105.877 588.74 105.361 587.462 105.361C586.186 105.361 584.94 105.877 584.039 106.779C583.134 107.682 582.619 108.928 582.619 110.206C582.619 111.48 583.134 112.726 584.039 113.629C584.94 114.53 586.186 115.049 587.462 115.049ZM537.498 115.049H537.522C540.197 115.049 542.365 112.879 542.365 110.206C542.365 107.529 540.197 105.361 537.522 105.361H537.498C534.823 105.361 532.653 107.529 532.653 110.206C532.653 112.879 534.823 115.049 537.498 115.049ZM562.474 115.049H562.498C565.175 115.049 567.343 112.879 567.343 110.206C567.343 107.529 565.175 105.361 562.498 105.361H562.474C559.801 105.361 557.631 107.529 557.631 110.206C557.631 112.879 559.801 115.049 562.474 115.049ZM512.533 115.049C513.808 115.049 515.055 114.53 515.957 113.629C516.86 112.726 517.377 111.48 517.377 110.206C517.377 108.928 516.86 107.682 515.957 106.779C515.055 105.877 513.808 105.361 512.533 105.361C511.257 105.361 510.01 105.877 509.108 106.779C508.207 107.682 507.689 108.928 507.689 110.206C507.689 111.48 508.207 112.726 509.108 113.629C510.01 114.53 511.257 115.049 512.533 115.049ZM587.462 134.946C588.74 134.946 589.984 134.428 590.889 133.526C591.789 132.623 592.307 131.377 592.307 130.101C592.307 128.825 591.789 127.577 590.889 126.676C589.984 125.773 588.74 125.256 587.462 125.256C586.186 125.256 584.94 125.773 584.039 126.676C583.134 127.577 582.619 128.825 582.619 130.101C582.619 131.377 583.134 132.623 584.039 133.526C584.94 134.428 586.186 134.946 587.462 134.946ZM537.498 134.946H537.522C540.197 134.946 542.365 132.776 542.365 130.101C542.365 127.424 540.197 125.256 537.522 125.256H537.498C534.823 125.256 532.653 127.424 532.653 130.101C532.653 132.776 534.823 134.946 537.498 134.946ZM562.474 134.946H562.498C565.175 134.946 567.343 132.776 567.343 130.101C567.343 127.424 565.175 125.256 562.498 125.256H562.474C559.801 125.256 557.631 127.424 557.631 130.101C557.631 132.776 559.801 134.946 562.474 134.946Z" fill="#FFCA45"/>
<path d="M200.003 200H300.002V99.999H200.003V200Z" fill="#EB4836"/>
<path d="M100.006 199.998H200.005V299.995C144.776 299.995 100.006 255.227 100.006 199.998Z" fill="#1D1D1D"/>
<path fill-rule="evenodd" clip-rule="evenodd" d="M300.002 249.997C300.002 277.611 277.617 299.995 250.003 299.995C222.389 299.995 200.003 277.611 200.003 249.997C200.003 222.382 222.389 199.998 250.003 199.998C277.617 199.998 300.002 222.382 300.002 249.997ZM252.378 253.937C252.378 257.424 249.55 260.25 246.063 260.25C242.575 260.25 239.749 257.424 239.749 253.937C239.749 250.448 242.575 247.622 246.063 247.622C249.55 247.622 252.378 250.448 252.378 253.937Z" fill="#FFCA45"/>
<path d="M312.535 234.946C313.812 234.946 315.057 234.429 315.96 233.526C316.864 232.626 317.38 231.379 317.38 230.102C317.38 228.826 316.864 227.579 315.96 226.677C315.057 225.774 313.812 225.258 312.535 225.258C311.259 225.258 310.013 225.774 309.11 226.677C308.209 227.579 307.692 228.826 307.692 230.102C307.692 231.379 308.209 232.626 309.11 233.526C310.013 234.429 311.259 234.946 312.535 234.946ZM387.464 294.636C388.742 294.636 389.988 294.121 390.891 293.22C391.792 292.317 392.309 291.071 392.309 289.793C392.309 288.519 391.792 287.271 390.891 286.37C389.988 285.468 388.742 284.95 387.464 284.95C386.188 284.95 384.942 285.468 384.041 286.37C383.137 287.271 382.621 288.519 382.621 289.793C382.621 291.071 383.137 292.317 384.041 293.22C384.942 294.121 386.188 294.636 387.464 294.636ZM337.5 294.636H337.525C340.2 294.636 342.369 292.47 342.369 289.793C342.369 287.12 340.2 284.95 337.525 284.95H337.5C334.825 284.95 332.655 287.12 332.655 289.793C332.655 292.47 334.825 294.636 337.5 294.636ZM362.476 294.636H362.502C365.177 294.636 367.345 292.47 367.345 289.793C367.345 287.12 365.177 284.95 362.502 284.95H362.476C359.803 284.95 357.633 287.12 357.633 289.793C357.633 292.47 359.803 294.636 362.476 294.636ZM312.535 294.636C313.812 294.636 315.057 294.121 315.96 293.22C316.864 292.317 317.38 291.071 317.38 289.793C317.38 288.519 316.864 287.271 315.96 286.37C315.057 285.468 313.812 284.95 312.535 284.95C311.259 284.95 310.013 285.468 309.11 286.37C308.209 287.271 307.692 288.519 307.692 289.793C307.692 291.071 308.209 292.317 309.11 293.22C310.013 294.121 311.259 294.636 312.535 294.636ZM387.464 274.741C388.742 274.741 389.988 274.224 390.891 273.322C391.792 272.421 392.309 271.173 392.309 269.897C392.309 268.622 391.792 267.374 390.891 266.472C389.988 265.569 388.742 265.054 387.464 265.054C386.188 265.054 384.942 265.569 384.041 266.472C383.137 267.374 382.621 268.622 382.621 269.897C382.621 271.173 383.137 272.421 384.041 273.322C384.942 274.224 386.188 274.741 387.464 274.741ZM337.5 274.741H337.525C340.2 274.741 342.369 272.572 342.369 269.897C342.369 267.222 340.2 265.054 337.525 265.054H337.5C334.825 265.054 332.655 267.222 332.655 269.897C332.655 272.572 334.825 274.741 337.5 274.741ZM362.476 274.741H362.502C365.177 274.741 367.345 272.572 367.345 269.897C367.345 267.222 365.177 265.054 362.502 265.054H362.476C359.803 265.054 357.633 267.222 357.633 269.897C357.633 272.572 359.803 274.741 362.476 274.741ZM312.535 274.741C313.812 274.741 315.057 274.224 315.96 273.322C316.864 272.421 317.38 271.173 317.38 269.897C317.38 268.622 316.864 267.374 315.96 266.472C315.057 265.569 313.812 265.054 312.535 265.054C311.259 265.054 310.013 265.569 309.11 266.472C308.209 267.374 307.692 268.622 307.692 269.897C307.692 271.173 308.209 272.421 309.11 273.322C310.013 274.224 311.259 274.741 312.535 274.741ZM387.464 254.845C388.742 254.845 389.988 254.326 390.891 253.423C391.792 252.524 392.309 251.276 392.309 250C392.309 248.724 391.792 247.478 390.891 246.575C389.988 245.672 388.742 245.157 387.464 245.157C386.188 245.157 384.942 245.672 384.041 246.575C383.137 247.478 382.621 248.724 382.621 250C382.621 251.276 383.137 252.524 384.041 253.423C384.942 254.326 386.188 254.845 387.464 254.845ZM337.5 254.845H337.525C340.2 254.845 342.369 252.673 342.369 250C342.369 247.325 340.2 245.157 337.525 245.157H337.5C334.825 245.157 332.655 247.325 332.655 250C332.655 252.673 334.825 254.845 337.5 254.845ZM362.476 254.845H362.502C365.177 254.845 367.345 252.673 367.345 250C367.345 247.325 365.177 245.157 362.502 245.157H362.476C359.803 245.157 357.633 247.325 357.633 250C357.633 252.673 359.803 254.845 362.476 254.845ZM312.535 254.845C313.812 254.845 315.057 254.326 315.96 253.423C316.864 252.524 317.38 251.276 317.38 250C317.38 248.724 316.864 247.478 315.96 246.575C315.057 245.672 313.812 245.157 312.535 245.157C311.259 245.157 310.013 245.672 309.11 246.575C308.209 247.478 307.692 248.724 307.692 250C307.692 251.276 308.209 252.524 309.11 253.423C310.013 254.326 311.259 254.845 312.535 254.845ZM387.464 215.05C388.742 215.05 389.988 214.532 390.891 213.631C391.792 212.729 392.309 211.481 392.309 210.207C392.309 208.931 391.792 207.683 390.891 206.78C389.988 205.877 388.742 205.362 387.464 205.362C386.188 205.362 384.942 205.877 384.041 206.78C383.137 207.683 382.621 208.931 382.621 210.207C382.621 211.481 383.137 212.729 384.041 213.631C384.942 214.532 386.188 215.05 387.464 215.05ZM337.5 215.05H337.525C340.2 215.05 342.369 212.882 342.369 210.207C342.369 207.53 340.2 205.362 337.525 205.362H337.5C334.825 205.362 332.655 207.53 332.655 210.207C332.655 212.882 334.825 215.05 337.5 215.05ZM362.476 215.05H362.502C365.177 215.05 367.345 212.882 367.345 210.207C367.345 207.53 365.177 205.362 362.502 205.362H362.476C359.803 205.362 357.633 207.53 357.633 210.207C357.633 212.882 359.803 215.05 362.476 215.05ZM312.535 215.05C313.812 215.05 315.057 214.532 315.96 213.631C316.864 212.729 317.38 211.481 317.38 210.207C317.38 208.931 316.864 207.683 315.96 206.78C315.057 205.877 313.812 205.362 312.535 205.362C311.259 205.362 310.013 205.877 309.11 206.78C308.209 207.683 307.692 208.931 307.692 210.207C307.692 211.481 308.209 212.729 309.11 213.631C310.013 214.532 311.259 215.05 312.535 215.05ZM387.464 234.946C388.742 234.946 389.988 234.429 390.891 233.526C391.792 232.626 392.309 231.379 392.309 230.102C392.309 228.826 391.792 227.579 390.891 226.677C389.988 225.774 388.742 225.258 387.464 225.258C386.188 225.258 384.942 225.774 384.041 226.677C383.137 227.579 382.621 228.826 382.621 230.102C382.621 231.379 383.137 232.626 384.041 233.526C384.942 234.429 386.188 234.946 387.464 234.946ZM337.5 234.946H337.525C340.2 234.946 342.369 232.777 342.369 230.102C342.369 227.427 340.2 225.258 337.525 225.258H337.5C334.825 225.258 332.655 227.427 332.655 230.102C332.655 232.777 334.825 234.946 337.5 234.946ZM362.476 234.946H362.502C365.177 234.946 367.345 232.777 367.345 230.102C367.345 227.427 365.177 225.258 362.502 225.258H362.476C359.803 225.258 357.633 227.427 357.633 230.102C357.633 232.777 359.803 234.946 362.476 234.946Z" fill="#EB4836"/>
<path d="M300.002 199.998V99.999H399.999C399.999 155.226 355.229 199.998 300.002 199.998Z" fill="#1D1D1D"/>
<path fill-rule="evenodd" clip-rule="evenodd" d="M399.999 50.0004C399.999 77.6148 377.615 99.999 350 99.999C322.386 99.999 300 77.6148 300 50.0004C300 22.3859 322.386 0.0017395 350 0.0017395C377.615 0.0017395 399.999 22.3859 399.999 50.0004ZM352.375 53.9391C352.375 57.4282 349.547 60.2542 346.06 60.2542C342.572 60.2542 339.746 57.4282 339.746 53.9391C339.746 50.4517 342.572 47.6257 346.06 47.6257C349.547 47.6257 352.375 50.4517 352.375 53.9391Z" fill="#FFCA45"/>
<path d="M300.002 300H337.193C337.193 334.687 365.311 362.808 399.999 362.808V399.999C344.772 399.999 300.002 355.227 300.002 300Z" fill="#1D1D1D"/>
<path d="M300.002 500H400.001V399.999H300.002V500Z" fill="#FFCA45"/>
<path fill-rule="evenodd" clip-rule="evenodd" d="M599.997 249.997C599.997 277.611 577.613 299.995 549.996 299.995C522.384 299.995 499.998 277.611 499.998 249.997C499.998 222.382 522.384 199.998 549.996 199.998C577.613 199.998 599.997 222.382 599.997 249.997ZM552.373 253.937C552.373 257.424 549.545 260.25 546.058 260.25C542.57 260.25 539.744 257.424 539.744 253.937C539.744 250.448 542.57 247.622 546.058 247.622C549.545 247.622 552.373 250.448 552.373 253.937Z" fill="#1D1D1D"/>
<path d="M599.997 200H699.996V99.999H599.997V200Z" fill="#EB4836"/>
<path d="M599.997 399.999V299.999H699.996C699.996 355.227 655.226 399.999 599.997 399.999Z" fill="#EB4836"/>
<path fill-rule="evenodd" clip-rule="evenodd" d="M699.996 49.9986C699.996 77.613 677.612 99.999 649.997 99.999C622.383 99.999 599.997 77.613 599.997 49.9986C599.997 22.3842 622.383 0 649.997 0C677.612 0 699.996 22.3842 699.996 49.9986ZM652.372 53.9391C652.372 57.4264 649.544 60.2525 646.057 60.2525C642.569 60.2525 639.743 57.4264 639.743 53.9391C639.743 50.4517 642.569 47.6239 646.057 47.6239C649.544 47.6239 652.372 50.4517 652.372 53.9391Z" fill="#1D1D1D"/>
<path d="M712.531 234.945C713.807 234.945 715.053 234.427 715.956 233.525C716.858 232.622 717.376 231.376 717.376 230.1C717.376 228.824 716.858 227.578 715.956 226.675C715.053 225.772 713.807 225.257 712.531 225.257C711.255 225.257 710.007 225.772 709.106 226.675C708.203 227.578 707.686 228.824 707.686 230.1C707.686 231.376 708.203 232.622 709.106 233.525C710.007 234.427 711.255 234.945 712.531 234.945ZM787.46 294.635C788.736 294.635 789.982 294.119 790.887 293.218C791.788 292.316 792.305 291.068 792.305 289.792C792.305 288.518 791.788 287.269 790.887 286.367C789.982 285.466 788.736 284.949 787.46 284.949C786.184 284.949 784.938 285.466 784.037 286.367C783.132 287.269 782.617 288.518 782.617 289.792C782.617 291.068 783.132 292.316 784.037 293.218C784.938 294.119 786.184 294.635 787.46 294.635ZM737.496 294.635H737.52C740.195 294.635 742.364 292.468 742.364 289.792C742.364 287.117 740.195 284.949 737.52 284.949H737.496C734.821 284.949 732.651 287.117 732.651 289.792C732.651 292.468 734.821 294.635 737.496 294.635ZM762.472 294.635H762.496C765.171 294.635 767.341 292.468 767.341 289.792C767.341 287.117 765.171 284.949 762.496 284.949H762.472C759.799 284.949 757.629 287.117 757.629 289.792C757.629 292.468 759.799 294.635 762.472 294.635ZM712.531 294.635C713.807 294.635 715.053 294.119 715.956 293.218C716.858 292.316 717.376 291.068 717.376 289.792C717.376 288.518 716.858 287.269 715.956 286.367C715.053 285.466 713.807 284.949 712.531 284.949C711.255 284.949 710.007 285.466 709.106 286.367C708.203 287.269 707.686 288.518 707.686 289.792C707.686 291.068 708.203 292.316 709.106 293.218C710.007 294.119 711.255 294.635 712.531 294.635ZM787.46 274.74C788.736 274.74 789.982 274.221 790.887 273.32C791.788 272.417 792.305 271.171 792.305 269.895C792.305 268.619 791.788 267.373 790.887 266.47C789.982 265.567 788.736 265.052 787.46 265.052C786.184 265.052 784.938 265.567 784.037 266.47C783.132 267.373 782.617 268.619 782.617 269.895C782.617 271.171 783.132 272.417 784.037 273.32C784.938 274.221 786.184 274.74 787.46 274.74ZM737.496 274.74H737.52C740.195 274.74 742.364 272.57 742.364 269.895C742.364 267.22 740.195 265.052 737.52 265.052H737.496C734.821 265.052 732.651 267.22 732.651 269.895C732.651 272.57 734.821 274.74 737.496 274.74ZM762.472 274.74H762.496C765.171 274.74 767.341 272.57 767.341 269.895C767.341 267.22 765.171 265.052 762.496 265.052H762.472C759.799 265.052 757.629 267.22 757.629 269.895C757.629 272.57 759.799 274.74 762.472 274.74ZM712.531 274.74C713.807 274.74 715.053 274.221 715.956 273.32C716.858 272.417 717.376 271.171 717.376 269.895C717.376 268.619 716.858 267.373 715.956 266.47C715.053 265.567 713.807 265.052 712.531 265.052C711.255 265.052 710.007 265.567 709.106 266.47C708.203 267.373 707.686 268.619 707.686 269.895C707.686 271.171 708.203 272.417 709.106 273.32C710.007 274.221 711.255 274.74 712.531 274.74ZM787.46 254.841C788.736 254.841 789.982 254.324 790.887 253.421C791.788 252.521 792.305 251.272 792.305 249.998C792.305 248.722 791.788 247.474 790.887 246.572C789.982 245.671 788.736 245.153 787.46 245.153C786.184 245.153 784.938 245.671 784.037 246.572C783.132 247.474 782.617 248.722 782.617 249.998C782.617 251.272 783.132 252.521 784.037 253.421C784.938 254.324 786.184 254.841 787.46 254.841ZM737.496 254.841H737.52C740.195 254.841 742.364 252.672 742.364 249.998C742.364 247.322 740.195 245.153 737.52 245.153H737.496C734.821 245.153 732.651 247.322 732.651 249.998C732.651 252.672 734.821 254.841 737.496 254.841ZM762.472 254.841H762.496C765.171 254.841 767.341 252.672 767.341 249.998C767.341 247.322 765.171 245.153 762.496 245.153H762.472C759.799 245.153 757.629 247.322 757.629 249.998C757.629 252.672 759.799 254.841 762.472 254.841ZM712.531 254.841C713.807 254.841 715.053 254.324 715.956 253.421C716.858 252.521 717.376 251.272 717.376 249.998C717.376 248.722 716.858 247.474 715.956 246.572C715.053 245.671 713.807 245.153 712.531 245.153C711.255 245.153 710.007 245.671 709.106 246.572C708.203 247.474 707.686 248.722 707.686 249.998C707.686 251.272 708.203 252.521 709.106 253.421C710.007 254.324 711.255 254.841 712.531 254.841ZM787.46 215.048C788.736 215.048 789.982 214.529 790.887 213.628C791.788 212.725 792.305 211.479 792.305 210.205C792.305 208.927 791.788 207.681 790.887 206.778C789.982 205.876 788.736 205.36 787.46 205.36C786.184 205.36 784.938 205.876 784.037 206.778C783.132 207.681 782.617 208.927 782.617 210.205C782.617 211.479 783.132 212.725 784.037 213.628C784.938 214.529 786.184 215.048 787.46 215.048ZM737.496 215.048H737.52C740.195 215.048 742.364 212.878 742.364 210.205C742.364 207.528 740.195 205.36 737.52 205.36H737.496C734.821 205.36 732.651 207.528 732.651 210.205C732.651 212.878 734.821 215.048 737.496 215.048ZM762.472 215.048H762.496C765.171 215.048 767.341 212.878 767.341 210.205C767.341 207.528 765.171 205.36 762.496 205.36H762.472C759.799 205.36 757.629 207.528 757.629 210.205C757.629 212.878 759.799 215.048 762.472 215.048ZM712.531 215.048C713.807 215.048 715.053 214.529 715.956 213.628C716.858 212.725 717.376 211.479 717.376 210.205C717.376 208.927 716.858 207.681 715.956 206.778C715.053 205.876 713.807 205.36 712.531 205.36C711.255 205.36 710.007 205.876 709.106 206.778C708.203 207.681 707.686 208.927 707.686 210.205C707.686 211.479 708.203 212.725 709.106 213.628C710.007 214.529 711.255 215.048 712.531 215.048ZM787.46 234.945C788.736 234.945 789.982 234.427 790.887 233.525C791.788 232.622 792.305 231.376 792.305 230.1C792.305 228.824 791.788 227.578 790.887 226.675C789.982 225.772 788.736 225.257 787.46 225.257C786.184 225.257 784.938 225.772 784.037 226.675C783.132 227.578 782.617 228.824 782.617 230.1C782.617 231.376 783.132 232.622 784.037 233.525C784.938 234.427 786.184 234.945 787.46 234.945ZM737.496 234.945H737.52C740.195 234.945 742.364 232.775 742.364 230.1C742.364 227.423 740.195 225.257 737.52 225.257H737.496C734.821 225.257 732.651 227.423 732.651 230.1C732.651 232.775 734.821 234.945 737.496 234.945ZM762.472 234.945H762.496C765.171 234.945 767.341 232.775 767.341 230.1C767.341 227.423 765.171 225.257 762.496 225.257H762.472C759.799 225.257 757.629 227.423 757.629 230.1C757.629 232.775 759.799 234.945 762.472 234.945Z" fill="#1D1D1D"/>
<path d="M699.996 99.999H799.997V199.996C744.768 199.996 699.996 155.226 699.996 99.999Z" fill="#FFCA45"/>
<path fill-rule="evenodd" clip-rule="evenodd" d="M899.994 249.996C899.994 277.613 877.609 299.997 849.995 299.997C822.381 299.997 799.995 277.613 799.995 249.996C799.995 222.384 822.381 200 849.995 200C877.609 200 899.994 222.384 899.994 249.996ZM852.37 253.937C852.37 257.424 849.542 260.252 846.054 260.252C842.567 260.252 839.741 257.424 839.741 253.937C839.741 250.45 842.567 247.624 846.054 247.624C849.542 247.624 852.37 250.45 852.37 253.937Z" fill="#FFCA45"/>
<path d="M899.996 199.998H862.804C862.804 165.31 834.685 137.19 799.997 137.19V99.999C855.225 99.999 899.996 144.771 899.996 199.998Z" fill="#EB4836"/>
<path d="M912.529 134.944C913.806 134.944 915.051 134.427 915.954 133.524C916.858 132.621 917.373 131.375 917.373 130.099C917.373 128.823 916.858 127.577 915.954 126.674C915.051 125.772 913.806 125.256 912.529 125.256C911.253 125.256 910.006 125.772 909.104 126.674C908.203 127.577 907.686 128.823 907.686 130.099C907.686 131.375 908.203 132.621 909.104 133.524C910.006 134.427 911.253 134.944 912.529 134.944ZM987.458 194.634C988.736 194.634 989.982 194.118 990.885 193.218C991.786 192.315 992.303 191.067 992.303 189.791C992.303 188.517 991.786 187.269 990.885 186.366C989.982 185.465 988.736 184.948 987.458 184.948C986.184 184.948 984.936 185.465 984.035 186.366C983.132 187.269 982.615 188.517 982.615 189.791C982.615 191.067 983.132 192.315 984.035 193.218C984.936 194.118 986.184 194.634 987.458 194.634ZM937.494 194.634H937.52C940.195 194.634 942.363 192.468 942.363 189.791C942.363 187.116 940.195 184.948 937.52 184.948H937.494C934.819 184.948 932.649 187.116 932.649 189.791C932.649 192.468 934.819 194.634 937.494 194.634ZM962.47 194.634H962.496C965.171 194.634 967.339 192.468 967.339 189.791C967.339 187.116 965.171 184.948 962.496 184.948H962.47C959.797 184.948 957.627 187.116 957.627 189.791C957.627 192.468 959.797 194.634 962.47 194.634ZM912.529 194.634C913.806 194.634 915.051 194.118 915.954 193.218C916.858 192.315 917.373 191.067 917.373 189.791C917.373 188.517 916.858 187.269 915.954 186.366C915.051 185.465 913.806 184.948 912.529 184.948C911.253 184.948 910.006 185.465 909.104 186.366C908.203 187.269 907.686 188.517 907.686 189.791C907.686 191.067 908.203 192.315 909.104 193.218C910.006 194.118 911.253 194.634 912.529 194.634ZM987.458 174.739C988.736 174.739 989.982 174.22 990.885 173.319C991.786 172.417 992.303 171.17 992.303 169.894C992.303 168.618 991.786 167.372 990.885 166.469C989.982 165.567 988.736 165.051 987.458 165.051C986.184 165.051 984.936 165.567 984.035 166.469C983.132 167.372 982.615 168.618 982.615 169.894C982.615 171.17 983.132 172.417 984.035 173.319C984.936 174.22 986.184 174.739 987.458 174.739ZM937.494 174.739H937.52C940.195 174.739 942.363 172.569 942.363 169.894C942.363 167.219 940.195 165.051 937.52 165.051H937.494C934.819 165.051 932.649 167.219 932.649 169.894C932.649 172.569 934.819 174.739 937.494 174.739ZM962.47 174.739H962.496C965.171 174.739 967.339 172.569 967.339 169.894C967.339 167.219 965.171 165.051 962.496 165.051H962.47C959.797 165.051 957.627 167.219 957.627 169.894C957.627 172.569 959.797 174.739 962.47 174.739ZM912.529 174.739C913.806 174.739 915.051 174.22 915.954 173.319C916.858 172.417 917.373 171.17 917.373 169.894C917.373 168.618 916.858 167.372 915.954 166.469C915.051 165.567 913.806 165.051 912.529 165.051C911.253 165.051 910.006 165.567 909.104 166.469C908.203 167.372 907.686 168.618 907.686 169.894C907.686 171.17 908.203 172.417 909.104 173.319C910.006 174.22 911.253 174.739 912.529 174.739ZM987.458 154.841C988.736 154.841 989.982 154.323 990.885 153.421C991.786 152.522 992.303 151.272 992.303 149.998C992.303 148.722 991.786 147.474 990.885 146.571C989.982 145.67 988.736 145.153 987.458 145.153C986.184 145.153 984.936 145.67 984.035 146.571C983.132 147.474 982.615 148.722 982.615 149.998C982.615 151.272 983.132 152.522 984.035 153.421C984.936 154.323 986.184 154.841 987.458 154.841ZM937.494 154.841H937.52C940.195 154.841 942.363 152.671 942.363 149.998C942.363 147.321 940.195 145.153 937.52 145.153H937.494C934.819 145.153 932.649 147.321 932.649 149.998C932.649 152.671 934.819 154.841 937.494 154.841ZM962.47 154.841H962.496C965.171 154.841 967.339 152.671 967.339 149.998C967.339 147.321 965.171 145.153 962.496 145.153H962.47C959.797 145.153 957.627 147.321 957.627 149.998C957.627 152.671 959.797 154.841 962.47 154.841ZM912.529 154.841C913.806 154.841 915.051 154.323 915.954 153.421C916.858 152.522 917.373 151.272 917.373 149.998C917.373 148.722 916.858 147.474 915.954 146.571C915.051 145.67 913.806 145.153 912.529 145.153C911.253 145.153 910.006 145.67 909.104 146.571C908.203 147.474 907.686 148.722 907.686 149.998C907.686 151.272 908.203 152.522 909.104 153.421C910.006 154.323 911.253 154.841 912.529 154.841ZM987.458 115.047C988.736 115.047 989.982 114.528 990.885 113.627C991.786 112.725 992.303 111.478 992.303 110.204C992.303 108.927 991.786 107.68 990.885 106.778C989.982 105.875 988.736 105.359 987.458 105.359C986.184 105.359 984.936 105.875 984.035 106.778C983.132 107.68 982.615 108.927 982.615 110.204C982.615 111.478 983.132 112.725 984.035 113.627C984.936 114.528 986.184 115.047 987.458 115.047ZM937.494 115.047H937.52C940.195 115.047 942.363 112.877 942.363 110.204C942.363 107.527 940.195 105.359 937.52 105.359H937.494C934.819 105.359 932.649 107.527 932.649 110.204C932.649 112.877 934.819 115.047 937.494 115.047ZM962.47 115.047H962.496C965.171 115.047 967.339 112.877 967.339 110.204C967.339 107.527 965.171 105.359 962.496 105.359H962.47C959.797 105.359 957.627 107.527 957.627 110.204C957.627 112.877 959.797 115.047 962.47 115.047ZM912.529 115.047C913.806 115.047 915.051 114.528 915.954 113.627C916.858 112.725 917.373 111.478 917.373 110.204C917.373 108.927 916.858 107.68 915.954 106.778C915.051 105.875 913.806 105.359 912.529 105.359C911.253 105.359 910.006 105.875 909.104 106.778C908.203 107.68 907.686 108.927 907.686 110.204C907.686 111.478 908.203 112.725 909.104 113.627C910.006 114.528 911.253 115.047 912.529 115.047ZM987.458 134.944C988.736 134.944 989.982 134.427 990.885 133.524C991.786 132.621 992.303 131.375 992.303 130.099C992.303 128.823 991.786 127.577 990.885 126.674C989.982 125.772 988.736 125.256 987.458 125.256C986.184 125.256 984.936 125.772 984.035 126.674C983.132 127.577 982.615 128.823 982.615 130.099C982.615 131.375 983.132 132.621 984.035 133.524C984.936 134.427 986.184 134.944 987.458 134.944ZM937.494 134.944H937.52C940.195 134.944 942.363 132.774 942.363 130.099C942.363 127.422 940.195 125.256 937.52 125.256H937.494C934.819 125.256 932.649 127.422 932.649 130.099C932.649 132.774 934.819 134.944 937.494 134.944ZM962.47 134.944H962.496C965.171 134.944 967.339 132.774 967.339 130.099C967.339 127.422 965.171 125.256 962.496 125.256H962.47C959.797 125.256 957.627 127.422 957.627 130.099C957.627 132.774 959.797 134.944 962.47 134.944Z" fill="#1D1D1D"/>
<path d="M999.993 299.999H1099.99V199.998H999.993V299.999Z" fill="#EB4836"/>
</g>
<defs>
<clipPath id="clip0_168_708">
<rect width="1100" height="500" fill="white"/>
</clipPath>
</defs>
</svg>
