<svg width="360" height="400" viewBox="0 0 360 400" fill="none" xmlns="http://www.w3.org/2000/svg">
<path d="M60.1069 159.856H140.036V79.9273H60.1069V159.856Z" fill="#F0F0F0"/>
<path d="M70.1258 347.644C71.1456 347.644 72.1418 347.231 72.8633 346.509C73.5847 345.788 73.9982 344.792 73.9982 343.772C73.9982 342.752 73.5847 341.755 72.8633 341.034C72.1418 340.313 71.1456 339.901 70.1258 339.901C69.106 339.901 68.1084 340.313 67.387 341.034C66.6669 341.755 66.2534 342.752 66.2534 343.772C66.2534 344.792 66.6669 345.788 67.387 346.509C68.1084 347.231 69.106 347.644 70.1258 347.644ZM130.015 395.353C131.035 395.353 132.031 394.941 132.754 394.221C133.474 393.5 133.888 392.502 133.888 391.482C133.888 390.464 133.474 389.465 132.754 388.745C132.031 388.023 131.035 387.61 130.015 387.61C128.996 387.61 127.999 388.023 127.278 388.745C126.557 389.465 126.144 390.464 126.144 391.482C126.144 392.502 126.557 393.5 127.278 394.221C127.999 394.941 128.996 395.353 130.015 395.353ZM90.0802 395.353H90.0997C92.2377 395.353 93.9707 393.62 93.9707 391.482C93.9707 389.344 92.2377 387.61 90.0997 387.61H90.0802C87.9422 387.61 86.2078 389.344 86.2078 391.482C86.2078 393.62 87.9422 395.353 90.0802 395.353ZM110.043 395.353H110.062C112.2 395.353 113.933 393.62 113.933 391.482C113.933 389.344 112.2 387.61 110.062 387.61H110.043C107.905 387.61 106.172 389.344 106.172 391.482C106.172 393.62 107.905 395.353 110.043 395.353ZM70.1258 395.353C71.1456 395.353 72.1418 394.941 72.8633 394.221C73.5847 393.5 73.9982 392.502 73.9982 391.482C73.9982 390.464 73.5847 389.465 72.8633 388.745C72.1418 388.023 71.1456 387.61 70.1258 387.61C69.106 387.61 68.1084 388.023 67.387 388.745C66.6669 389.465 66.2534 390.464 66.2534 391.482C66.2534 392.502 66.6669 393.5 67.387 394.221C68.1084 394.941 69.106 395.353 70.1258 395.353ZM130.015 379.45C131.035 379.45 132.031 379.037 132.754 378.317C133.474 377.595 133.888 376.599 133.888 375.579C133.888 374.56 133.474 373.563 132.754 372.842C132.031 372.12 131.035 371.708 130.015 371.708C128.996 371.708 127.999 372.12 127.278 372.842C126.557 373.563 126.144 374.56 126.144 375.579C126.144 376.599 126.557 377.595 127.278 378.317C127.999 379.037 128.996 379.45 130.015 379.45ZM90.0802 379.45H90.0997C92.2377 379.45 93.9707 377.717 93.9707 375.579C93.9707 373.441 92.2377 371.708 90.0997 371.708H90.0802C87.9422 371.708 86.2078 373.441 86.2078 375.579C86.2078 377.717 87.9422 379.45 90.0802 379.45ZM110.043 379.45H110.062C112.2 379.45 113.933 377.717 113.933 375.579C113.933 373.441 112.2 371.708 110.062 371.708H110.043C107.905 371.708 106.172 373.441 106.172 375.579C106.172 377.717 107.905 379.45 110.043 379.45ZM70.1258 379.45C71.1456 379.45 72.1418 379.037 72.8633 378.317C73.5847 377.595 73.9982 376.599 73.9982 375.579C73.9982 374.56 73.5847 373.563 72.8633 372.842C72.1418 372.12 71.1456 371.708 70.1258 371.708C69.106 371.708 68.1084 372.12 67.387 372.842C66.6669 373.563 66.2534 374.56 66.2534 375.579C66.2534 376.599 66.6669 377.595 67.387 378.317C68.1084 379.037 69.106 379.45 70.1258 379.45ZM130.015 363.547C131.035 363.547 132.031 363.134 132.754 362.412C133.474 361.692 133.888 360.693 133.888 359.675C133.888 358.657 133.474 357.658 132.754 356.937C132.031 356.216 131.035 355.804 130.015 355.804C128.996 355.804 127.999 356.216 127.278 356.937C126.557 357.658 126.144 358.657 126.144 359.675C126.144 360.693 126.557 361.692 127.278 362.412C127.999 363.134 128.996 363.547 130.015 363.547ZM90.0802 363.547H90.0997C92.2377 363.547 93.9707 361.813 93.9707 359.675C93.9707 357.537 92.2377 355.804 90.0997 355.804H90.0802C87.9422 355.804 86.2078 357.537 86.2078 359.675C86.2078 361.813 87.9422 363.547 90.0802 363.547ZM110.043 363.547H110.062C112.2 363.547 113.933 361.813 113.933 359.675C113.933 357.537 112.2 355.804 110.062 355.804H110.043C107.905 355.804 106.172 357.537 106.172 359.675C106.172 361.813 107.905 363.547 110.043 363.547ZM70.1258 363.547C71.1456 363.547 72.1418 363.134 72.8633 362.412C73.5847 361.692 73.9982 360.693 73.9982 359.675C73.9982 358.657 73.5847 357.658 72.8633 356.937C72.1418 356.216 71.1456 355.804 70.1258 355.804C69.106 355.804 68.1084 356.216 67.387 356.937C66.6669 357.658 66.2534 358.657 66.2534 359.675C66.2534 360.693 66.6669 361.692 67.387 362.412C68.1084 363.134 69.106 363.547 70.1258 363.547ZM130.015 331.741C131.035 331.741 132.031 331.326 132.754 330.606C133.474 329.885 133.888 328.889 133.888 327.87C133.888 326.849 133.474 325.853 132.754 325.131C132.031 324.41 131.035 323.998 130.015 323.998C128.996 323.998 127.999 324.41 127.278 325.131C126.557 325.853 126.144 326.849 126.144 327.87C126.144 328.889 126.557 329.885 127.278 330.606C127.999 331.326 128.996 331.741 130.015 331.741ZM90.0802 331.741H90.0997C92.2377 331.741 93.9707 330.006 93.9707 327.87C93.9707 325.731 92.2377 323.998 90.0997 323.998H90.0802C87.9422 323.998 86.2078 325.731 86.2078 327.87C86.2078 330.006 87.9422 331.741 90.0802 331.741ZM110.043 331.741H110.062C112.2 331.741 113.933 330.006 113.933 327.87C113.933 325.731 112.2 323.998 110.062 323.998H110.043C107.905 323.998 106.172 325.731 106.172 327.87C106.172 330.006 107.905 331.741 110.043 331.741ZM70.1258 331.741C71.1456 331.741 72.1418 331.326 72.8633 330.606C73.5847 329.885 73.9982 328.889 73.9982 327.87C73.9982 326.849 73.5847 325.853 72.8633 325.131C72.1418 324.41 71.1456 323.998 70.1258 323.998C69.106 323.998 68.1084 324.41 67.387 325.131C66.6669 325.853 66.2534 326.849 66.2534 327.87C66.2534 328.889 66.6669 329.885 67.387 330.606C68.1084 331.326 69.106 331.741 70.1258 331.741ZM130.015 347.644C131.035 347.644 132.031 347.231 132.754 346.509C133.474 345.788 133.888 344.792 133.888 343.772C133.888 342.752 133.474 341.755 132.754 341.034C132.031 340.313 131.035 339.901 130.015 339.901C128.996 339.901 127.999 340.313 127.278 341.034C126.557 341.755 126.144 342.752 126.144 343.772C126.144 344.792 126.557 345.788 127.278 346.509C127.999 347.231 128.996 347.644 130.015 347.644ZM90.0802 347.644H90.0997C92.2377 347.644 93.9707 345.91 93.9707 343.772C93.9707 341.632 92.2377 339.901 90.0997 339.901H90.0802C87.9422 339.901 86.2078 341.632 86.2078 343.772C86.2078 345.91 87.9422 347.644 90.0802 347.644ZM110.043 347.644H110.062C112.2 347.644 113.933 345.91 113.933 343.772C113.933 341.632 112.2 339.901 110.062 339.901H110.043C107.905 339.901 106.172 341.632 106.172 343.772C106.172 345.91 107.905 347.644 110.043 347.644Z" fill="#E8E8E8"/>
<path d="M60.1069 319.711V289.984C87.8325 289.984 110.308 267.509 110.308 239.783H140.034C140.034 283.927 104.249 319.711 60.1069 319.711Z" fill="#F0F0F0"/>
<path d="M140.036 239.783H60.1069V159.857C104.25 159.857 140.036 195.641 140.036 239.783Z" fill="#F6F6F6"/>
<path d="M219.962 239.783V210.058C247.686 210.058 270.163 187.583 270.163 159.857H299.889C299.889 204.001 264.104 239.783 219.962 239.783Z" fill="#F6F6F6"/>
<path d="M140.036 79.9273H110.309C110.309 52.2031 87.834 29.7263 60.1084 29.7263V0.00138474C104.252 0.00138474 140.036 35.7853 140.036 79.9273Z" fill="#E8E8E8"/>
<path d="M150.053 107.86C151.073 107.86 152.069 107.446 152.791 106.725C153.512 106.003 153.926 105.007 153.926 103.987C153.926 102.967 153.512 101.97 152.791 101.25C152.069 100.528 151.073 100.115 150.053 100.115C149.033 100.115 148.037 100.528 147.316 101.25C146.596 101.97 146.182 102.967 146.182 103.987C146.182 105.007 146.596 106.003 147.316 106.725C148.037 107.446 149.033 107.86 150.053 107.86ZM209.943 155.569C210.964 155.569 211.959 155.157 212.682 154.435C213.402 153.715 213.815 152.718 213.815 151.698C213.815 150.678 213.402 149.68 212.682 148.96C211.959 148.239 210.964 147.825 209.943 147.825C208.923 147.825 207.927 148.239 207.207 148.96C206.484 149.68 206.072 150.678 206.072 151.698C206.072 152.718 206.484 153.715 207.207 154.435C207.927 155.157 208.923 155.569 209.943 155.569ZM170.008 155.569H170.027C172.165 155.569 173.898 153.836 173.898 151.698C173.898 149.56 172.165 147.825 170.027 147.825H170.008C167.869 147.825 166.135 149.56 166.135 151.698C166.135 153.836 167.869 155.569 170.008 155.569ZM189.97 155.569H189.99C192.129 155.569 193.862 153.836 193.862 151.698C193.862 149.56 192.129 147.825 189.99 147.825H189.97C187.834 147.825 186.099 149.56 186.099 151.698C186.099 153.836 187.834 155.569 189.97 155.569ZM150.053 155.569C151.073 155.569 152.069 155.157 152.791 154.435C153.512 153.715 153.926 152.718 153.926 151.698C153.926 150.678 153.512 149.68 152.791 148.96C152.069 148.239 151.073 147.825 150.053 147.825C149.033 147.825 148.037 148.239 147.316 148.96C146.596 149.68 146.182 150.678 146.182 151.698C146.182 152.718 146.596 153.715 147.316 154.435C148.037 155.157 149.033 155.569 150.053 155.569ZM209.943 139.667C210.964 139.667 211.959 139.252 212.682 138.532C213.402 137.811 213.815 136.814 213.815 135.795C213.815 134.775 213.402 133.777 212.682 133.057C211.959 132.336 210.964 131.922 209.943 131.922C208.923 131.922 207.927 132.336 207.207 133.057C206.484 133.777 206.072 134.775 206.072 135.795C206.072 136.814 206.484 137.811 207.207 138.532C207.927 139.252 208.923 139.667 209.943 139.667ZM170.008 139.667H170.027C172.165 139.667 173.898 137.933 173.898 135.795C173.898 133.657 172.165 131.922 170.027 131.922H170.008C167.869 131.922 166.135 133.657 166.135 135.795C166.135 137.933 167.869 139.667 170.008 139.667ZM189.97 139.667H189.99C192.129 139.667 193.862 137.933 193.862 135.795C193.862 133.657 192.129 131.922 189.99 131.922H189.97C187.834 131.922 186.099 133.657 186.099 135.795C186.099 137.933 187.834 139.667 189.97 139.667ZM150.053 139.667C151.073 139.667 152.069 139.252 152.791 138.532C153.512 137.811 153.926 136.814 153.926 135.795C153.926 134.775 153.512 133.777 152.791 133.057C152.069 132.336 151.073 131.922 150.053 131.922C149.033 131.922 148.037 132.336 147.316 133.057C146.596 133.777 146.182 134.775 146.182 135.795C146.182 136.814 146.596 137.811 147.316 138.532C148.037 139.252 149.033 139.667 150.053 139.667ZM209.943 123.763C210.964 123.763 211.959 123.348 212.682 122.628C213.402 121.908 213.815 120.91 213.815 119.892C213.815 118.87 213.402 117.874 212.682 117.153C211.959 116.431 210.964 116.019 209.943 116.019C208.923 116.019 207.927 116.431 207.207 117.153C206.484 117.874 206.072 118.87 206.072 119.892C206.072 120.91 206.484 121.908 207.207 122.628C207.927 123.348 208.923 123.763 209.943 123.763ZM170.008 123.763H170.027C172.165 123.763 173.898 122.028 173.898 119.892C173.898 117.752 172.165 116.019 170.027 116.019H170.008C167.869 116.019 166.135 117.752 166.135 119.892C166.135 122.028 167.869 123.763 170.008 123.763ZM189.97 123.763H189.99C192.129 123.763 193.862 122.028 193.862 119.892C193.862 117.752 192.129 116.019 189.99 116.019H189.97C187.834 116.019 186.099 117.752 186.099 119.892C186.099 122.028 187.834 123.763 189.97 123.763ZM150.053 123.763C151.073 123.763 152.069 123.348 152.791 122.628C153.512 121.908 153.926 120.91 153.926 119.892C153.926 118.87 153.512 117.874 152.791 117.153C152.069 116.431 151.073 116.019 150.053 116.019C149.033 116.019 148.037 116.431 147.316 117.153C146.596 117.874 146.182 118.87 146.182 119.892C146.182 120.91 146.596 121.908 147.316 122.628C148.037 123.348 149.033 123.763 150.053 123.763ZM209.943 91.9566C210.964 91.9566 211.959 91.5417 212.682 90.8216C213.402 90.1001 213.815 89.1039 213.815 88.0855C213.815 87.0644 213.402 86.0682 212.682 85.3467C211.959 84.6252 210.964 84.2132 209.943 84.2132C208.923 84.2132 207.927 84.6252 207.207 85.3467C206.484 86.0682 206.072 87.0644 206.072 88.0855C206.072 89.1039 206.484 90.1001 207.207 90.8216C207.927 91.5417 208.923 91.9566 209.943 91.9566ZM170.008 91.9566H170.027C172.165 91.9566 173.898 90.2222 173.898 88.0855C173.898 85.9461 172.165 84.2132 170.027 84.2132H170.008C167.869 84.2132 166.135 85.9461 166.135 88.0855C166.135 90.2222 167.869 91.9566 170.008 91.9566ZM189.97 91.9566H189.99C192.129 91.9566 193.862 90.2222 193.862 88.0855C193.862 85.9461 192.129 84.2132 189.99 84.2132H189.97C187.834 84.2132 186.099 85.9461 186.099 88.0855C186.099 90.2222 187.834 91.9566 189.97 91.9566ZM150.053 91.9566C151.073 91.9566 152.069 91.5417 152.791 90.8216C153.512 90.1001 153.926 89.1039 153.926 88.0855C153.926 87.0644 153.512 86.0682 152.791 85.3467C152.069 84.6252 151.073 84.2132 150.053 84.2132C149.033 84.2132 148.037 84.6252 147.316 85.3467C146.596 86.0682 146.182 87.0644 146.182 88.0855C146.182 89.1039 146.596 90.1001 147.316 90.8216C148.037 91.5417 149.033 91.9566 150.053 91.9566ZM209.943 107.86C210.964 107.86 211.959 107.446 212.682 106.725C213.402 106.003 213.815 105.007 213.815 103.987C213.815 102.967 213.402 101.97 212.682 101.25C211.959 100.528 210.964 100.115 209.943 100.115C208.923 100.115 207.927 100.528 207.207 101.25C206.484 101.97 206.072 102.967 206.072 103.987C206.072 105.007 206.484 106.003 207.207 106.725C207.927 107.446 208.923 107.86 209.943 107.86ZM170.008 107.86H170.027C172.165 107.86 173.898 106.125 173.898 103.987C173.898 101.848 172.165 100.115 170.027 100.115H170.008C167.869 100.115 166.135 101.848 166.135 103.987C166.135 106.125 167.869 107.86 170.008 107.86ZM189.97 107.86H189.99C192.129 107.86 193.862 106.125 193.862 103.987C193.862 101.848 192.129 100.115 189.99 100.115H189.97C187.834 100.115 186.099 101.848 186.099 103.987C186.099 106.125 187.834 107.86 189.97 107.86Z" fill="#F6F6F6"/>
<path d="M-9.80136 187.788C-8.78019 187.788 -7.78539 187.375 -7.06391 186.653C-6.34105 185.933 -5.92895 184.937 -5.92895 183.916C-5.92895 182.896 -6.34105 181.9 -7.06391 181.178C-7.78539 180.457 -8.78019 180.045 -9.80136 180.045C-10.8211 180.045 -11.8173 180.457 -12.5388 181.178C-13.2589 181.9 -13.6724 182.896 -13.6724 183.916C-13.6724 184.937 -13.2589 185.933 -12.5388 186.653C-11.8173 187.375 -10.8211 187.788 -9.80136 187.788ZM50.0883 235.497C51.1094 235.497 52.1057 235.085 52.8271 234.365C53.5472 233.644 53.9607 232.648 53.9607 231.626C53.9607 230.608 53.5472 229.61 52.8271 228.89C52.1057 228.169 51.1094 227.755 50.0883 227.755C49.0685 227.755 48.0723 228.169 47.3522 228.89C46.6293 229.61 46.2173 230.608 46.2173 231.626C46.2173 232.648 46.6293 233.644 47.3522 234.365C48.0723 235.085 49.0685 235.497 50.0883 235.497ZM10.1531 235.497H10.1725C12.3106 235.497 14.0449 233.766 14.0449 231.626C14.0449 229.49 12.3106 227.755 10.1725 227.755H10.1531C8.015 227.755 6.28068 229.49 6.28068 231.626C6.28068 233.766 8.015 235.497 10.1531 235.497ZM30.1158 235.497H30.1366C32.2747 235.497 34.0076 233.766 34.0076 231.626C34.0076 229.49 32.2747 227.755 30.1366 227.755H30.1158C27.9791 227.755 26.2448 229.49 26.2448 231.626C26.2448 233.766 27.9791 235.497 30.1158 235.497ZM-9.80136 235.497C-8.78019 235.497 -7.78539 235.085 -7.06391 234.365C-6.34105 233.644 -5.92895 232.648 -5.92895 231.626C-5.92895 230.608 -6.34105 229.61 -7.06391 228.89C-7.78539 228.169 -8.78019 227.755 -9.80136 227.755C-10.8211 227.755 -11.8173 228.169 -12.5388 228.89C-13.2589 229.61 -13.6724 230.608 -13.6724 231.626C-13.6724 232.648 -13.2589 233.644 -12.5388 234.365C-11.8173 235.085 -10.8211 235.497 -9.80136 235.497ZM50.0883 219.596C51.1094 219.596 52.1057 219.182 52.8271 218.461C53.5472 217.741 53.9607 216.743 53.9607 215.723C53.9607 214.705 53.5472 213.707 52.8271 212.986C52.1057 212.264 51.1094 211.852 50.0883 211.852C49.0685 211.852 48.0723 212.264 47.3522 212.986C46.6293 213.707 46.2173 214.705 46.2173 215.723C46.2173 216.743 46.6293 217.741 47.3522 218.461C48.0723 219.182 49.0685 219.596 50.0883 219.596ZM10.1531 219.596H10.1725C12.3106 219.596 14.0449 217.861 14.0449 215.723C14.0449 213.585 12.3106 211.852 10.1725 211.852H10.1531C8.015 211.852 6.28068 213.585 6.28068 215.723C6.28068 217.861 8.015 219.596 10.1531 219.596ZM30.1158 219.596H30.1366C32.2747 219.596 34.0076 217.861 34.0076 215.723C34.0076 213.585 32.2747 211.852 30.1366 211.852H30.1158C27.9791 211.852 26.2448 213.585 26.2448 215.723C26.2448 217.861 27.9791 219.596 30.1158 219.596ZM-9.80136 219.596C-8.78019 219.596 -7.78539 219.182 -7.06391 218.461C-6.34105 217.741 -5.92895 216.743 -5.92895 215.723C-5.92895 214.705 -6.34105 213.707 -7.06391 212.986C-7.78539 212.264 -8.78019 211.852 -9.80136 211.852C-10.8211 211.852 -11.8173 212.264 -12.5388 212.986C-13.2589 213.707 -13.6724 214.705 -13.6724 215.723C-13.6724 216.743 -13.2589 217.741 -12.5388 218.461C-11.8173 219.182 -10.8211 219.596 -9.80136 219.596ZM50.0883 203.693C51.1094 203.693 52.1057 203.278 52.8271 202.556C53.5472 201.838 53.9607 200.84 53.9607 199.82C53.9607 198.801 53.5472 197.804 52.8271 197.083C52.1057 196.361 51.1094 195.949 50.0883 195.949C49.0685 195.949 48.0723 196.361 47.3522 197.083C46.6293 197.804 46.2173 198.801 46.2173 199.82C46.2173 200.84 46.6293 201.838 47.3522 202.556C48.0723 203.278 49.0685 203.693 50.0883 203.693ZM10.1531 203.693H10.1725C12.3106 203.693 14.0449 201.957 14.0449 199.82C14.0449 197.682 12.3106 195.949 10.1725 195.949H10.1531C8.015 195.949 6.28068 197.682 6.28068 199.82C6.28068 201.957 8.015 203.693 10.1531 203.693ZM30.1158 203.693H30.1366C32.2747 203.693 34.0076 201.957 34.0076 199.82C34.0076 197.682 32.2747 195.949 30.1366 195.949H30.1158C27.9791 195.949 26.2448 197.682 26.2448 199.82C26.2448 201.957 27.9791 203.693 30.1158 203.693ZM-9.80136 203.693C-8.78019 203.693 -7.78539 203.278 -7.06391 202.556C-6.34105 201.838 -5.92895 200.84 -5.92895 199.82C-5.92895 198.801 -6.34105 197.804 -7.06391 197.083C-7.78539 196.361 -8.78019 195.949 -9.80136 195.949C-10.8211 195.949 -11.8173 196.361 -12.5388 197.083C-13.2589 197.804 -13.6724 198.801 -13.6724 199.82C-13.6724 200.84 -13.2589 201.838 -12.5388 202.556C-11.8173 203.278 -10.8211 203.693 -9.80136 203.693ZM50.0883 171.885C51.1094 171.885 52.1057 171.472 52.8271 170.752C53.5472 170.03 53.9607 169.033 53.9607 168.014C53.9607 166.994 53.5472 165.997 52.8271 165.275C52.1057 164.554 51.1094 164.142 50.0883 164.142C49.0685 164.142 48.0723 164.554 47.3522 165.275C46.6293 165.997 46.2173 166.994 46.2173 168.014C46.2173 169.033 46.6293 170.03 47.3522 170.752C48.0723 171.472 49.0685 171.885 50.0883 171.885ZM10.1531 171.885H10.1725C12.3106 171.885 14.0449 170.152 14.0449 168.014C14.0449 165.875 12.3106 164.142 10.1725 164.142H10.1531C8.015 164.142 6.28068 165.875 6.28068 168.014C6.28068 170.152 8.015 171.885 10.1531 171.885ZM30.1158 171.885H30.1366C32.2747 171.885 34.0076 170.152 34.0076 168.014C34.0076 165.875 32.2747 164.142 30.1366 164.142H30.1158C27.9791 164.142 26.2448 165.875 26.2448 168.014C26.2448 170.152 27.9791 171.885 30.1158 171.885ZM-9.80136 171.885C-8.78019 171.885 -7.78539 171.472 -7.06391 170.752C-6.34105 170.03 -5.92895 169.033 -5.92895 168.014C-5.92895 166.994 -6.34105 165.997 -7.06391 165.275C-7.78539 164.554 -8.78019 164.142 -9.80136 164.142C-10.8211 164.142 -11.8173 164.554 -12.5388 165.275C-13.2589 165.997 -13.6724 166.994 -13.6724 168.014C-13.6724 169.033 -13.2589 170.03 -12.5388 170.752C-11.8173 171.472 -10.8211 171.885 -9.80136 171.885ZM50.0883 187.788C51.1094 187.788 52.1057 187.375 52.8271 186.653C53.5472 185.933 53.9607 184.937 53.9607 183.916C53.9607 182.896 53.5472 181.9 52.8271 181.178C52.1057 180.457 51.1094 180.045 50.0883 180.045C49.0685 180.045 48.0723 180.457 47.3522 181.178C46.6293 181.9 46.2173 182.896 46.2173 183.916C46.2173 184.937 46.6293 185.933 47.3522 186.653C48.0723 187.375 49.0685 187.788 50.0883 187.788ZM10.1531 187.788H10.1725C12.3106 187.788 14.0449 186.054 14.0449 183.916C14.0449 181.778 12.3106 180.045 10.1725 180.045H10.1531C8.015 180.045 6.28068 181.778 6.28068 183.916C6.28068 186.054 8.015 187.788 10.1531 187.788ZM30.1158 187.788H30.1366C32.2747 187.788 34.0076 186.054 34.0076 183.916C34.0076 181.778 32.2747 180.045 30.1366 180.045H30.1158C27.9791 180.045 26.2448 181.778 26.2448 183.916C26.2448 186.054 27.9791 187.788 30.1158 187.788Z" fill="#F0F0F0"/>
<path d="M-19.8188 159.855V79.9273H60.1071C60.1071 124.069 24.3231 159.855 -19.8188 159.855Z" fill="#E8E8E8"/>
<path fill-rule="evenodd" clip-rule="evenodd" d="M60.107 39.9643C60.107 62.036 42.2157 79.9273 20.144 79.9273C-1.92765 79.9273 -19.8203 62.036 -19.8203 39.9643C-19.8203 17.8927 -1.92765 0.00138474 20.144 0.00138474C42.2157 0.00138474 60.107 17.8927 60.107 39.9643ZM22.0421 43.1125C22.0421 45.9013 19.7819 48.1601 16.9945 48.1601C14.2071 48.1601 11.9483 45.9013 11.9483 43.1125C11.9483 40.3251 14.2071 38.0663 16.9945 38.0663C19.7819 38.0663 22.0421 40.3251 22.0421 43.1125Z" fill="#F6F6F6"/>
<path d="M-19.8188 239.785H9.90743C9.90743 267.509 32.3815 289.986 60.1071 289.986V319.712C15.9651 319.712 -19.8188 283.927 -19.8188 239.785Z" fill="#E8E8E8"/>
<path d="M-19.8188 399.641H60.1085V319.712H-19.8188V399.641Z" fill="#F6F6F6" stroke="#F6F6F6" stroke-width="0.898379" stroke-miterlimit="10"/>
<path fill-rule="evenodd" clip-rule="evenodd" d="M219.962 199.818C219.962 221.889 202.07 239.781 179.997 239.781C157.927 239.781 140.034 221.889 140.034 199.818C140.034 177.746 157.927 159.855 179.997 159.855C202.07 159.855 219.962 177.746 219.962 199.818ZM181.897 202.967C181.897 205.754 179.637 208.013 176.849 208.013C174.062 208.013 171.803 205.754 171.803 202.967C171.803 200.178 174.062 197.919 176.849 197.919C179.637 197.919 181.897 200.178 181.897 202.967Z" fill="#E8E8E8"/>
<path d="M219.962 159.856H299.889V79.9273H219.962V159.856Z" fill="#F0F0F0"/>
<path d="M219.962 319.712V239.783H299.889C299.889 283.927 264.105 319.712 219.962 319.712Z" fill="#F0F0F0"/>
<path fill-rule="evenodd" clip-rule="evenodd" d="M299.889 39.963C299.889 62.0346 281.998 79.9273 259.926 79.9273C237.854 79.9273 219.962 62.0346 219.962 39.963C219.962 17.8913 237.854 -3.8147e-06 259.926 -3.8147e-06C281.998 -3.8147e-06 299.889 17.8913 299.889 39.963ZM261.824 43.1125C261.824 45.8999 259.564 48.1587 256.777 48.1587C253.989 48.1587 251.73 45.8999 251.73 43.1125C251.73 40.3251 253.989 38.0649 256.777 38.0649C259.564 38.0649 261.824 40.3251 261.824 43.1125Z" fill="#E8E8E8"/>
<path d="M309.908 187.787C310.928 187.787 311.924 187.373 312.645 186.652C313.367 185.93 313.78 184.934 313.78 183.915C313.78 182.895 313.367 181.899 312.645 181.177C311.924 180.456 310.928 180.044 309.908 180.044C308.888 180.044 307.89 180.456 307.17 181.177C306.449 181.899 306.035 182.895 306.035 183.915C306.035 184.934 306.449 185.93 307.17 186.652C307.89 187.373 308.888 187.787 309.908 187.787ZM369.797 235.496C370.817 235.496 371.813 235.084 372.536 234.364C373.256 233.642 373.67 232.645 373.67 231.625C373.67 230.607 373.256 229.609 372.536 228.888C371.813 228.167 370.817 227.754 369.797 227.754C368.778 227.754 367.781 228.167 367.061 228.888C366.338 229.609 365.926 230.607 365.926 231.625C365.926 232.645 366.338 233.642 367.061 234.364C367.781 235.084 368.778 235.496 369.797 235.496ZM329.862 235.496H329.882C332.02 235.496 333.753 233.764 333.753 231.625C333.753 229.487 332.02 227.754 329.882 227.754H329.862C327.724 227.754 325.99 229.487 325.99 231.625C325.99 233.764 327.724 235.496 329.862 235.496ZM349.825 235.496H349.844C351.982 235.496 353.717 233.764 353.717 231.625C353.717 229.487 351.982 227.754 349.844 227.754H349.825C347.688 227.754 345.954 229.487 345.954 231.625C345.954 233.764 347.688 235.496 349.825 235.496ZM309.908 235.496C310.928 235.496 311.924 235.084 312.645 234.364C313.367 233.642 313.78 232.645 313.78 231.625C313.78 230.607 313.367 229.609 312.645 228.888C311.924 228.167 310.928 227.754 309.908 227.754C308.888 227.754 307.89 228.167 307.17 228.888C306.449 229.609 306.035 230.607 306.035 231.625C306.035 232.645 306.449 233.642 307.17 234.364C307.89 235.084 308.888 235.496 309.908 235.496ZM369.797 219.594C370.817 219.594 371.813 219.18 372.536 218.459C373.256 217.738 373.67 216.742 373.67 215.722C373.67 214.702 373.256 213.706 372.536 212.985C371.813 212.263 370.817 211.851 369.797 211.851C368.778 211.851 367.781 212.263 367.061 212.985C366.338 213.706 365.926 214.702 365.926 215.722C365.926 216.742 366.338 217.738 367.061 218.459C367.781 219.18 368.778 219.594 369.797 219.594ZM329.862 219.594H329.882C332.02 219.594 333.753 217.86 333.753 215.722C333.753 213.584 332.02 211.851 329.882 211.851H329.862C327.724 211.851 325.99 213.584 325.99 215.722C325.99 217.86 327.724 219.594 329.862 219.594ZM349.825 219.594H349.844C351.982 219.594 353.717 217.86 353.717 215.722C353.717 213.584 351.982 211.851 349.844 211.851H349.825C347.688 211.851 345.954 213.584 345.954 215.722C345.954 217.86 347.688 219.594 349.825 219.594ZM309.908 219.594C310.928 219.594 311.924 219.18 312.645 218.459C313.367 217.738 313.78 216.742 313.78 215.722C313.78 214.702 313.367 213.706 312.645 212.985C311.924 212.263 310.928 211.851 309.908 211.851C308.888 211.851 307.89 212.263 307.17 212.985C306.449 213.706 306.035 214.702 306.035 215.722C306.035 216.742 306.449 217.738 307.17 218.459C307.89 219.18 308.888 219.594 309.908 219.594ZM369.797 203.69C370.817 203.69 371.813 203.276 372.536 202.555C373.256 201.835 373.67 200.837 373.67 199.819C373.67 198.799 373.256 197.802 372.536 197.08C371.813 196.36 370.817 195.947 369.797 195.947C368.778 195.947 367.781 196.36 367.061 197.08C366.338 197.802 365.926 198.799 365.926 199.819C365.926 200.837 366.338 201.835 367.061 202.555C367.781 203.276 368.778 203.69 369.797 203.69ZM329.862 203.69H329.882C332.02 203.69 333.753 201.956 333.753 199.819C333.753 197.679 332.02 195.947 329.882 195.947H329.862C327.724 195.947 325.99 197.679 325.99 199.819C325.99 201.956 327.724 203.69 329.862 203.69ZM349.825 203.69H349.844C351.982 203.69 353.717 201.956 353.717 199.819C353.717 197.679 351.982 195.947 349.844 195.947H349.825C347.688 195.947 345.954 197.679 345.954 199.819C345.954 201.956 347.688 203.69 349.825 203.69ZM309.908 203.69C310.928 203.69 311.924 203.276 312.645 202.555C313.367 201.835 313.78 200.837 313.78 199.819C313.78 198.799 313.367 197.802 312.645 197.08C311.924 196.36 310.928 195.947 309.908 195.947C308.888 195.947 307.89 196.36 307.17 197.08C306.449 197.802 306.035 198.799 306.035 199.819C306.035 200.837 306.449 201.835 307.17 202.555C307.89 203.276 308.888 203.69 309.908 203.69ZM369.797 171.884C370.817 171.884 371.813 171.469 372.536 170.749C373.256 170.027 373.67 169.031 373.67 168.013C373.67 166.992 373.256 165.995 372.536 165.274C371.813 164.553 370.817 164.14 369.797 164.14C368.778 164.14 367.781 164.553 367.061 165.274C366.338 165.995 365.926 166.992 365.926 168.013C365.926 169.031 366.338 170.027 367.061 170.749C367.781 171.469 368.778 171.884 369.797 171.884ZM329.862 171.884H329.882C332.02 171.884 333.753 170.15 333.753 168.013C333.753 165.873 332.02 164.14 329.882 164.14H329.862C327.724 164.14 325.99 165.873 325.99 168.013C325.99 170.15 327.724 171.884 329.862 171.884ZM349.825 171.884H349.844C351.982 171.884 353.717 170.15 353.717 168.013C353.717 165.873 351.982 164.14 349.844 164.14H349.825C347.688 164.14 345.954 165.873 345.954 168.013C345.954 170.15 347.688 171.884 349.825 171.884ZM309.908 171.884C310.928 171.884 311.924 171.469 312.645 170.749C313.367 170.027 313.78 169.031 313.78 168.013C313.78 166.992 313.367 165.995 312.645 165.274C311.924 164.553 310.928 164.14 309.908 164.14C308.888 164.14 307.89 164.553 307.17 165.274C306.449 165.995 306.035 166.992 306.035 168.013C306.035 169.031 306.449 170.027 307.17 170.749C307.89 171.469 308.888 171.884 309.908 171.884ZM369.797 187.787C370.817 187.787 371.813 187.373 372.536 186.652C373.256 185.93 373.67 184.934 373.67 183.915C373.67 182.895 373.256 181.899 372.536 181.177C371.813 180.456 370.817 180.044 369.797 180.044C368.778 180.044 367.781 180.456 367.061 181.177C366.338 181.899 365.926 182.895 365.926 183.915C365.926 184.934 366.338 185.93 367.061 186.652C367.781 187.373 368.778 187.787 369.797 187.787ZM329.862 187.787H329.882C332.02 187.787 333.753 186.053 333.753 183.915C333.753 181.775 332.02 180.044 329.882 180.044H329.862C327.724 180.044 325.99 181.775 325.99 183.915C325.99 186.053 327.724 187.787 329.862 187.787ZM349.825 187.787H349.844C351.982 187.787 353.717 186.053 353.717 183.915C353.717 181.775 351.982 180.044 349.844 180.044H349.825C347.688 180.044 345.954 181.775 345.954 183.915C345.954 186.053 347.688 187.787 349.825 187.787Z" fill="#E8E8E8"/>
<path d="M299.889 79.9273H379.818V159.853C335.674 159.853 299.889 124.069 299.889 79.9273Z" fill="#F6F6F6"/>
</svg>
