<svg width="129" height="114" viewBox="0 0 129 114" fill="none" xmlns="http://www.w3.org/2000/svg">
<path d="M11.3617 11.3618C18.2834 4.43888 27.5671 0.389677 37.3499 0.0266926C47.1328 -0.336292 56.6911 3.0138 64.1067 9.40474C71.5158 3.02445 81.0614 -0.321876 90.8326 0.0357102C100.604 0.393297 109.879 4.4284 116.802 11.3332C123.725 18.238 127.784 27.5029 128.168 37.273C128.551 47.0432 125.229 56.5975 118.868 64.0233L72.5376 110.503C70.409 112.633 67.5541 113.879 64.5454 113.992C61.5367 114.104 58.5965 113.076 56.3143 111.112L55.658 110.509L9.33305 64.0233C2.97553 56.604 -0.347339 47.0584 0.0287697 37.2951C0.404879 27.5317 4.45225 18.2701 11.3617 11.3618ZM19.7985 19.7986C14.9193 24.6792 12.1067 31.2512 11.9444 38.1506C11.7822 45.05 14.2829 51.7469 18.9274 56.8514L19.7985 57.7703L64.1008 102.073L95.7418 70.4255L74.6498 49.3334L68.3251 55.6581C66.6632 57.3208 64.6901 58.6398 62.5184 59.54C60.3467 60.4401 58.019 60.9037 55.6682 60.9043C50.9204 60.9054 46.3667 59.0204 43.0087 55.664C39.6508 52.3077 37.7636 47.7548 37.7625 43.0071C37.7614 38.2593 39.6464 33.7056 43.0028 30.3476L55.5446 17.7998C50.5533 13.8163 44.3059 11.7418 37.9233 11.9485C31.5406 12.1551 25.4405 14.6295 20.7174 18.9275L19.7985 19.7986ZM70.4314 36.6723C71.5503 35.5537 73.0676 34.9253 74.6498 34.9253C76.2319 34.9253 77.7493 35.5537 78.8682 36.6723L104.179 61.9827L108.403 57.7703C113.364 52.8128 116.188 46.111 116.272 39.0981C116.356 32.0851 113.692 25.3179 108.851 20.2435C104.009 15.1691 97.3747 12.1904 90.3656 11.9445C83.3565 11.6985 76.5293 14.2049 71.3443 18.9275L70.4314 19.7986L51.4455 38.7844C50.4113 39.8179 49.7926 41.1952 49.7068 42.6548C49.621 44.1143 50.0741 45.5546 50.9801 46.7022L51.4455 47.2213C52.479 48.2555 53.8563 48.8742 55.3159 48.96C56.7754 49.0458 58.2157 48.5927 59.3633 47.6867L59.8824 47.2213L70.4314 36.6723Z" fill="#272727"/>
</svg>
