<svg width="202" height="63" viewBox="0 0 202 63" fill="none" xmlns="http://www.w3.org/2000/svg">
<path fill-rule="evenodd" clip-rule="evenodd" d="M62.9875 31.5C62.9875 48.8825 48.889 62.9706 31.4937 62.9706C14.101 62.9706 0 48.8825 0 31.5C0 14.12 14.101 0.0293274 31.4937 0.0293274C48.889 0.0293274 62.9875 14.12 62.9875 31.5ZM189.724 8.9108H202V37.8555C202 41.297 201.178 44.2693 199.538 46.7775C197.896 49.2858 195.612 51.2183 192.683 52.5802C189.754 53.9395 186.353 54.6192 182.483 54.6192C178.582 54.6192 175.169 53.9395 172.24 52.5802C169.311 51.2183 167.032 49.2858 165.405 46.7775C163.781 44.2693 162.966 41.297 162.966 37.8555V8.9108H175.242V36.7954C175.242 38.1928 175.552 39.438 176.168 40.5336C176.788 41.6292 177.643 42.4864 178.742 43.1027C179.836 43.7215 181.085 44.0309 182.483 44.0309C183.894 44.0309 185.148 43.7215 186.237 43.1027C187.325 42.4864 188.178 41.6292 188.797 40.5336C189.414 39.438 189.724 38.1928 189.724 36.7954V8.9108ZM126.929 8.9108L136.203 40.767H136.556L145.827 8.9108H159.692L144.769 54.0892H127.988L113.067 8.9108H126.929ZM113.694 25.8521H101.242C101.154 24.8224 100.923 23.8891 100.547 23.0522C100.171 22.2127 99.6561 21.4899 99.0013 20.8762C98.3465 20.2675 97.5572 19.7958 96.6283 19.4661C95.702 19.1339 94.6487 18.969 93.4711 18.969C91.4103 18.969 89.6692 19.4687 88.2505 20.4704C86.8292 21.4697 85.7557 22.9051 85.0273 24.7717C84.2989 26.6408 83.9359 28.8827 83.9359 31.5C83.9359 34.2669 84.3039 36.5773 85.0501 38.4388C85.7912 40.2978 86.8724 41.6977 88.2835 42.631C89.6971 43.5643 91.3976 44.0309 93.3823 44.0309C94.5167 44.0309 95.5319 43.8889 96.4304 43.5998C97.3263 43.3132 98.108 42.8998 98.7704 42.3546C99.4328 41.8093 99.9734 41.1524 100.392 40.3789C100.813 39.6079 101.095 38.7355 101.242 37.7642L113.694 37.8555C113.546 39.7652 113.008 41.7104 112.082 43.6886C111.156 45.6667 109.841 47.4902 108.141 49.159C106.443 50.8277 104.341 52.1719 101.839 53.1863C99.3364 54.2008 96.4304 54.708 93.1183 54.708C88.9687 54.708 85.2481 53.8203 81.9588 52.04C78.6696 50.2596 76.0707 47.6424 74.1647 44.1856C72.2587 40.7289 71.307 36.5012 71.307 31.5C71.307 26.4709 72.279 22.2305 74.2206 18.7814C76.1621 15.3322 78.7838 12.7251 82.0781 10.9498C85.3775 9.17963 89.0576 8.29199 93.1183 8.29199C95.9735 8.29199 98.6003 8.68255 101.001 9.46114C103.4 10.2423 105.504 11.3784 107.313 12.8697C109.123 14.3635 110.58 16.1971 111.686 18.3756C112.79 20.5516 113.458 23.0446 113.694 25.8521ZM32.9911 33.9803C32.9911 36.1766 31.2095 37.9544 29.0116 37.9544C26.8162 37.9544 25.0346 36.1766 25.0346 33.9803C25.0346 31.784 26.8162 30.0062 29.0116 30.0062C31.2095 30.0062 32.9911 31.784 32.9911 33.9803Z" fill="black"/>
</svg>
