<?xml version="1.0" encoding="utf-8"?>
<!-- Generator: Adobe Illustrator 27.4.1, SVG Export Plug-In . SVG Version: 6.00 Build 0)  -->
<svg version="1.1" id="Layer_1" xmlns="http://www.w3.org/2000/svg" xmlns:xlink="http://www.w3.org/1999/xlink" x="0px" y="0px"
	 viewBox="0 0 1920 1080" style="enable-background:new 0 0 1920 1080;" xml:space="preserve">
<style type="text/css">
	.st0{fill-rule:evenodd;clip-rule:evenodd;fill:#C9C9C9;}
	.st1{fill-rule:evenodd;clip-rule:evenodd;fill:#B1B1B1;}
</style>
<rect class="st0" width="1920" height="1080"/>
<g id="Page-1">
	<g id="Dribbble-Light-Preview" transform="translate(-180.000000, -3919.000000)">
		<g id="icons" transform="translate(56.000000, 160.000000)">
			<path id="images-_x5B__x23_967_x5D_" class="st1" d="M1106.5,4312.9c23,0,41.6-18.6,41.6-41.6c0-23-18.6-41.6-41.6-41.6
				c-23,0-41.6,18.6-41.6,41.6C1064.9,4294.3,1083.6,4312.9,1106.5,4312.9L1106.5,4312.9z M917.6,4465.4h40.7l59.6-64.8l-67.2-72.4
				l-33.2,33.2V4465.4z M917.6,4302.5l32.8-32.8l0.3,0.3l0.3-0.3l96.3,96.3l29.8-29.8l0.3,0.3l0.3-0.3l89.4,89.4v-209.8H917.6
				V4302.5z M1137.8,4465.4l-60.3-60.3l-60.3,60.3H1137.8z M876,4507h332.8v-332.8H876V4507z M1292,4091v332.8h-41.6v-291.2H959.2
				V4091H1292z"/>
		</g>
	</g>
</g>
</svg>
