<svg width="114" height="114" viewBox="0 0 114 114" fill="none" xmlns="http://www.w3.org/2000/svg">
<path d="M12.6667 51.3L25.3333 38.6333L60.1667 73.4667L82.3333 51.3L101.333 70.3V12.6667H12.6667V51.3ZM12.6667 69.217V101.333H32.3L51.2113 82.4283L25.3333 56.5503L12.6667 69.217ZM50.217 101.333H101.333V88.217L82.3333 69.217L50.217 101.333ZM6.33333 0H107.667C109.346 0 110.957 0.66726 112.145 1.85499C113.333 3.04272 114 4.65363 114 6.33333V107.667C114 109.346 113.333 110.957 112.145 112.145C110.957 113.333 109.346 114 107.667 114H6.33333C4.65363 114 3.04272 113.333 1.85499 112.145C0.66726 110.957 0 109.346 0 107.667V6.33333C0 4.65363 0.66726 3.04272 1.85499 1.85499C3.04272 0.66726 4.65363 0 6.33333 0ZM79.1667 44.3333C76.6471 44.3333 74.2307 43.3324 72.4491 41.5508C70.6676 39.7693 69.6667 37.3529 69.6667 34.8333C69.6667 32.3138 70.6676 29.8974 72.4491 28.1158C74.2307 26.3342 76.6471 25.3333 79.1667 25.3333C81.6862 25.3333 84.1026 26.3342 85.8842 28.1158C87.6658 29.8974 88.6667 32.3138 88.6667 34.8333C88.6667 37.3529 87.6658 39.7693 85.8842 41.5508C84.1026 43.3324 81.6862 44.3333 79.1667 44.3333Z" fill="#272727"/>
</svg>
