<svg width="115" height="114" viewBox="0 0 115 114" fill="none" xmlns="http://www.w3.org/2000/svg">
<path d="M63.1533 34.4398L71.3597 42.6461C75.1299 46.4159 78.1206 50.8915 80.161 55.8172C82.2015 60.7429 83.2517 66.0223 83.2517 71.3539C83.2517 76.6855 82.2015 81.9649 80.161 86.8906C78.1206 91.8163 75.1299 96.2918 71.3597 100.062L69.3066 102.109C61.6929 109.723 51.3664 114 40.5989 114C29.8314 114 19.5049 109.723 11.8911 102.109C4.27737 94.4951 8.02241e-08 84.1686 0 73.4011C-8.02241e-08 62.6336 4.27737 52.3071 11.8911 44.6934L20.0975 52.8997C17.3855 55.5881 15.2311 58.7857 13.7582 62.3089C12.2852 65.8321 11.5227 69.6116 11.5143 73.4303C11.506 77.249 12.2519 81.0318 13.7094 84.5614C15.1669 88.0911 17.3073 91.2981 20.0075 93.9983C22.7077 96.6985 25.9147 98.8389 29.4444 100.296C32.974 101.754 36.7568 102.5 40.5755 102.491C44.3942 102.483 48.1736 101.721 51.6969 100.248C55.2201 98.7747 58.4177 96.6203 61.1061 93.9083L63.1591 91.8553C68.5953 86.4174 71.6492 79.043 71.6492 71.3539C71.6492 63.6647 68.5953 56.2904 63.1591 50.8525L54.9528 42.6461L63.1591 34.4456L63.1533 34.4398ZM102.115 69.3008L93.9141 61.1003C96.6261 58.4119 98.7805 55.2143 100.253 51.6911C101.726 48.1678 102.489 44.3884 102.497 40.5697C102.506 36.751 101.76 32.9682 100.302 29.4386C98.8446 25.9089 96.7043 22.7019 94.0041 20.0017C91.3038 17.3015 88.0968 15.1611 84.5672 13.7036C81.0376 12.2462 77.2548 11.5002 73.4361 11.5085C69.6174 11.5169 65.8379 12.2794 62.3147 13.7524C58.7915 15.2253 55.5939 17.3797 52.9055 20.0917L50.8525 22.1447C45.4162 27.5826 42.3623 34.957 42.3623 42.6461C42.3623 50.3353 45.4162 57.7096 50.8525 63.1475L59.0588 71.3539L50.8525 79.5544L42.6519 71.3539C38.8817 67.5841 35.891 63.1085 33.8506 58.1828C31.8101 53.2571 30.7599 47.9777 30.7599 42.6461C30.7599 37.3145 31.8101 32.0351 33.8506 27.1094C35.891 22.1837 38.8817 17.7082 42.6519 13.9384L44.705 11.8911C52.3187 4.27737 62.6452 0 73.4127 0C84.1802 0 94.5067 4.27737 102.12 11.8911C109.734 19.5049 114.012 29.8314 114.012 40.5989C114.012 51.3664 109.734 61.6929 102.12 69.3066L102.115 69.3008Z" fill="#272727"/>
</svg>
